<svg width="482" height="320" viewBox="0 0 482 320" fill="none" xmlns="http://www.w3.org/2000/svg">
<g clip-path="url(#clip0_8473_74051)">
<path d="M244.223 89.9393C239.926 82.8325 234.834 75.2446 226.86 72.924C217.626 70.2367 208.139 75.5752 200.093 80.8432C176.03 96.5982 152.856 113.672 130.679 131.987L130.703 132.263C147.969 131.072 165.235 129.881 182.501 128.691C194.976 127.83 207.879 126.851 218.903 120.95C223.086 118.711 227.164 115.72 231.905 115.511C237.794 115.252 242.929 119.365 246.965 123.663C270.837 149.083 277.745 187.957 304.527 210.29C287.639 168.642 267.474 128.399 244.223 89.9393Z" fill="#F2F2F2"/>
<path d="M390.96 305.549C388.32 302.216 387.241 301.435 384.637 298.071C363.435 270.648 343.506 242.3 324.851 213.025C312.18 193.143 300.138 172.879 288.723 152.233C283.289 142.418 278.004 132.525 272.868 122.556C268.882 114.826 264.985 107.05 261.178 99.2272C260.089 96.9929 259.031 94.7484 257.978 92.4988C255.497 87.2085 253.062 81.8925 250.448 76.6741C247.469 70.7264 243.843 64.491 238.373 60.495C235.883 58.6018 232.906 57.4563 229.79 57.1924C225.337 56.9048 221.228 58.7436 217.366 60.7518C189.106 75.4876 162.65 93.9626 138.72 114.985C114.729 136.055 93.2852 159.859 74.8253 185.911C74.2606 186.718 72.9251 185.947 73.4951 185.136C75.7397 181.961 78.0288 178.821 80.3623 175.716C109.378 137.125 144.956 103.94 185.47 77.6756C192.286 73.2585 199.23 69.0485 206.302 65.0457C209.867 63.0271 213.447 61.0343 217.088 59.1647C220.658 57.3311 224.449 55.6824 228.527 55.6207C242.405 55.405 249.59 71.1218 254.526 81.6973C256.077 85.0256 257.647 88.3436 259.236 91.6513C265.24 104.209 271.476 116.653 277.942 128.981C281.933 136.593 286.011 144.161 290.177 151.683C303.141 175.11 316.919 198.062 331.513 220.54C350.846 250.314 370.024 276.617 392.049 304.46C392.655 305.231 391.571 306.33 390.96 305.549Z" fill="#E4E4E4"/>
<path d="M137.348 107.224C136.541 106.325 135.74 105.427 134.929 104.528C128.529 97.4501 121.662 90.4545 112.874 86.3969C108.683 84.4011 104.109 83.3408 99.4681 83.2895C94.6709 83.3049 89.9816 84.5633 85.5491 86.325C83.4535 87.1622 81.404 88.1124 79.3857 89.1242C77.0794 90.285 74.8142 91.5229 72.5596 92.771C68.3272 95.1131 64.1498 97.5579 60.0273 100.105C51.8246 105.175 43.8789 110.631 36.19 116.475C32.2042 119.505 28.3006 122.635 24.4793 125.864C20.9251 128.863 17.4427 131.943 14.0323 135.104C13.303 135.777 12.214 134.688 12.9433 134.015C13.8422 133.178 14.7513 132.346 15.6604 131.524C18.2285 129.202 20.8378 126.925 23.4881 124.693C28.3212 120.614 33.2793 116.694 38.3626 112.931C46.2673 107.075 54.4442 101.617 62.8931 96.5564C67.1152 94.0294 71.3953 91.6085 75.7336 89.2938C77.0435 88.5952 78.3687 87.9121 79.7092 87.2649C82.7509 85.7307 85.9113 84.4442 89.1598 83.4179C93.7614 81.9293 98.63 81.451 103.433 82.0157C108.071 82.6903 112.539 84.2361 116.603 86.5716C125.231 91.3945 131.924 98.8522 138.437 106.13C139.094 106.87 138.01 107.964 137.348 107.224Z" fill="#E4E4E4"/>
<path d="M314.148 180.568L334.825 173.006L345.091 169.251C348.435 168.028 351.77 166.636 355.227 165.76C358.23 164.902 361.419 164.943 364.4 165.877C367.059 166.861 369.492 168.369 371.556 170.312C373.664 172.254 375.625 174.349 377.424 176.58C379.659 179.266 381.862 181.98 384.074 184.685C393.203 195.85 402.272 207.063 411.282 218.325C420.292 229.587 429.241 240.896 438.13 252.253C447.041 263.638 455.891 275.071 464.679 286.551C465.756 287.957 466.832 289.364 467.906 290.772C468.5 291.55 469.839 290.783 469.237 289.994C460.384 278.399 451.469 266.85 442.492 255.35C433.494 243.822 424.433 232.342 415.31 220.912C406.187 209.482 397.002 198.101 387.756 186.77C385.453 183.947 383.145 181.128 380.834 178.311C378.885 175.935 376.957 173.533 374.819 171.322C370.894 167.263 365.99 163.675 360.121 163.578C356.669 163.521 353.329 164.616 350.123 165.776C346.666 167.026 343.218 168.3 339.765 169.563L318.944 177.178L313.739 179.082C312.815 179.42 313.214 180.91 314.148 180.568Z" fill="#E4E4E4"/>
<path d="M110.153 95.3028C99.6451 89.9025 86.1888 90.9602 76.5332 97.7071C94.9506 100.885 113.166 105.136 131.087 110.44C123.646 106.079 117.824 99.2457 110.153 95.3028Z" fill="#F2F2F2"/>
<path d="M76.4301 97.6885L74.4072 99.3327C75.0915 98.7572 75.8028 98.2177 76.5335 97.7071C76.499 97.7011 76.4646 97.6944 76.4301 97.6885Z" fill="#F2F2F2"/>
<path d="M370.777 180.644C368.742 178.166 366.541 175.572 363.497 174.566L360.654 174.678C382.291 212.91 411.513 246.318 446.526 272.849C421.276 242.114 396.027 211.379 370.777 180.644Z" fill="#F2F2F2"/>
<path d="M194.029 160.205C195.345 164.984 198.308 169.144 202.395 171.948C203.975 173.024 205.844 174.056 206.385 175.889C206.669 177.058 206.494 178.292 205.895 179.335C205.298 180.365 204.571 181.314 203.732 182.159L203.656 182.446C199.734 180.123 196.004 177.183 193.838 173.173C191.672 169.163 191.37 163.907 194.029 160.205Z" fill="#F2F2F2"/>
<path d="M324.574 273.941C325.89 278.72 328.853 282.879 332.94 285.684C334.52 286.76 336.389 287.792 336.93 289.625C337.214 290.794 337.039 292.027 336.44 293.071C335.843 294.101 335.116 295.05 334.277 295.895L334.2 296.182C330.279 293.859 326.549 290.919 324.383 286.909C322.217 282.899 321.915 277.643 324.574 273.941Z" fill="#F2F2F2"/>
<path d="M64.0459 266.097C65.3613 270.876 68.3246 275.036 72.4115 277.84C73.9915 278.916 75.861 279.948 76.4015 281.781C76.6859 282.95 76.5107 284.183 75.9121 285.227C75.3145 286.257 74.5875 287.206 73.7487 288.051L73.6721 288.338C69.7511 286.015 66.0208 283.075 63.8548 279.065C61.6889 275.055 61.3865 269.799 64.0459 266.097Z" fill="#F2F2F2"/>
<path d="M363.848 57.1481C379.629 57.1481 392.422 44.355 392.422 28.574C392.422 12.793 379.629 0 363.848 0C348.067 0 335.274 12.793 335.274 28.574C335.274 44.355 348.067 57.1481 363.848 57.1481Z" fill="#007C8F"/>
<path d="M415.414 6.65073C401.565 4.77889 385.755 12.264 382.166 25.7693C381.262 23.368 379.617 21.3165 377.47 19.9111C375.324 18.5056 372.785 17.8191 370.223 17.9506C367.66 18.0821 365.206 19.0248 363.214 20.6426C361.222 22.2604 359.797 24.4695 359.143 26.9508L360.728 28.0862C390.404 34.5038 421.124 34.3649 450.741 27.6793C441.108 17.5557 429.262 8.52254 415.414 6.65073Z" fill="#F0F0F0"/>
<path d="M356.025 44.7494C342.177 42.8775 326.367 50.3626 322.778 63.8679C321.873 61.4667 320.229 59.4151 318.082 58.0097C315.935 56.6043 313.397 55.9177 310.834 56.0492C308.272 56.1807 305.817 57.1235 303.825 58.7413C301.834 60.3591 300.408 62.5682 299.754 65.0494L301.339 66.1849C331.016 72.6024 361.735 72.4635 391.352 65.7779C381.72 55.6543 369.873 46.6212 356.025 44.7494Z" fill="#F0F0F0"/>
<path d="M476.891 51.9534C476.834 51.9535 476.777 51.9446 476.722 51.9271C328.582 5.07794 198.016 11.2043 114.572 24.5934C103.216 26.4149 91.8293 28.5187 80.7289 30.8468C77.895 31.4404 74.9549 32.0767 71.9905 32.7393C68.4502 33.5278 64.9569 34.3397 61.6073 35.1517C60.1607 35.4942 58.7423 35.8395 57.3522 36.1874C55.2465 36.7072 53.1099 37.2489 50.8196 37.8442C48.2603 38.504 45.66 39.1962 43.0892 39.9014C43.0798 39.9047 43.0702 39.9075 43.0605 39.9096L43.0608 39.9102C40.1571 40.703 37.2687 41.5188 34.4755 42.3335C32.9638 42.7701 31.504 43.2007 30.1058 43.6258C29.9496 43.6691 29.8112 43.7106 29.6708 43.7533L29.3704 43.8447C29.1964 43.8978 29.0246 43.9497 28.8528 43.999L28.8419 44.0023L28.8422 44.0028L28.3875 44.144C27.8453 44.3082 27.3162 44.4685 26.7958 44.6282C13.0439 48.8675 5.48405 51.8834 5.40936 51.9129C5.34107 51.9403 5.26805 51.9539 5.19448 51.9531C5.12091 51.9523 5.04822 51.9369 4.98057 51.908C4.91293 51.8791 4.85163 51.8371 4.80021 51.7845C4.74878 51.7319 4.70822 51.6696 4.68084 51.6013C4.65347 51.533 4.63982 51.46 4.64066 51.3864C4.64151 51.3129 4.65683 51.2402 4.68577 51.1725C4.7147 51.1049 4.75667 51.0436 4.80929 50.9922C4.86191 50.9407 4.92415 50.9002 4.99244 50.8728C5.06767 50.8432 12.6645 47.8121 26.4665 43.5569C26.9887 43.3966 27.5192 43.2363 28.063 43.0716L28.4854 42.9403C28.4999 42.9348 28.5144 42.9305 28.5292 42.9261C28.7002 42.8774 28.8709 42.8254 29.0443 42.7729L29.3453 42.6815C29.4952 42.6361 29.6429 42.5912 29.7942 42.5497C31.1828 42.1273 32.6475 41.6956 34.1631 41.2573C36.9574 40.4421 39.8485 39.6263 42.7544 38.8324C42.7634 38.8291 42.7727 38.8269 42.7817 38.8242C45.3615 38.1167 47.9714 37.4213 50.5389 36.7592C52.8328 36.1634 54.9734 35.6206 57.0827 35.0997C58.4787 34.7523 59.8999 34.4063 61.3461 34.0618C64.6995 33.2487 68.1998 32.4357 71.7464 31.6456C74.7155 30.9825 77.6605 30.3445 80.4991 29.7503C91.6168 27.4184 103.021 25.3113 114.394 23.4872C197.958 10.0788 328.711 3.9426 477.06 50.8591C477.187 50.8993 477.296 50.9839 477.367 51.0975C477.437 51.2111 477.465 51.3463 477.445 51.4785C477.424 51.6107 477.357 51.7313 477.256 51.8184C477.154 51.9055 477.025 51.9534 476.891 51.9534Z" fill="#CCCCCC"/>
<path d="M147.437 235.226C147.243 234.659 146.916 234.146 146.485 233.73C146.325 233.582 146.153 233.449 145.969 233.332C144.507 232.357 142.322 232.139 140.932 233.332C140.792 233.453 140.663 233.587 140.546 233.73C140.131 234.24 139.705 234.738 139.268 235.226C138.551 236.044 137.817 236.834 137.05 237.601C136.831 237.814 136.613 238.033 136.388 238.246C136.26 238.375 136.131 238.498 136.002 238.621C135.509 239.092 135.005 239.546 134.495 239.994C134.226 240.235 133.957 240.47 133.682 240.7C133.273 241.042 132.864 241.383 132.45 241.714C132.41 241.742 132.371 241.77 132.332 241.803C132.321 241.809 132.315 241.82 132.304 241.826C132.298 241.826 132.293 241.826 132.287 241.837C132.272 241.843 132.259 241.853 132.248 241.865C132.125 241.949 132.041 242.005 131.979 242.056C132.001 242.044 132.024 242.028 132.046 242.016C131.945 242.095 131.839 242.173 131.738 242.252C130.758 242.974 129.755 243.669 128.729 244.319C126.193 245.943 123.528 247.357 120.762 248.549C120.577 248.622 120.387 248.7 120.196 248.773C112.955 251.74 105.099 252.898 97.3092 252.146C96.5136 252.085 95.718 252 94.9225 251.894C94.0036 251.76 93.0904 251.597 92.1827 251.412C88.7273 250.723 85.3463 249.702 82.0866 248.364C78.009 246.497 74.1308 244.222 70.5113 241.574C69.951 241.176 69.3851 240.778 68.8193 240.392C69.4636 238.812 70.0967 237.232 70.713 235.64C71.0211 234.873 71.3181 234.105 71.6094 233.332C73.901 227.376 76.0524 221.365 78.1142 215.33C80.1984 209.218 82.165 203.07 84.0139 196.886C84.2044 196.259 84.3893 195.631 84.5686 195.004C85.5379 191.737 86.4679 188.463 87.3588 185.182C87.4428 184.863 87.5324 184.549 87.6109 184.23C87.8686 183.288 88.1207 182.347 88.3673 181.406C88.9275 179.282 87.6613 176.744 85.4314 176.235C84.3578 175.959 83.2192 176.111 82.2556 176.659C81.292 177.207 80.5786 178.107 80.2657 179.17C80.0247 180.078 79.7838 180.98 79.5373 181.888C78.3551 186.275 77.1113 190.647 75.8059 195.004C75.6154 195.631 75.4249 196.259 75.2344 196.886C72.3546 206.377 69.1928 215.773 65.7489 225.074C65.3343 226.2 64.9141 227.322 64.4883 228.441C64.281 228.99 64.0737 229.539 63.8608 230.088C63.4518 231.169 63.0316 232.251 62.6114 233.332C62.3705 233.965 62.1239 234.598 61.8774 235.226C61.715 235.624 61.5581 236.021 61.4012 236.414C59.8038 235.84 58.1487 235.442 56.4652 235.226L56.1963 235.192C54.891 235.035 53.5711 235.047 52.2687 235.226C50.3196 235.453 48.4442 236.106 46.7751 237.138C45.106 238.17 43.684 239.556 42.6096 241.198C39.9371 245.406 39.9707 251.423 43.7189 254.998C47.5792 258.679 53.4229 258.651 57.9667 256.348C60.3747 255.045 62.405 253.143 63.8608 250.824C64.4185 249.983 64.931 249.114 65.396 248.219C65.5136 248.297 65.6313 248.376 65.7489 248.46C66.1972 248.773 66.6454 249.093 67.088 249.406C69.667 251.275 72.3847 252.944 75.2176 254.398C81.3089 257.427 87.8658 259.41 94.6143 260.265C94.7656 260.281 94.9113 260.304 95.0625 260.321C95.8077 260.416 96.5585 260.489 97.3092 260.55C108.079 261.362 118.862 259.158 128.449 254.186C129.262 253.765 130.067 253.325 130.864 252.863C132.102 252.146 133.313 251.384 134.495 250.577C135.139 250.14 135.767 249.698 136.388 249.233C139.106 247.231 141.639 244.99 143.958 242.537C144.837 241.613 145.68 240.659 146.485 239.674C147.246 238.869 147.684 237.812 147.717 236.705C147.713 236.199 147.618 235.698 147.437 235.226ZM54.6611 248.572C54.7788 248.488 54.8964 248.398 55.0085 248.308C54.9749 248.392 54.8124 248.488 54.6611 248.572ZM56.4596 246.762C56.3307 246.908 56.2131 247.053 56.0842 247.199C55.6922 247.638 55.271 248.049 54.8236 248.432C54.7619 248.488 54.6947 248.544 54.6275 248.594C54.6267 248.594 54.626 248.594 54.6253 248.594C54.6246 248.595 54.624 248.595 54.6235 248.596C54.623 248.596 54.6225 248.597 54.6223 248.597C54.622 248.598 54.6219 248.599 54.6219 248.6C54.5409 248.636 54.4623 248.677 54.3865 248.723C54.1456 248.869 53.8991 249.003 53.647 249.126C53.1534 249.308 52.6455 249.449 52.1287 249.546C51.7315 249.575 51.3329 249.579 50.9353 249.558H50.9241C50.6496 249.497 50.3785 249.422 50.1117 249.334C49.9772 249.266 49.8483 249.188 49.7195 249.109C49.669 249.065 49.6242 249.02 49.5962 248.992C49.5415 248.942 49.4909 248.888 49.445 248.829C49.445 248.829 49.4448 248.828 49.4446 248.827C49.4443 248.826 49.4439 248.826 49.4434 248.825C49.4428 248.825 49.4422 248.824 49.4415 248.824C49.4408 248.824 49.4401 248.824 49.4394 248.824C49.3777 248.712 49.3105 248.6 49.2489 248.488C49.2457 248.485 49.2437 248.481 49.2433 248.476C49.1984 248.336 49.1592 248.191 49.1256 248.045C49.1135 247.789 49.1153 247.533 49.1312 247.277C49.2064 246.919 49.3075 246.567 49.4338 246.224C49.5472 245.981 49.6763 245.745 49.8204 245.518C49.8316 245.496 49.8876 245.406 49.9492 245.305C49.9548 245.3 49.9548 245.3 49.9548 245.294C50.0389 245.199 50.1229 245.098 50.2126 245.008C50.3638 244.84 50.5263 244.695 50.6888 244.543C51.0048 244.336 51.3321 244.147 51.6693 243.977C52.2041 243.787 52.753 243.639 53.3109 243.535C54.1335 243.469 54.9604 243.477 55.7817 243.557C56.5596 243.692 57.3272 243.881 58.0788 244.123C57.6233 245.007 57.1046 245.857 56.5268 246.667C56.5044 246.7 56.482 246.734 56.4596 246.762ZM50.2293 244.919C50.18 244.998 50.1217 245.071 50.0556 245.137C50.1001 245.055 50.1589 244.981 50.2293 244.919Z" fill="#3F3D56"/>
<path d="M130.595 178.005C130.545 179.764 130.494 181.524 130.444 183.283C130.337 187.188 130.227 191.095 130.113 195.004C129.996 199.402 129.872 203.798 129.744 208.193C129.682 210.462 129.618 212.731 129.553 215C129.379 221.113 129.208 227.223 129.038 233.332C129.021 233.965 128.998 234.593 128.982 235.226C128.898 238.257 128.814 241.288 128.729 244.319C128.634 247.608 128.541 250.897 128.449 254.186C128.382 256.651 128.313 259.118 128.242 261.587C127.738 279.476 127.234 297.366 126.729 315.256C126.708 316.363 126.258 317.42 125.475 318.203C124.692 318.987 123.635 319.436 122.527 319.458C121.416 319.449 120.352 319.003 119.566 318.217C118.78 317.431 118.334 316.367 118.325 315.256C118.605 305.193 118.889 295.131 119.177 285.068C119.429 275.969 119.685 266.87 119.944 257.771C120.028 254.774 120.112 251.775 120.197 248.773C120.325 244.258 120.452 239.742 120.577 235.226C120.594 234.593 120.617 233.965 120.634 233.332C120.645 232.778 120.662 232.228 120.678 231.674C120.925 222.906 121.171 214.135 121.418 205.363C121.519 201.912 121.616 198.459 121.709 195.004C121.821 191.065 121.933 187.128 122.045 183.193C122.096 181.462 122.141 179.736 122.191 178.005C122.212 176.897 122.662 175.841 123.445 175.057C124.229 174.274 125.285 173.824 126.393 173.803C127.505 173.812 128.568 174.258 129.355 175.044C130.141 175.83 130.586 176.893 130.595 178.005Z" fill="#3F3D56"/>
<path d="M361.108 179.171C356.702 195.856 351.436 212.302 345.33 228.442C343.646 232.895 341.922 237.338 340.08 241.728L340.503 240.724C339.681 242.815 338.631 244.808 337.372 246.669C337.286 246.789 337.199 246.908 337.11 247.026C337.545 246.469 337.628 246.359 337.358 246.696C337.216 246.864 337.075 247.033 336.928 247.198C336.536 247.637 336.115 248.049 335.668 248.432C335.555 248.528 335.441 248.622 335.325 248.714L335.851 248.306C335.79 248.45 335.362 248.641 335.228 248.722C334.797 248.983 334.346 249.211 333.881 249.405L334.885 248.981C334.122 249.289 333.327 249.507 332.514 249.632L333.631 249.482C332.833 249.592 332.024 249.601 331.223 249.507L332.34 249.657C331.685 249.567 331.044 249.395 330.433 249.144L331.436 249.567C331.11 249.425 330.796 249.257 330.496 249.065C330.344 248.966 329.877 248.612 330.487 249.079C331.122 249.564 330.569 249.121 330.438 248.992C330.33 248.884 330.231 248.768 330.125 248.658C329.631 248.151 330.683 249.53 330.347 248.938C330.168 248.641 330.003 248.334 329.855 248.021L330.279 249.024C330.086 248.547 329.949 248.048 329.871 247.539L330.021 248.656C329.941 248.023 329.94 247.382 330.019 246.748L329.869 247.865C329.972 247.158 330.159 246.466 330.426 245.803L330.003 246.807C330.189 246.362 330.41 245.931 330.663 245.519C330.779 245.307 330.916 245.106 331.071 244.919C331.098 244.928 330.36 245.767 330.752 245.343C330.854 245.233 330.95 245.116 331.054 245.006C331.22 244.83 331.398 244.669 331.573 244.503C332.158 243.946 330.753 245.044 331.429 244.603C331.918 244.281 332.434 244.001 332.969 243.763L331.965 244.187C332.862 243.818 333.803 243.566 334.764 243.436L333.647 243.586C334.851 243.448 336.067 243.462 337.267 243.629L336.15 243.479C337.669 243.709 339.154 244.127 340.571 244.723L339.567 244.299C342.587 245.596 345.262 247.52 347.931 249.408C350.51 251.275 353.227 252.943 356.059 254.398C362.15 257.427 368.708 259.41 375.457 260.266C385.136 261.452 394.958 260.188 404.021 256.59C413.084 252.992 421.099 247.176 427.33 239.675C428.09 238.869 428.528 237.811 428.561 236.704C428.553 235.591 428.111 234.525 427.33 233.732C425.788 232.317 422.876 231.918 421.387 233.732C419.976 235.455 418.46 237.088 416.845 238.622C416.092 239.337 415.318 240.03 414.525 240.7C414.071 241.083 413.612 241.459 413.146 241.827C412.925 242.001 412.239 242.465 413.293 241.716C413.052 241.888 412.82 242.075 412.581 242.251C409.053 244.853 405.229 247.028 401.19 248.731L402.194 248.307C397.859 250.125 393.307 251.373 388.651 252.018L389.768 251.868C384.979 252.498 380.127 252.49 375.339 251.846L376.456 251.996C371.669 251.339 366.988 250.064 362.529 248.203L363.533 248.627C359.23 246.723 355.147 244.358 351.355 241.572C349.381 240.111 347.3 238.801 345.128 237.654C342.599 236.362 339.86 235.529 337.039 235.195C331.751 234.573 326.362 236.632 323.455 241.201C320.779 245.406 320.814 251.423 324.561 254.998C328.42 258.68 334.264 258.649 338.811 256.346C343.191 254.127 345.822 249.519 347.672 245.173C351.836 235.393 355.522 225.388 358.956 215.331C362.354 205.382 365.435 195.332 368.2 185.181C368.542 183.924 368.88 182.665 369.212 181.405C369.773 179.283 368.506 176.744 366.277 176.236C365.203 175.96 364.064 176.111 363.099 176.659C362.135 177.206 361.421 178.107 361.108 179.171Z" fill="#3F3D56"/>
<path d="M403.035 178.005L401.522 231.675L400.018 285.066L399.167 315.256C399.176 316.367 399.622 317.431 400.408 318.217C401.194 319.003 402.258 319.449 403.369 319.458C404.477 319.437 405.533 318.987 406.317 318.204C407.1 317.42 407.55 316.364 407.571 315.256L409.084 261.585L410.588 208.194L411.439 178.005C411.43 176.893 410.984 175.83 410.198 175.044C409.412 174.258 408.348 173.812 407.237 173.803C406.129 173.824 405.073 174.274 404.289 175.057C403.506 175.841 403.056 176.897 403.035 178.005Z" fill="#3F3D56"/>
<path opacity="0.2" d="M257.589 300.271H258.894V240.859H289.333V239.557H258.894V214.488H282.4C282.056 214.05 281.701 213.617 281.336 213.19H258.894V196.632C258.462 196.448 258.027 196.271 257.589 196.103V213.19H232.011V191.975C231.573 191.995 231.141 192.025 230.706 192.062V213.19H210.301V197.361C209.863 197.555 209.431 197.76 209.003 197.974V213.19H191.85V214.488H209.003V239.557H191.85V240.859H209.003V300.271H210.301V240.859C212.981 240.858 215.634 241.385 218.11 242.411C220.586 243.436 222.836 244.939 224.731 246.834C226.626 248.729 228.129 250.978 229.154 253.454C230.179 255.93 230.707 258.584 230.706 261.264V300.271H232.011V240.859H257.589V300.271ZM210.301 239.557V214.488H230.706V239.557H210.301ZM232.011 239.557V214.488H232.523C235.815 214.488 239.075 215.137 242.116 216.397C245.157 217.657 247.92 219.503 250.248 221.831C252.575 224.159 254.422 226.923 255.681 229.964C256.941 233.005 257.589 236.265 257.589 239.557H232.011Z" fill="black"/>
<path d="M249.62 282.457C247.977 289.785 244.042 296.398 238.386 301.338C237.972 301.697 237.557 302.044 237.126 302.386C236.078 302.481 235.038 302.578 234.005 302.677C233.148 302.756 232.302 302.84 231.461 302.918L231.31 302.935L231.204 302.016L230.778 298.296C229.126 295.599 228.102 292.565 227.782 289.419C227.462 286.273 227.854 283.095 228.929 280.121C230.408 276.132 233.086 272.607 235.719 269.111C239.356 264.282 242.891 259.508 243.02 253.62C244.809 255.909 246.297 258.419 247.446 261.088C246.361 261.599 245.387 262.316 244.577 263.2C244.348 263.453 244.118 263.806 244.275 264.108C244.409 264.366 244.746 264.427 245.037 264.461C245.737 264.534 246.443 264.607 247.143 264.68C247.704 264.741 248.264 264.797 248.824 264.859C249.502 267.084 249.962 269.369 250.197 271.683C250.574 275.282 250.38 278.919 249.62 282.457Z" fill="#3F3D56"/>
<path d="M268.221 267.772C264.915 270.176 262.982 273.633 261.481 277.443C259.942 277.935 258.557 278.819 257.464 280.009C257.234 280.261 257.004 280.614 257.161 280.916C257.296 281.174 257.632 281.236 257.923 281.269C258.623 281.342 259.329 281.415 260.03 281.488C258.528 285.992 257.15 290.654 254.494 294.458C252.728 296.97 250.426 299.058 247.754 300.571C247.026 300.986 246.274 301.358 245.502 301.686C242.656 301.904 239.863 302.138 237.126 302.386C236.078 302.481 235.038 302.579 234.005 302.677C233.148 302.756 232.302 302.84 231.461 302.918C231.456 302.61 231.456 302.302 231.461 301.994C231.638 293.785 234.658 285.892 240.005 279.661C240.258 279.37 240.515 279.084 240.779 278.799C243.488 275.905 246.673 273.498 250.197 271.683C255.749 268.796 261.972 267.446 268.221 267.772Z" fill="#007C8F"/>
<path d="M234.974 299.803L234.33 301.708L234.005 302.677C233.148 302.756 232.302 302.84 231.461 302.918L231.31 302.935C230.38 303.03 229.455 303.126 228.531 303.221C228.29 302.941 228.049 302.655 227.814 302.364C221.966 295.282 219.158 286.173 220.006 277.028C220.853 267.883 225.286 259.445 232.335 253.558C231.596 257.43 232.458 261.139 233.876 264.82C233.725 264.881 233.579 264.943 233.439 265.01C232.354 265.521 231.38 266.238 230.57 267.122C230.341 267.374 230.111 267.727 230.268 268.03C230.402 268.288 230.738 268.349 231.03 268.383C231.73 268.456 232.436 268.529 233.136 268.601C233.697 268.663 234.257 268.719 234.817 268.781C235.08 268.809 235.344 268.837 235.607 268.865C235.646 268.949 235.68 269.027 235.719 269.111C237.316 272.574 239.036 276.053 240.005 279.661C240.248 280.567 240.439 281.485 240.577 282.412C241.008 285.546 240.729 288.736 239.759 291.747C238.789 294.757 237.153 297.511 234.974 299.803Z" fill="#007C8F"/>
<path d="M291.371 218.541C286.548 209.133 279.075 201.217 270.287 195.4C261.47 189.591 251.353 186.053 240.837 185.102C239.459 184.977 238.077 184.903 236.692 184.882C235.055 184.857 210.434 191.959 202.186 197.758C193.943 203.487 187.161 211.073 182.39 219.904C177.626 228.784 175.283 238.761 175.596 248.833C176.004 258.966 178.829 268.854 183.834 277.674C188.77 286.465 195.78 293.917 204.252 299.382C212.846 304.865 221.478 319.404 231.624 319.917C241.847 320.434 253.505 306.72 262.829 302.556C272.152 298.357 280.213 291.788 286.207 283.504C292.031 275.385 295.799 265.974 297.187 256.079C298.629 245.948 297.957 235.499 294.497 225.815C293.61 223.327 292.565 220.898 291.371 218.541C290.374 216.577 287.451 215.854 285.622 217.034C284.679 217.614 283.997 218.535 283.716 219.606C283.435 220.677 283.578 221.815 284.114 222.783C284.7 223.936 285.244 225.109 285.748 226.3L285.324 225.296C287.229 229.877 288.524 234.687 289.177 239.605L289.027 238.488C289.721 243.823 289.708 249.226 288.99 254.558L289.14 253.441C288.413 258.772 286.99 263.985 284.907 268.946L285.331 267.942C284.259 270.473 283.01 272.925 281.593 275.281C280.874 276.471 280.112 277.633 279.306 278.766C278.953 279.264 278.588 279.753 278.22 280.241C277.74 280.877 278.874 279.41 278.378 280.034C278.294 280.14 278.21 280.247 278.125 280.353C277.871 280.671 277.613 280.986 277.351 281.298C275.604 283.382 273.698 285.327 271.649 287.116C271.139 287.561 270.62 287.997 270.093 288.422C269.83 288.634 269.571 288.855 269.297 289.052C269.307 289.045 270.182 288.38 269.664 288.766C269.501 288.887 269.34 289.01 269.177 289.131C268.09 289.936 266.974 290.7 265.83 291.424C263.195 293.084 260.43 294.529 257.563 295.745L258.566 295.322C253.62 297.404 248.422 298.826 243.105 299.552L244.222 299.402C238.907 300.121 233.521 300.13 228.204 299.431L229.321 299.581C224.489 298.932 219.762 297.654 215.261 295.78L216.264 296.203C213.657 295.102 211.144 293.793 208.748 292.286C207.562 291.539 206.407 290.746 205.283 289.907C205.123 289.787 204.964 289.666 204.804 289.545C204.291 289.158 205.173 289.831 205.18 289.835C204.882 289.621 204.595 289.392 204.32 289.149C203.777 288.707 203.242 288.255 202.717 287.792C200.612 285.939 198.647 283.933 196.838 281.792C196.384 281.256 195.941 280.713 195.507 280.161C195.32 279.922 194.977 279.438 195.734 280.457C195.634 280.323 195.531 280.192 195.43 280.058C195.189 279.738 194.951 279.415 194.716 279.09C193.893 277.952 193.111 276.785 192.369 275.591C190.694 272.887 189.232 270.057 187.996 267.126L188.42 268.13C186.398 263.319 185.015 258.264 184.307 253.094L184.457 254.211C183.818 249.445 183.809 244.616 184.43 239.848L184.28 240.965C184.916 236.347 186.159 231.834 187.975 227.541L187.551 228.545C188.694 225.858 190.042 223.262 191.582 220.782C192.354 219.54 193.172 218.329 194.035 217.148C194.231 216.88 194.43 216.613 194.63 216.348C194.812 216.109 195.311 215.512 194.459 216.566C194.543 216.463 194.623 216.356 194.706 216.252C195.179 215.652 195.665 215.06 196.162 214.479C198.043 212.276 200.081 210.213 202.26 208.304C202.81 207.822 203.37 207.349 203.937 206.887C204.196 206.677 204.455 206.469 204.717 206.264C204.821 206.181 204.927 206.101 205.031 206.018C203.912 206.908 204.721 206.26 204.975 206.07C206.145 205.193 207.347 204.36 208.58 203.57C211.321 201.817 214.205 200.298 217.201 199.028L216.197 199.451C220.545 197.626 239.807 193.317 243.311 193.787L242.194 193.637C247.343 194.356 252.376 195.746 257.164 197.773L256.161 197.35C258.587 198.38 260.945 199.564 263.22 200.896C264.357 201.562 265.471 202.265 266.564 203.004C267.08 203.354 267.592 203.711 268.098 204.077C268.351 204.259 268.602 204.444 268.852 204.631C268.991 204.734 269.129 204.839 269.267 204.943C269.85 205.38 268.465 204.311 269.076 204.794C271.118 206.399 273.058 208.13 274.884 209.978C275.781 210.892 276.647 211.834 277.482 212.805C277.911 213.303 278.33 213.809 278.741 214.322C278.945 214.577 279.64 215.499 278.788 214.369C278.997 214.645 279.207 214.92 279.413 215.198C281.183 217.594 282.756 220.131 284.114 222.783C285.119 224.743 288.029 225.473 289.863 224.29C290.806 223.71 291.489 222.789 291.77 221.718C292.051 220.647 291.908 219.509 291.371 218.541Z" fill="#3F3D56"/>
<path d="M242.408 287.116C241.974 287.136 241.545 287.022 241.178 286.79C240.811 286.558 240.525 286.218 240.357 285.818C240.19 285.417 240.149 284.975 240.242 284.55C240.334 284.126 240.554 283.74 240.873 283.446C240.927 283.233 240.965 283.081 241.018 282.869C240.999 282.823 240.98 282.776 240.961 282.73C239.011 278.081 226.57 291.041 226.032 295.41C225.795 297.342 225.895 299.299 226.328 301.197C222.298 292.406 220.205 282.852 220.192 273.181C220.191 270.755 220.326 268.33 220.595 265.918C220.818 263.941 221.128 261.978 221.524 260.029C223.684 249.455 228.321 239.544 235.055 231.11C238.906 231.325 242.282 230.738 242.608 223.274C242.665 221.947 243.65 220.797 243.867 219.489C243.5 219.537 243.126 219.567 242.758 219.592C242.644 219.598 242.523 219.604 242.409 219.61L242.365 219.612C241.961 219.63 241.561 219.531 241.212 219.326C240.862 219.122 240.58 218.821 240.398 218.46C240.216 218.099 240.142 217.693 240.185 217.291C240.229 216.888 240.387 216.507 240.642 216.193C240.801 215.998 240.96 215.803 241.119 215.607C241.36 215.306 241.607 215.011 241.848 214.709C241.876 214.681 241.902 214.651 241.926 214.619C242.204 214.275 242.481 213.938 242.758 213.594C242.252 212.809 241.571 212.151 240.769 211.672C237.991 210.044 234.157 211.171 232.15 213.685C230.137 216.198 229.757 219.724 230.456 222.864C231.144 225.537 232.281 228.072 233.82 230.363C233.669 230.555 233.512 230.742 233.361 230.935C230.607 234.477 228.206 238.281 226.194 242.291C226.763 237.843 219.8 221.78 217.107 218.378C213.873 214.291 207.24 216.075 206.67 221.255C206.665 221.306 206.659 221.356 206.654 221.406C207.054 221.631 207.446 221.871 207.829 222.124C208.31 222.446 208.683 222.905 208.898 223.442C209.114 223.979 209.163 224.569 209.037 225.134C208.912 225.699 208.619 226.213 208.197 226.609C207.775 227.005 207.243 227.264 206.671 227.352L206.612 227.361C201.258 235.005 218.421 254.901 222.717 250.434C220.695 256.164 219.427 262.133 218.944 268.19C218.671 271.764 218.687 275.354 218.992 278.925L218.974 278.799C218.02 271.021 201.644 259.457 196.862 260.42C194.107 260.975 191.394 260.849 191.812 263.627C191.819 263.672 191.826 263.716 191.833 263.76C192.575 264.063 193.298 264.411 193.997 264.803C194.397 265.029 194.788 265.268 195.171 265.522C195.652 265.843 196.025 266.303 196.241 266.84C196.457 267.377 196.505 267.966 196.38 268.531C196.255 269.096 195.962 269.611 195.539 270.006C195.117 270.402 194.585 270.661 194.013 270.749L193.954 270.758C193.912 270.764 193.876 270.77 193.834 270.776C191.397 279.162 209.47 292.694 220.457 288.388H220.463C221.552 293.12 223.129 297.725 225.17 302.131H241.987C242.047 301.944 242.101 301.751 242.155 301.564C240.599 301.662 239.036 301.569 237.502 301.287C238.75 299.756 239.998 298.213 241.245 296.682C241.273 296.653 241.299 296.623 241.324 296.592C241.957 295.808 242.595 295.031 243.228 294.247L243.229 294.246C243.262 291.844 242.987 289.448 242.409 287.117L242.408 287.116ZM223.151 249.234L223.16 249.222L223.151 249.246V249.234ZM219.426 282.813L219.281 282.487C219.288 282.252 219.288 282.017 219.281 281.776C219.281 281.71 219.269 281.644 219.269 281.577C219.324 281.993 219.372 282.409 219.432 282.825L219.426 282.813Z" fill="#3F3D56"/>
<path d="M53.456 252.124C56.8597 252.124 59.619 249.365 59.619 245.961C59.619 242.557 56.8597 239.798 53.456 239.798C50.0522 239.798 47.293 242.557 47.293 245.961C47.293 249.365 50.0522 252.124 53.456 252.124Z" fill="#3F3D56"/>
<path d="M127.413 319.357C130.817 319.357 133.576 316.598 133.576 313.194C133.576 309.79 130.817 307.031 127.413 307.031C124.009 307.031 121.25 309.79 121.25 313.194C121.25 316.598 124.009 319.357 127.413 319.357Z" fill="#3F3D56"/>
<path d="M408.11 319.357C411.514 319.357 414.273 316.598 414.273 313.194C414.273 309.79 411.514 307.031 408.11 307.031C404.707 307.031 401.947 309.79 401.947 313.194C401.947 316.598 404.707 319.357 408.11 319.357Z" fill="#3F3D56"/>
<path d="M423.238 240.918C426.642 240.918 429.401 238.159 429.401 234.755C429.401 231.352 426.642 228.592 423.238 228.592C419.834 228.592 417.075 231.352 417.075 234.755C417.075 238.159 419.834 240.918 423.238 240.918Z" fill="#3F3D56"/>
<path d="M405.31 183.77C408.713 183.77 411.473 181.011 411.473 177.607C411.473 174.203 408.713 171.444 405.31 171.444C401.906 171.444 399.146 174.203 399.146 177.607C399.146 181.011 401.906 183.77 405.31 183.77Z" fill="#3F3D56"/>
<path d="M148.143 234.755C148.139 236.33 147.53 237.842 146.443 238.98C145.355 240.118 143.871 240.794 142.298 240.869C140.726 240.943 139.185 240.41 137.995 239.38C136.804 238.35 136.055 236.901 135.903 235.335C135.75 233.768 136.206 232.202 137.176 230.962C138.146 229.722 139.555 228.902 141.113 228.672C142.67 228.442 144.256 228.82 145.543 229.727C146.83 230.634 147.718 232.001 148.025 233.545C148.104 233.944 148.144 234.349 148.143 234.755Z" fill="#3F3D56"/>
<path d="M271.403 201.699C274.807 201.699 277.566 198.94 277.566 195.536C277.566 192.132 274.807 189.373 271.403 189.373C268 189.373 265.24 192.132 265.24 195.536C265.24 198.94 268 201.699 271.403 201.699Z" fill="#3F3D56"/>
<path d="M210.333 195.536C210.33 197.11 209.721 198.623 208.633 199.761C207.545 200.899 206.061 201.575 204.489 201.649C202.916 201.724 201.375 201.191 200.185 200.16C198.995 199.13 198.246 197.682 198.093 196.115C197.941 194.548 198.397 192.983 199.367 191.743C200.336 190.503 201.746 189.683 203.303 189.453C204.861 189.223 206.447 189.601 207.733 190.508C209.02 191.415 209.909 192.782 210.216 194.326C210.295 194.724 210.334 195.13 210.333 195.536Z" fill="#3F3D56"/>
<path d="M130.775 177.607C130.771 179.181 130.162 180.694 129.074 181.832C127.987 182.97 126.503 183.646 124.93 183.72C123.358 183.795 121.817 183.262 120.626 182.232C119.436 181.202 118.687 179.753 118.535 178.186C118.382 176.619 118.838 175.054 119.808 173.814C120.778 172.574 122.187 171.754 123.745 171.524C125.302 171.294 126.888 171.672 128.175 172.579C129.461 173.486 130.35 174.853 130.657 176.397C130.736 176.795 130.776 177.201 130.775 177.607Z" fill="#3F3D56"/>
<path d="M335.835 254.365C339.239 254.365 341.998 251.606 341.998 248.202C341.998 244.798 339.239 242.039 335.835 242.039C332.431 242.039 329.672 244.798 329.672 248.202C329.672 251.606 332.431 254.365 335.835 254.365Z" fill="#3F3D56"/>
<path d="M238.908 198.337C243.859 198.337 247.872 194.324 247.872 189.373C247.872 184.422 243.859 180.409 238.908 180.409C233.957 180.409 229.943 184.422 229.943 189.373C229.943 194.324 233.957 198.337 238.908 198.337Z" fill="#3F3D56"/>
<path d="M481.334 319.828L0.757925 320C0.670319 320 0.583569 319.983 0.502631 319.949C0.421694 319.916 0.348157 319.867 0.28621 319.805C0.224264 319.743 0.175119 319.669 0.141594 319.588C0.108068 319.507 0.0908203 319.421 0.0908203 319.333C0.0908203 319.245 0.108068 319.159 0.141594 319.078C0.175119 318.997 0.224264 318.923 0.28621 318.861C0.348157 318.799 0.421694 318.75 0.502631 318.717C0.583569 318.683 0.670319 318.666 0.757925 318.666L481.334 318.494C481.51 318.494 481.68 318.565 481.804 318.69C481.929 318.815 481.999 318.984 481.999 319.161C481.999 319.337 481.929 319.507 481.804 319.632C481.68 319.757 481.51 319.827 481.334 319.828Z" fill="#CACACA"/>
</g>
<defs>
<clipPath id="clip0_8473_74051">
<rect width="481.91" height="320" fill="white" transform="translate(0.0908203)"/>
</clipPath>
</defs>
</svg>
