<svg width="403" height="320" viewBox="0 0 403 320" fill="none" xmlns="http://www.w3.org/2000/svg">
<g clip-path="url(#clip0_8473_74170)">
<path d="M338.976 306.387C340.557 306.485 341.43 304.521 340.233 303.377L340.114 302.904C340.13 302.866 340.146 302.829 340.161 302.791C341.104 300.542 343.7 299.477 345.954 300.409C353.08 303.355 345.556 310.125 346.122 314.706C346.32 316.287 352.514 316.374 352.163 317.926C355.457 310.725 357.189 302.862 357.186 294.956C357.185 292.97 357.076 290.983 356.853 289.002C356.669 287.381 356.417 285.77 356.09 284.175C354.323 275.547 350.5 267.331 344.988 260.47C342.339 259.023 343.955 256.759 342.62 254.047C342.14 253.068 337.863 253.046 337.685 251.974C337.876 251.999 340.641 249.127 339.728 247.708C339.127 246.773 339.314 245.584 340.086 244.785C340.161 244.707 340.233 244.624 340.298 244.535C342.579 241.441 345.723 241.98 347.365 246.183C350.871 247.951 350.906 250.886 348.756 253.708C347.388 255.504 347.201 257.934 346.001 259.856C346.125 260.015 346.253 260.168 346.377 260.326C348.643 263.231 350.604 266.353 352.257 269.633C351.788 265.987 352.476 261.594 353.65 258.762C354.996 255.512 357.529 252.777 359.747 249.966C362.396 246.609 367.788 248.132 368.256 252.383C368.261 252.424 368.265 252.465 368.269 252.506C367.941 252.691 367.62 252.888 367.306 253.096C365.517 254.28 366.137 257.054 368.258 257.381L368.306 257.388C368.187 258.569 363.996 262.289 363.7 263.441C366.535 274.388 364.414 275.833 355.693 276.016L355.235 276.668C356.062 279.044 356.727 281.477 357.226 283.942C357.697 286.229 358.024 288.542 358.207 290.864C358.436 293.794 358.417 296.74 358.171 299.665L358.185 299.561C358.812 296.339 360.56 293.329 363.099 291.243C366.882 288.134 372.227 286.987 376.308 284.488C378.273 283.284 380.791 284.838 380.449 287.116L380.432 287.225C379.825 287.472 379.232 287.759 378.659 288.08C378.33 288.266 378.009 288.463 377.694 288.671C375.905 289.855 376.525 292.63 378.647 292.955L378.695 292.962C378.729 292.967 378.759 292.972 378.794 292.977C377.752 295.453 367.826 298.946 366.009 300.928C364.241 310.489 365.109 310.205 356.973 307.423H356.968C356.08 311.298 354.781 315.083 353.112 318.691L339.326 318.696C339.276 318.543 339.232 318.385 339.187 318.231C340.462 318.31 341.747 318.235 343.002 318.003C341.979 316.748 340.955 315.483 339.932 314.229C339.907 314.204 339.888 314.179 339.868 314.154L339.852 314.135L338.433 309.463C338.545 308.426 338.728 307.398 338.976 306.387Z" fill="#F2F2F2"/>
<path d="M193.288 318.584L71.2943 318.626C65.1657 318.628 59.6758 315.461 56.6097 310.155C55.0764 307.501 54.3096 304.59 54.3086 301.679C54.3076 298.767 55.0727 295.856 56.6038 293.201L117.562 182.231C120.625 176.922 126.112 173.751 132.241 173.749C138.37 173.747 143.859 176.914 146.926 182.221L207.968 293.163C209.498 295.809 210.262 298.717 210.263 301.626C210.263 304.536 209.498 307.448 207.966 310.102C204.904 315.411 199.416 318.582 193.288 318.584ZM55.8421 301.676C55.8419 304.327 69.3034 298.616 70.698 301.03C73.4876 305.858 65.718 317.098 71.2938 317.096C71.2938 317.096 203.855 314.167 206.641 309.338C208.034 306.923 208.73 304.274 208.729 301.625C208.728 298.977 208.03 296.328 206.635 293.914L145.593 182.972C142.811 178.159 137.817 175.277 132.241 175.279C126.668 175.281 55.8423 299.026 55.8421 301.676Z" fill="#3F3D56"/>
<path d="M194.642 317.053C193.113 320.114 264.732 319.173 265.579 319.173C265.579 319.173 285.709 318.728 286.132 317.995C286.343 317.628 286.449 317.226 286.449 316.824C286.449 316.422 286.343 316.019 286.131 315.653L276.861 298.806C276.439 298.075 275.68 297.637 274.834 297.638C274.798 297.638 274.747 297.669 274.679 297.729C262.314 308.779 247.074 316.084 230.492 316.331C212.86 316.593 194.739 316.859 194.642 317.053Z" fill="#3F3D56"/>
<path d="M0.689453 319.09C0.689629 319.595 1.09527 320 1.60023 320L401.18 319.862C401.685 319.862 402.091 319.456 402.09 318.951C402.09 318.446 401.685 318.041 401.18 318.041L1.5996 318.179C1.09464 318.179 0.689277 318.585 0.689453 319.09Z" fill="#CCCCCC"/>
<path d="M309.678 314.671L302.758 314.673L299.457 287.983L309.67 287.98L309.678 314.671Z" fill="#A0616A"/>
<path d="M285.97 314.522C285.755 314.885 285.641 316.056 285.642 316.478C285.642 317.775 286.694 318.826 287.991 318.826L309.421 318.819C310.305 318.818 311.022 318.101 311.022 317.216L311.022 316.324C311.022 316.324 312.081 313.642 309.897 310.338C309.897 310.338 307.186 312.926 303.131 308.874L301.935 306.709L293.285 313.04L288.489 313.632C287.44 313.762 286.509 313.613 285.97 314.522Z" fill="#2F2E41"/>
<path d="M283.145 291.843L276.59 294.061L264.915 269.835L274.589 266.561L283.145 291.843Z" fill="#A0616A"/>
<path d="M260.638 299.295C260.551 299.708 260.818 300.854 260.954 301.254C261.37 302.482 262.703 303.141 263.931 302.725L284.23 295.855C285.068 295.571 285.517 294.662 285.234 293.824L284.948 292.979C284.948 292.979 285.092 290.099 281.965 287.668C281.965 287.668 280.225 290.989 275.086 288.449L273.26 286.781L267.093 295.549L262.74 297.646C261.787 298.104 260.858 298.261 260.638 299.295Z" fill="#2F2E41"/>
<path d="M272.457 137.014L259.035 181.464L243.19 221.447L268.275 278.545L277.577 274.408L266.447 221.955L289.787 186.363L300.678 297.473L309.981 296.953L322.596 162.837L324.395 133.636L272.457 137.014Z" fill="#2F2E41"/>
<path d="M312.992 38.5474L293.354 42.1718L291.807 50.9581L279.922 56.6471L273.743 121.25C273.743 121.25 263.411 134.691 271.682 138.823L324.395 133.636C324.395 133.636 326.975 124.081 324.391 123.174C321.807 122.267 321.799 99.4424 321.799 99.4424L333.669 52.4941L316.095 46.2984L312.992 38.5474Z" fill="#E6E6E6"/>
<path d="M301.409 38.3778C310.167 38.3778 317.267 31.2781 317.267 22.5201C317.267 13.7621 310.167 6.66235 301.409 6.66235C292.652 6.66235 285.552 13.7621 285.552 22.5201C285.552 31.2781 292.652 38.3778 301.409 38.3778Z" fill="#A0616A"/>
<path d="M311.91 24.8736C310.645 25.5664 311.846 28.8739 311.055 29.1598C310.14 29.4903 306.807 25.6963 306.766 21.4467C306.754 20.1606 307.05 19.543 306.765 18.018C306.393 16.0233 305.25 13.6706 304.192 13.733C303.565 13.7701 302.952 14.6566 302.907 15.4478C302.843 16.5567 303.92 16.9932 303.765 17.5905C303.469 18.7282 298.946 19.5137 297.336 17.5927C296.073 16.0867 297.042 13.4425 296.477 13.3071C296.061 13.2073 295.614 14.6631 293.907 16.3081C293.263 16.9279 292.306 17.8496 291.764 17.5946C290.981 17.2261 291.55 14.6291 291.335 14.5947C291.156 14.5662 291.044 16.3916 290.05 18.0238C288.773 20.1209 286.137 21.7372 284.908 21.0257C284.155 20.5898 284.095 19.3762 284.05 18.4545C283.955 16.5127 281.133 12.0461 281.863 9.96877C283.349 5.74085 285.895 8.72113 287.046 7.31017C288.605 5.40007 290.004 6.42704 292.617 4.30813C295.169 2.23817 295.192 0.157679 296.901 0.0207651C298.441 -0.102531 298.988 1.53961 300.759 1.30519C302.259 1.10661 302.585 -0.167048 303.758 0.0183858C304.833 0.188151 304.903 1.31017 306.331 1.73185C307.242 2.00105 307.442 1.6114 308.474 1.73111C310.62 1.98018 312.062 3.9351 312.332 4.3013C313.373 5.71302 312.969 6.30835 314.047 7.7294C314.977 8.95486 317.038 8.43447 317.813 9.04653C320.345 11.0465 321.432 14.7347 321.454 18.9384C321.47 21.8786 321.086 23.3641 320.231 27.0752C319.581 29.8932 316.573 33.5348 314.914 35.1587C314.469 35.5946 313.22 36.8166 312.343 36.4454C311.511 36.0936 311.486 34.5116 311.485 34.3027C311.481 33.5843 311.673 32.6954 313.198 30.4448C314.8 28.0808 315.437 27.811 315.34 27.0154C315.168 25.6091 312.919 24.3215 311.91 24.8736Z" fill="#2F2E41"/>
<path d="M256.596 172.719C256.102 176.852 257.834 180.457 260.465 180.771C263.095 181.085 265.627 177.989 266.121 173.856C266.337 172.047 266.126 170.339 265.601 168.963L267.472 151.423L259.223 150.72L258.253 168.086C257.419 169.299 256.812 170.909 256.596 172.719Z" fill="#A0616A"/>
<path d="M280.31 56.2297C280.31 56.2297 276.036 56.2905 273.206 61.8176C271.702 64.7546 263.657 119.677 263.657 119.677L256.245 164.669L268.87 164.732L278.708 122.124L286.984 97.412L280.31 56.2297Z" fill="#E6E6E6"/>
<path d="M315.838 166.116C314.629 170.1 315.704 173.952 318.239 174.722C320.774 175.491 323.809 172.886 325.018 168.902C325.547 167.159 325.638 165.44 325.361 163.994L330.272 147.052L322.273 144.917L318.28 161.845C317.247 162.893 316.367 164.373 315.838 166.116Z" fill="#A0616A"/>
<path d="M324.626 53.2724C324.626 53.2724 330.826 48.6189 335.996 55.8525C341.167 63.086 343.255 122.518 343.255 122.518L328.797 159.217L317.943 155.603L328.263 110.637L310.163 76.5338L324.626 53.2724Z" fill="#E6E6E6"/>
<path d="M167.838 294.111C198.683 294.111 223.687 269.106 223.687 238.262C223.687 207.417 198.683 182.413 167.838 182.413C136.994 182.413 111.989 207.417 111.989 238.262C111.989 269.106 136.994 294.111 167.838 294.111Z" fill="#007C8F"/>
<path d="M167.849 272.498C170.681 272.498 172.976 270.202 172.976 267.37C172.976 264.538 170.681 262.242 167.849 262.242C165.017 262.242 162.721 264.538 162.721 267.37C162.721 270.202 165.017 272.498 167.849 272.498Z" fill="white"/>
<path d="M167.827 204.026C167.356 207.156 168.2 207.811 168.204 221.305C168.209 234.798 171.009 252.89 167.844 252.891C164.678 252.893 163.521 215.555 152.53 212.25C139.607 208.365 169.352 193.893 167.827 204.026Z" fill="white"/>
</g>
<defs>
<clipPath id="clip0_8473_74170">
<rect width="401.401" height="320" fill="white" transform="translate(0.689453)"/>
</clipPath>
</defs>
</svg>
