<svg width="369" height="320" viewBox="0 0 369 320" fill="none" xmlns="http://www.w3.org/2000/svg">
<g clip-path="url(#clip0_10500_19111)">
<path d="M332.182 166.533C332.23 206.13 316.925 244.203 289.484 272.749C287.83 274.481 286.131 276.172 284.387 277.82C281.731 280.347 278.985 282.776 276.15 285.107C249.629 306.957 216.521 319.235 182.167 319.961C181.022 319.987 179.873 320 178.72 320C151.321 320 116.86  305.366 85.5873 285.107C83 283.431 80.4356 281.716 77.8943 279.963C76.7065 279.151 75.5244 278.327 74.348 277.492C62.2864 268.975 50.8376 259.622 40.0859 249.502C33.0464 242.895 26.4452 235.837 20.3243 228.371C-3.705 198.731 -9.005 172.023 25.2528 166.533C29.3088 165.885 33.2453 165.193 37.0623 164.455C42.5912 163.393 47.8826 162.245 52.9364 161.013C59.7439 159.358 66.1396 157.564 72.1235 155.631C74.1364 154.983 76.1032 154.322 78.0239 153.648C106.42 143.674 125.426 130.668 138.363 116.557C140.557 114.168 142.58 111.751 144.432 109.304C147.265 105.581 149.838 101.667 152.133 97.5899C155.301 91.9253 157.963 85.9917 160.085 79.8584L160.202 79.5215C170.495 49.8294 167.364 22.2883 178.72 13.0706C227.262 -26.3361 287.696 29.7826 316.062 95.9614C317.492 99.2961 318.836 102.651 320.096 106.026C320.662 107.533 321.208 109.044 321.733 110.557C323.116 114.501 324.37 118.454 325.496 122.418C325.928 123.93 326.339 125.44 326.731 126.949C327.15 128.578 327.552 130.202 327.923 131.826C330.683 143.718 332.182 155.445 332.182 166.533Z" fill="#F2F2F2"/>
<path d="M182.167 319.961C181.022 319.987 179.873 320 178.72 320C151.321 320 116.861 305.366 85.5875 285.107C83.0002 283.431 80.4358 281.716 77.8945 279.963L80.1234 266.4L147.598 257.441L181.463 283.336L182.167 319.961Z" fill="#2F2E41"/>
<path d="M185.415 77.7721H175.8C175.502 77.7722 175.216 77.8906 175.006 78.1012C174.795 78.3117 174.677 78.5973 174.677 78.8951V88.5146C174.677 88.6618 174.706 88.8076 174.763 88.9435C174.819 89.0795 174.902 89.2029 175.006 89.3069C175.111 89.4108 175.234 89.4931 175.37 89.5491C175.507 89.6051 175.653 89.6338 175.8 89.6334H185.415C185.712 89.6335 185.997 89.5158 186.208 89.3061C186.418 89.0964 186.537 88.8117 186.538 88.5146V78.8951C186.537 78.5975 186.419 78.3124 186.208 78.1019C185.998 77.8915 185.712 77.773 185.415 77.7721Z" fill="white"/>
<path d="M185.415 94.1646H175.8C175.502 94.1647 175.216 94.2831 175.006 94.4936C174.795 94.7042 174.677 94.9898 174.677 95.2876V104.907C174.677 105.054 174.706 105.2 174.763 105.336C174.819 105.472 174.902 105.595 175.006 105.699C175.111 105.803 175.234 105.886 175.37 105.942C175.507 105.998 175.653 106.026 175.8 106.026H185.415C185.712 106.026 185.997 105.908 186.208 105.699C186.418 105.489 186.537 105.204 186.538 104.907V95.2876C186.537 94.99 186.419 94.7049 186.208 94.4944C185.998 94.284 185.712 94.1654 185.415 94.1646Z" fill="#E6E6E6"/>
<path d="M185.415 110.557H175.8C175.502 110.557 175.216 110.675 175.006 110.886C174.795 111.097 174.677 111.382 174.677 111.68V121.295C174.676 121.443 174.705 121.589 174.762 121.725C174.818 121.862 174.901 121.986 175.005 122.09C175.109 122.194 175.233 122.277 175.37 122.333C175.506 122.39 175.652 122.419 175.8 122.418H185.415C185.713 122.418 185.998 122.3 186.209 122.089C186.42 121.879 186.538 121.593 186.538 121.295V111.68C186.537 111.382 186.419 111.097 186.208 110.887C185.998 110.676 185.713 110.558 185.415 110.557Z" fill="#E6E6E6"/>
<path d="M186.521 127.874C186.473 127.615 186.336 127.381 186.134 127.213C185.932 127.044 185.678 126.951 185.415 126.949H175.8C175.502 126.95 175.216 127.068 175.006 127.279C174.795 127.489 174.677 127.775 174.677 128.073V137.688C174.676 137.835 174.705 137.981 174.762 138.118C174.818 138.254 174.901 138.378 175.005 138.482C175.109 138.587 175.233 138.67 175.37 138.726C175.506 138.782 175.652 138.811 175.8 138.811H185.415C185.713 138.811 185.998 138.692 186.209 138.482C186.42 138.271 186.538 137.985 186.538 137.688V128.073C186.539 128.006 186.533 127.939 186.521 127.874Z" fill="#E6E6E6"/>
<path d="M185.851 143.428C185.713 143.371 185.565 143.342 185.415 143.342H175.8C175.652 143.342 175.506 143.37 175.37 143.427C175.233 143.483 175.109 143.566 175.005 143.67C174.901 143.775 174.818 143.898 174.762 144.035C174.705 144.171 174.676 144.317 174.677 144.465V154.08C174.676 154.228 174.705 154.374 174.761 154.511C174.817 154.647 174.9 154.771 175.004 154.876C175.109 154.98 175.233 155.063 175.369 155.119C175.506 155.175 175.652 155.204 175.8 155.203H185.415C185.713 155.203 185.998 155.085 186.209 154.874C186.42 154.663 186.538 154.378 186.538 154.08V144.465C186.537 144.244 186.472 144.028 186.35 143.844C186.228 143.659 186.055 143.515 185.851 143.428Z" fill="#E6E6E6"/>
<path d="M205.613 77.7721H195.998C195.7 77.7722 195.415 77.8906 195.204 78.1012C194.994 78.3117 194.875 78.5973 194.875 78.8951V88.5146C194.875 88.6618 194.904 88.8076 194.961 88.9435C195.017 89.0795 195.1 89.2029 195.204 89.3069C195.309 89.4108 195.433 89.4931 195.569 89.5491C195.705 89.6051 195.851 89.6338 195.998 89.6334H205.613C205.91 89.6335 206.195 89.5158 206.406 89.3061C206.616 89.0964 206.735 88.8117 206.736 88.5146V78.8951C206.735 78.5975 206.617 78.3124 206.406 78.1019C206.196 77.8915 205.911 77.773 205.613 77.7721Z" fill="#E6E6E6"/>
<path d="M205.613 94.1646H195.998C195.7 94.1647 195.415 94.2831 195.204 94.4936C194.993 94.7042 194.875 94.9898 194.875 95.2876V104.907C194.875 105.054 194.904 105.2 194.961 105.336C195.017 105.472 195.1 105.595 195.204 105.699C195.309 105.803 195.433 105.886 195.569 105.942C195.705 105.998 195.851 106.026 195.998 106.026H205.613C205.91 106.026 206.195 105.908 206.406 105.699C206.616 105.489 206.735 105.204 206.736 104.907V95.2876C206.735 94.99 206.617 94.7049 206.406 94.4944C206.196 94.284 205.911 94.1654 205.613 94.1646Z" fill="#007C8F"/>
<path d="M205.613 110.557H195.998C195.7 110.557 195.415 110.675 195.204 110.886C194.993 111.097 194.875 111.382 194.875 111.68V121.295C194.875 121.443 194.904 121.589 194.96 121.725C195.016 121.862 195.099 121.986 195.203 122.09C195.308 122.194 195.432 122.277 195.568 122.333C195.704 122.39 195.85 122.419 195.998 122.418H205.613C205.911 122.418 206.197 122.3 206.407 122.089C206.618 121.879 206.736 121.593 206.736 121.295V111.68C206.735 111.382 206.617 111.097 206.406 110.887C206.196 110.676 205.911 110.558 205.613 110.557Z" fill="#007C8F"/>
<path d="M205.613 126.949H195.998C195.763 126.95 195.533 127.024 195.342 127.162C195.152 127.3 195.009 127.495 194.935 127.718C194.895 127.832 194.875 127.952 194.875 128.072V137.688C194.875 137.835 194.904 137.981 194.96 138.118C195.016 138.254 195.099 138.378 195.203 138.482C195.308 138.587 195.431 138.669 195.568 138.726C195.704 138.782 195.85 138.811 195.998 138.811H205.613C205.911 138.811 206.197 138.692 206.407 138.482C206.618 138.271 206.736 137.985 206.736 137.688V128.072C206.735 127.775 206.617 127.49 206.406 127.279C206.196 127.069 205.911 126.95 205.613 126.949Z" fill="#007C8F"/>
<path d="M205.613 143.342H195.998C195.85 143.342 195.704 143.37 195.568 143.427C195.432 143.483 195.308 143.566 195.203 143.67C195.099 143.775 195.016 143.898 194.96 144.035C194.904 144.171 194.875 144.317 194.875 144.465V154.08C194.875 154.228 194.904 154.374 194.96 154.51C195.016 154.647 195.099 154.771 195.203 154.875C195.308 154.979 195.432 155.062 195.568 155.118C195.704 155.175 195.85 155.203 195.998 155.203H205.613C205.911 155.203 206.197 155.085 206.407 154.874C206.618 154.663 206.736 154.378 206.736 154.08V144.465C206.736 144.167 206.618 143.882 206.407 143.671C206.197 143.46 205.911 143.342 205.613 143.342Z" fill="#E6E6E6"/>
<path d="M225.81 77.7721H216.195C215.897 77.7722 215.612 77.8906 215.401 78.1012C215.191 78.3117 215.072 78.5973 215.072 78.8951V88.5146C215.072 88.6618 215.102 88.8076 215.158 88.9435C215.215 89.0795 215.297 89.2029 215.402 89.3069C215.506 89.4108 215.63 89.4931 215.766 89.5491C215.902 89.6051 216.048 89.6338 216.195 89.6334H225.81C226.108 89.6335 226.393 89.5158 226.603 89.3061C226.814 89.0964 226.933 88.8117 226.934 88.5146V78.8951C226.933 78.5975 226.814 78.3124 226.604 78.1019C226.393 77.8915 226.108 77.773 225.81 77.7721Z" fill="#007C8F"/>
<path d="M225.81 94.1646H216.195C215.897 94.1647 215.612 94.2831 215.401 94.4936C215.191 94.7042 215.072 94.9898 215.072 95.2876V104.907C215.072 105.054 215.102 105.2 215.158 105.336C215.215 105.472 215.297 105.595 215.402 105.699C215.506 105.803 215.63 105.886 215.766 105.942C215.902 105.998 216.048 106.026 216.195 106.026H225.81C226.108 106.026 226.393 105.908 226.603 105.699C226.814 105.489 226.933 105.204 226.934 104.907V95.2876C226.933 94.99 226.814 94.7049 226.604 94.4944C226.393 94.284 226.108 94.1654 225.81 94.1646Z" fill="#007C8F"/>
<path d="M225.81 110.557H216.195C215.897 110.557 215.612 110.675 215.401 110.886C215.191 111.097 215.072 111.382 215.072 111.68V121.295C215.072 121.443 215.101 121.589 215.157 121.725C215.213 121.862 215.296 121.986 215.401 122.09C215.505 122.194 215.629 122.277 215.765 122.333C215.902 122.39 216.048 122.419 216.195 122.418H225.81C226.108 122.418 226.394 122.3 226.604 122.089C226.815 121.879 226.933 121.593 226.934 121.295V111.68C226.933 111.382 226.814 111.097 226.604 110.887C226.393 110.676 226.108 110.558 225.81 110.557Z" fill="#E6E6E6"/>
<path d="M225.81 126.949H216.195C215.897 126.95 215.612 127.068 215.401 127.279C215.191 127.489 215.072 127.775 215.072 128.073V137.688C215.072 137.835 215.101 137.981 215.157 138.118C215.213 138.254 215.296 138.378 215.401 138.482C215.505 138.587 215.629 138.67 215.765 138.726C215.902 138.782 216.048 138.811 216.195 138.811H225.81C226.108 138.811 226.394 138.692 226.604 138.482C226.815 138.271 226.933 137.985 226.934 137.688V128.073C226.933 127.775 226.814 127.49 226.604 127.279C226.393 127.069 226.108 126.95 225.81 126.949Z" fill="#007C8F"/>
<path d="M225.81 143.342H216.195C216.048 143.342 215.902 143.37 215.765 143.427C215.629 143.483 215.505 143.566 215.401 143.67C215.296 143.775 215.213 143.898 215.157 144.035C215.101 144.171 215.072 144.317 215.072 144.465V154.08C215.072 154.228 215.101 154.374 215.157 154.51C215.213 154.647 215.296 154.771 215.401 154.875C215.505 154.979 215.629 155.062 215.765 155.118C215.902 155.175 216.048 155.203 216.195 155.203H225.81C226.108 155.203 226.394 155.085 226.604 154.874C226.815 154.663 226.933 154.378 226.934 154.08V144.465C226.933 144.167 226.815 143.882 226.604 143.671C226.394 143.46 226.108 143.342 225.81 143.342Z" fill="#007C8F"/>
<path d="M246.009 77.7721H236.394C236.096 77.7722 235.81 77.8906 235.6 78.1012C235.389 78.3117 235.271 78.5973 235.271 78.8951V88.5146C235.271 88.6618 235.3 88.8076 235.356 88.9435C235.413 89.0795 235.496 89.2029 235.6 89.3069C235.704 89.4108 235.828 89.4931 235.964 89.5491C236.1 89.6052 236.246 89.6338 236.394 89.6334H246.009C246.306 89.6335 246.591 89.5158 246.801 89.3061C247.012 89.0964 247.131 88.8117 247.132 88.5146V78.8951C247.131 78.5975 247.012 78.3124 246.802 78.1019C246.591 77.8915 246.306 77.773 246.009 77.7721Z" fill="#007C8F"/>
<path d="M246.009 94.1646H236.394C236.096 94.1647 235.81 94.2831 235.6 94.4936C235.389 94.7042 235.271 94.9898 235.271 95.2876V104.907C235.271 105.054 235.3 105.2 235.356 105.336C235.413 105.472 235.496 105.595 235.6 105.699C235.704 105.803 235.828 105.886 235.964 105.942C236.1 105.998 236.246 106.026 236.394 106.026H246.009C246.306 106.026 246.591 105.908 246.801 105.699C247.012 105.489 247.131 105.204 247.132 104.907V95.2876C247.131 94.99 247.012 94.7049 246.802 94.4944C246.591 94.284 246.306 94.1654 246.009 94.1646Z" fill="white"/>
<path d="M246.009 110.557H236.394C236.096 110.557 235.81 110.675 235.6 110.886C235.389 111.097 235.271 111.382 235.271 111.68V121.295C235.27 121.443 235.299 121.589 235.355 121.725C235.412 121.862 235.494 121.986 235.599 122.09C235.703 122.194 235.827 122.277 235.963 122.333C236.1 122.39 236.246 122.419 236.394 122.418H246.009C246.307 122.418 246.592 122.3 246.803 122.089C247.013 121.879 247.132 121.593 247.132 121.295V111.68C247.131 111.382 247.012 111.097 246.802 110.887C246.591 110.676 246.306 110.558 246.009 110.557Z" fill="white"/>
<path d="M246.009 126.949H236.394C236.096 126.95 235.81 127.068 235.6 127.279C235.389 127.489 235.271 127.775 235.271 128.073V137.688C235.27 137.835 235.299 137.981 235.355 138.118C235.412 138.254 235.494 138.378 235.599 138.482C235.703 138.587 235.827 138.67 235.963 138.726C236.1 138.782 236.246 138.811 236.394 138.811H246.009C246.307 138.811 246.592 138.692 246.803 138.482C247.013 138.271 247.132 137.985 247.132 137.688V128.073C247.131 127.775 247.012 127.49 246.802 127.279C246.591 127.069 246.306 126.95 246.009 126.949Z" fill="#E6E6E6"/>
<path d="M246.009 143.342H236.394C236.246 143.342 236.1 143.37 235.963 143.427C235.827 143.483 235.703 143.566 235.599 143.67C235.494 143.774 235.412 143.898 235.355 144.035C235.299 144.171 235.27 144.317 235.271 144.465V154.08C235.27 154.228 235.299 154.374 235.355 154.51C235.412 154.647 235.494 154.771 235.599 154.875C235.703 154.979 235.827 155.062 235.963 155.118C236.1 155.175 236.246 155.203 236.394 155.203H246.009C246.307 155.203 246.592 155.085 246.803 154.874C247.013 154.663 247.132 154.378 247.132 154.08V144.465C247.132 144.167 247.013 143.882 246.803 143.671C246.592 143.46 246.307 143.342 246.009 143.342Z" fill="#007C8F"/>
<path d="M266.207 77.7721H256.588C256.29 77.7731 256.006 77.8919 255.796 78.1024C255.586 78.3129 255.469 78.598 255.469 78.8951V88.5146C255.469 88.8113 255.587 89.0958 255.797 89.3056C256.006 89.5154 256.291 89.6333 256.588 89.6334H266.207C266.504 89.6335 266.789 89.5158 267 89.3061C267.21 89.0964 267.329 88.8117 267.33 88.5146V78.8951C267.329 78.5975 267.211 78.3124 267 78.1019C266.79 77.8915 266.505 77.773 266.207 77.7721Z" fill="white"/>
<path d="M266.207 94.1646H256.588C256.29 94.1656 256.006 94.2844 255.796 94.4949C255.586 94.7054 255.469 94.9905 255.469 95.2876V104.907C255.469 105.204 255.587 105.488 255.797 105.698C256.006 105.908 256.291 106.026 256.588 106.026H266.207C266.504 106.026 266.789 105.908 267 105.699C267.21 105.489 267.329 105.204 267.33 104.907V95.2876C267.329 94.99 267.211 94.7049 267 94.4944C266.79 94.284 266.505 94.1654 266.207 94.1646Z" fill="white"/>
<path d="M266.207 110.557H256.588C256.29 110.558 256.006 110.677 255.796 110.887C255.586 111.098 255.469 111.383 255.469 111.68V121.295C255.468 121.442 255.497 121.588 255.553 121.724C255.609 121.861 255.691 121.984 255.795 122.089C255.899 122.193 256.023 122.276 256.159 122.332C256.295 122.389 256.44 122.418 256.588 122.418H266.207C266.505 122.418 266.79 122.3 267.001 122.089C267.212 121.879 267.33 121.593 267.33 121.295V111.68C267.329 111.382 267.211 111.097 267 110.887C266.79 110.676 266.505 110.558 266.207 110.557Z" fill="white"/>
<path d="M266.207 126.949H256.588C256.29 126.95 256.006 127.069 255.796 127.28C255.586 127.49 255.469 127.775 255.469 128.073V137.688C255.468 137.835 255.497 137.981 255.553 138.117C255.609 138.253 255.691 138.377 255.795 138.481C255.899 138.586 256.023 138.668 256.159 138.725C256.295 138.781 256.44 138.811 256.588 138.811H266.207C266.505 138.811 266.79 138.692 267.001 138.482C267.212 138.271 267.33 137.985 267.33 137.688V128.073C267.329 127.775 267.211 127.49 267 127.279C266.79 127.069 266.505 126.95 266.207 126.949Z" fill="#007C8F"/>
<path d="M266.207 143.342H256.588C256.44 143.342 256.295 143.371 256.159 143.428C256.023 143.484 255.899 143.567 255.795 143.671C255.691 143.776 255.609 143.899 255.553 144.036C255.497 144.172 255.468 144.318 255.469 144.465V154.08C255.468 154.227 255.497 154.373 255.553 154.509C255.609 154.646 255.691 154.769 255.795 154.874C255.899 154.978 256.023 155.061 256.159 155.117C256.295 155.174 256.44 155.203 256.588 155.203H266.207C266.505 155.203 266.79 155.085 267.001 154.874C267.212 154.663 267.33 154.378 267.33 154.08V144.465C267.33 144.167 267.212 143.882 267.001 143.671C266.79 143.46 266.505 143.342 266.207 143.342Z" fill="#E6E6E6"/>
<path d="M286.404 77.7721H276.785C276.488 77.7731 276.203 77.8919 275.993 78.1024C275.784 78.3129 275.666 78.598 275.666 78.8951V88.5146C275.666 88.8113 275.784 89.0958 275.994 89.3056C276.204 89.5154 276.488 89.6333 276.785 89.6334H286.404C286.701 89.6335 286.986 89.5158 287.197 89.3061C287.408 89.0963 287.526 88.8117 287.527 88.5146V78.8951C287.526 78.5975 287.408 78.3124 287.197 78.102C286.987 77.8915 286.702 77.773 286.404 77.7721Z" fill="white"/>
<path d="M286.404 94.1646H276.785C276.488 94.1656 276.203 94.2844 275.993 94.4949C275.784 94.7054 275.666 94.9905 275.666 95.2876V104.907C275.666 105.204 275.784 105.488 275.994 105.698C276.204 105.908 276.488 106.026 276.785 106.026H286.404C286.701 106.026 286.986 105.908 287.197 105.699C287.408 105.489 287.526 105.204 287.527 104.907V95.2876C287.526 94.99 287.408 94.7049 287.197 94.4944C286.987 94.284 286.702 94.1654 286.404 94.1646Z" fill="white"/>
<path d="M286.404 110.557H276.785C276.488 110.558 276.203 110.677 275.993 110.887C275.784 111.098 275.666 111.383 275.666 111.68V121.295C275.666 121.442 275.694 121.588 275.75 121.724C275.806 121.861 275.889 121.984 275.993 122.089C276.096 122.193 276.22 122.276 276.356 122.332C276.492 122.389 276.638 122.418 276.785 122.418H286.404C286.702 122.418 286.988 122.3 287.198 122.089C287.409 121.879 287.527 121.593 287.527 121.295V111.68C287.526 111.382 287.408 111.097 287.197 110.887C286.987 110.676 286.702 110.558 286.404 110.557Z" fill="#007C8F"/>
<path d="M286.404 126.949H276.785C276.488 126.95 276.203 127.069 275.993 127.28C275.784 127.49 275.666 127.775 275.666 128.073V137.688C275.666 137.835 275.694 137.981 275.75 138.117C275.806 138.253 275.889 138.377 275.993 138.481C276.096 138.586 276.22 138.668 276.356 138.725C276.492 138.781 276.638 138.811 276.785 138.811H286.404C286.702 138.811 286.988 138.692 287.198 138.482C287.409 138.271 287.527 137.985 287.527 137.688V128.073C287.526 127.775 287.408 127.49 287.197 127.279C286.987 127.069 286.702 126.95 286.404 126.949Z" fill="#E6E6E6"/>
<path d="M286.404 143.342H276.785C276.638 143.342 276.492 143.371 276.356 143.428C276.22 143.484 276.096 143.567 275.993 143.671C275.889 143.776 275.806 143.899 275.75 144.036C275.694 144.172 275.666 144.318 275.666 144.465V154.08C275.666 154.227 275.694 154.373 275.75 154.509C275.806 154.646 275.889 154.769 275.993 154.874C276.096 154.978 276.22 155.061 276.356 155.117C276.492 155.174 276.638 155.203 276.785 155.203H286.404C286.702 155.203 286.988 155.085 287.198 154.874C287.409 154.663 287.527 154.378 287.527 154.08V144.465C287.527 144.167 287.409 143.882 287.198 143.671C286.988 143.46 286.702 143.342 286.404 143.342Z" fill="white"/>
<path d="M306.602 77.7721H296.983C296.686 77.7731 296.401 77.8919 296.192 78.1024C295.982 78.3129 295.864 78.598 295.864 78.8951V88.5146C295.864 88.8113 295.982 89.0958 296.192 89.3056C296.402 89.5154 296.686 89.6333 296.983 89.6334H306.602C306.9 89.6335 307.185 89.5158 307.395 89.3061C307.606 89.0963 307.725 88.8117 307.726 88.5146V78.8951C307.725 78.5975 307.606 78.3124 307.396 78.102C307.185 77.8915 306.9 77.773 306.602 77.7721Z" fill="#007C8F"/>
<path d="M306.602 94.1646H296.983C296.686 94.1656 296.401 94.2844 296.192 94.4949C295.982 94.7054 295.864 94.9905 295.864 95.2876V104.907C295.864 105.204 295.982 105.488 296.192 105.698C296.402 105.908 296.686 106.026 296.983 106.026H306.602C306.9 106.026 307.185 105.908 307.395 105.699C307.606 105.489 307.725 105.204 307.726 104.907V95.2876C307.725 94.99 307.606 94.7049 307.396 94.4944C307.185 94.284 306.9 94.1654 306.602 94.1646Z" fill="#007C8F"/>
<path d="M306.602 110.557H296.983C296.686 110.558 296.401 110.677 296.192 110.887C295.982 111.098 295.864 111.383 295.864 111.68V121.295C295.864 121.442 295.892 121.588 295.948 121.724C296.005 121.861 296.087 121.984 296.191 122.089C296.295 122.193 296.418 122.276 296.554 122.332C296.69 122.389 296.836 122.418 296.983 122.418H306.602C306.9 122.418 307.186 122.3 307.396 122.089C307.607 121.879 307.725 121.593 307.726 121.295V111.68C307.725 111.382 307.606 111.097 307.396 110.887C307.185 110.676 306.9 110.558 306.602 110.557Z" fill="#E6E6E6"/>
<path d="M306.602 126.949H296.983C296.686 126.95 296.401 127.069 296.192 127.28C295.982 127.49 295.864 127.775 295.864 128.073V137.688C295.864 137.835 295.892 137.981 295.948 138.117C296.005 138.253 296.087 138.377 296.191 138.481C296.295 138.586 296.418 138.668 296.554 138.725C296.69 138.781 296.836 138.811 296.983 138.811H306.602C306.9 138.811 307.186 138.692 307.396 138.482C307.607 138.271 307.725 137.985 307.726 137.688V128.073C307.725 127.775 307.606 127.49 307.396 127.279C307.185 127.069 306.9 126.95 306.602 126.949Z" fill="white"/>
<path d="M306.602 143.342H296.983C296.836 143.342 296.69 143.371 296.554 143.428C296.418 143.484 296.295 143.567 296.191 143.671C296.087 143.776 296.005 143.899 295.948 144.036C295.892 144.172 295.864 144.318 295.864 144.465V154.08C295.864 154.227 295.892 154.373 295.948 154.509C296.005 154.646 296.087 154.769 296.191 154.874C296.295 154.978 296.418 155.061 296.554 155.117C296.69 155.174 296.836 155.203 296.983 155.203H306.602C306.9 155.203 307.186 155.085 307.396 154.874C307.607 154.663 307.725 154.378 307.726 154.08V144.465C307.725 144.167 307.607 143.882 307.396 143.671C307.186 143.46 306.9 143.342 306.602 143.342Z" fill="#007C8F"/>
<path d="M326.8 77.7721H317.18C316.883 77.7731 316.599 77.8919 316.389 78.1024C316.179 78.3129 316.061 78.598 316.062 78.8951V88.5146C316.062 88.8113 316.179 89.0958 316.389 89.3056C316.599 89.5154 316.884 89.6333 317.18 89.6334H326.8C327.097 89.6335 327.382 89.5158 327.592 89.3061C327.803 89.0963 327.922 88.8117 327.923 88.5146V78.8951C327.922 78.5975 327.803 78.3124 327.593 78.102C327.382 77.8915 327.097 77.773 326.8 77.7721Z" fill="#007C8F"/>
<path d="M326.8 94.1646H317.18C316.883 94.1656 316.599 94.2844 316.389 94.4949C316.179 94.7054 316.061 94.9905 316.062 95.2876V104.907C316.062 105.204 316.179 105.488 316.389 105.698C316.599 105.908 316.884 106.026 317.18 106.026H326.8C327.097 106.026 327.382 105.908 327.592 105.699C327.803 105.489 327.922 105.204 327.923 104.907V95.2876C327.922 94.99 327.803 94.7049 327.593 94.4944C327.382 94.284 327.097 94.1654 326.8 94.1646Z" fill="#007C8F"/>
<path d="M326.8 110.557H317.18C316.883 110.558 316.599 110.677 316.389 110.887C316.179 111.098 316.061 111.383 316.062 111.68V121.295C316.061 121.442 316.09 121.588 316.146 121.724C316.202 121.861 316.284 121.984 316.388 122.089C316.492 122.193 316.615 122.276 316.751 122.332C316.887 122.389 317.033 122.418 317.18 122.418H326.8C327.098 122.418 327.383 122.3 327.594 122.089C327.804 121.879 327.923 121.593 327.923 121.295V111.68C327.922 111.382 327.803 111.097 327.593 110.887C327.383 110.676 327.097 110.558 326.8 110.557Z" fill="#E6E6E6"/>
<path d="M326.8 126.949H317.18C316.883 126.95 316.599 127.069 316.389 127.28C316.179 127.49 316.061 127.775 316.062 128.073V137.688C316.061 137.835 316.09 137.981 316.146 138.117C316.202 138.253 316.284 138.377 316.388 138.481C316.492 138.586 316.615 138.668 316.751 138.725C316.887 138.781 317.033 138.811 317.18 138.811H326.8C327.098 138.811 327.383 138.692 327.594 138.482C327.804 138.271 327.923 137.985 327.923 137.688V128.073C327.922 127.775 327.803 127.49 327.593 127.279C327.382 127.069 327.097 126.95 326.8 126.949Z" fill="#007C8F"/>
<path d="M326.8 143.342H317.18C317.033 143.342 316.887 143.371 316.751 143.428C316.615 143.484 316.492 143.567 316.388 143.671C316.284 143.776 316.202 143.899 316.146 144.036C316.09 144.172 316.061 144.318 316.062 144.465V154.08C316.061 154.227 316.09 154.373 316.146 154.509C316.202 154.646 316.284 154.769 316.388 154.874C316.492 154.978 316.615 155.061 316.751 155.117C316.887 155.174 317.033 155.203 317.18 155.203H326.8C327.098 155.203 327.383 155.085 327.594 154.874C327.804 154.663 327.923 154.378 327.923 154.08V144.465C327.923 144.167 327.804 143.882 327.594 143.671C327.383 143.46 327.098 143.342 326.8 143.342Z" fill="#007C8F"/>
<path d="M346.998 77.7721H337.378C337.081 77.7731 336.797 77.8919 336.587 78.1024C336.377 78.3129 336.26 78.598 336.26 78.8951V88.5146C336.26 88.8113 336.378 89.0958 336.587 89.3056C336.797 89.5154 337.082 89.6333 337.378 89.6334H346.998C347.295 89.6335 347.58 89.5158 347.791 89.3061C348.001 89.0963 348.12 88.8117 348.121 88.5146V78.8951C348.12 78.5975 348.002 78.3124 347.791 78.102C347.581 77.8915 347.296 77.773 346.998 77.7721Z" fill="#E6E6E6"/>
<path d="M346.998 94.1646H337.378C337.081 94.1656 336.797 94.2844 336.587 94.4949C336.377 94.7054 336.26 94.9905 336.26 95.2876V104.907C336.26 105.204 336.378 105.488 336.587 105.698C336.797 105.908 337.082 106.026 337.378 106.026H346.998C347.295 106.026 347.58 105.908 347.791 105.699C348.001 105.489 348.12 105.204 348.121 104.907V95.2876C348.12 94.99 348.002 94.7049 347.791 94.4944C347.581 94.284 347.296 94.1654 346.998 94.1646Z" fill="#007C8F"/>
<path d="M346.998 110.557H337.379C337.081 110.558 336.797 110.677 336.587 110.887C336.377 111.098 336.26 111.383 336.26 111.68V121.295C336.259 121.442 336.288 121.588 336.344 121.724C336.4 121.861 336.482 121.984 336.586 122.089C336.69 122.193 336.814 122.276 336.95 122.332C337.086 122.389 337.231 122.418 337.379 122.418H346.998C347.296 122.418 347.581 122.3 347.792 122.089C348.003 121.879 348.121 121.593 348.121 121.295V111.68C348.12 111.382 348.002 111.097 347.791 110.887C347.581 110.676 347.296 110.558 346.998 110.557Z" fill="#007C8F"/>
<path d="M346.998 126.949H337.379C337.081 126.95 336.797 127.069 336.587 127.28C336.377 127.49 336.26 127.775 336.26 128.073V137.688C336.259 137.835 336.288 137.981 336.344 138.117C336.4 138.253 336.482 138.377 336.586 138.481C336.69 138.586 336.814 138.668 336.95 138.725C337.086 138.781 337.231 138.811 337.379 138.811H346.998C347.296 138.811 347.581 138.692 347.792 138.482C348.003 138.271 348.121 137.985 348.121 137.688V128.073C348.12 127.775 348.002 127.49 347.791 127.279C347.581 127.069 347.296 126.95 346.998 126.949Z" fill="#007C8F"/>
<path d="M346.998 143.342H337.379C337.231 143.342 337.086 143.371 336.95 143.428C336.814 143.484 336.69 143.567 336.586 143.671C336.482 143.776 336.4 143.899 336.344 144.036C336.288 144.172 336.259 144.318 336.26 144.465V154.08C336.259 154.227 336.288 154.373 336.344 154.509C336.4 154.646 336.482 154.769 336.586 154.874C336.69 154.978 336.814 155.061 336.95 155.117C337.086 155.174 337.231 155.203 337.379 155.203H346.998C347.296 155.203 347.581 155.085 347.792 154.874C348.003 154.663 348.121 154.378 348.121 154.08V144.465C348.121 144.167 348.003 143.882 347.792 143.671C347.581 143.46 347.296 143.342 346.998 143.342Z" fill="#E6E6E6"/>
<path d="M367.196 77.7721H357.577C357.28 77.7731 356.995 77.8919 356.785 78.1024C356.576 78.3129 356.458 78.598 356.458 78.8951V88.5146C356.458 88.8113 356.576 89.0958 356.786 89.3056C356.996 89.5154 357.28 89.6333 357.577 89.6334H367.196C367.493 89.6335 367.779 89.5158 367.989 89.3061C368.2 89.0963 368.318 88.8117 368.319 88.5146V78.8951C368.318 78.5975 368.2 78.3124 367.989 78.102C367.779 77.8915 367.494 77.773 367.196 77.7721Z" fill="#E6E6E6"/>
<path d="M367.196 94.1646H357.577C357.28 94.1656 356.995 94.2844 356.785 94.4949C356.576 94.7054 356.458 94.9905 356.458 95.2876V104.907C356.458 105.204 356.576 105.488 356.786 105.698C356.996 105.908 357.28 106.026 357.577 106.026H367.196C367.493 106.026 367.779 105.908 367.989 105.699C368.2 105.489 368.318 105.204 368.319 104.907V95.2876C368.318 94.99 368.2 94.7049 367.989 94.4944C367.779 94.284 367.494 94.1654 367.196 94.1646Z" fill="#E6E6E6"/>
<path d="M367.196 110.557H357.577C357.28 110.558 356.995 110.677 356.785 110.887C356.576 111.098 356.458 111.383 356.458 111.68V121.295C356.458 121.442 356.486 121.588 356.542 121.724C356.598 121.861 356.681 121.984 356.785 122.089C356.888 122.193 357.012 122.276 357.148 122.332C357.284 122.389 357.43 122.418 357.577 122.418H367.196C367.494 122.418 367.78 122.3 367.99 122.089C368.201 121.879 368.319 121.593 368.319 121.295V111.68C368.319 111.382 368.2 111.097 367.989 110.887C367.779 110.676 367.494 110.558 367.196 110.557Z" fill="#007C8F"/>
<path d="M367.196 126.949H357.577C357.28 126.95 356.995 127.069 356.785 127.28C356.576 127.49 356.458 127.775 356.458 128.073V137.688C356.458 137.835 356.486 137.981 356.542 138.117C356.598 138.253 356.681 138.377 356.785 138.481C356.888 138.586 357.012 138.668 357.148 138.725C357.284 138.781 357.43 138.811 357.577 138.811H367.196C367.494 138.811 367.78 138.692 367.99 138.482C368.201 138.271 368.319 137.985 368.319 137.688V128.073C368.318 127.775 368.2 127.49 367.989 127.279C367.779 127.069 367.494 126.95 367.196 126.949Z" fill="#E6E6E6"/>
<path d="M367.196 143.342H357.577C357.43 143.342 357.284 143.371 357.148 143.428C357.012 143.484 356.888 143.567 356.785 143.671C356.681 143.776 356.598 143.899 356.542 144.036C356.486 144.172 356.458 144.318 356.458 144.465V154.08C356.458 154.227 356.486 154.373 356.542 154.509C356.598 154.646 356.681 154.769 356.785 154.874C356.888 154.978 357.012 155.061 357.148 155.117C357.284 155.174 357.43 155.203 357.577 155.203H367.196C367.494 155.203 367.78 155.085 367.99 154.874C368.201 154.663 368.319 154.378 368.319 154.08V144.465C368.319 144.167 368.201 143.882 367.99 143.671C367.78 143.46 367.494 143.342 367.196 143.342Z" fill="#E6E6E6"/>
<path d="M146.107 285.108H145.839L146.068 285.078L146.107 285.108Z" fill="#2F2E41"/>
<path d="M123.092 105.851C139.39 105.851 152.603 92.6381 152.603 76.3394C152.603 60.0406 139.39 46.8279 123.092 46.8279C106.793 46.8279 93.5801 60.0406 93.5801 76.3394C93.5801 92.6381 106.793 105.851 123.092 105.851Z" fill="#FFB6B6"/>
<path d="M148.936 54.7021C148.936 54.7021 156.654 39.9463 139.673 38.6049C139.673 38.6049 125.196 25.4727 110.441 36.2041C110.441 36.2041 102.392 36.2041 97.9909 45.312C97.9909 45.312 91.6607 42.9113 90.2696 49.3363C90.2696 49.3363 85.6376 62.7507 90.2696 74.8236C94.9016 86.8965 96.4401 88.2379 96.4401 88.2379C96.4401 88.2379 88.8288 62.9264 107.355 61.585C125.882 60.2435 146.614 48.6656 148.158 63.4214C149.702 78.1771 152.025 81.8128 152.025 81.8128C152.025 81.8128 166.69 60.7386 148.936 54.7021Z" fill="#2F2E41"/>
<path d="M199.431 149.069L199.336 149.571L198.269 155.203L190.896 194.165L190.46 196.459L189.544 201.309L188.291 207.927L185.514 222.591L184.719 226.794L184.421 228.371L184.318 228.924L183.492 233.273L183.242 234.587L181.229 249.502L179.471 262.499L185.354 268.382L181.847 271.89L179.545 285.077L179.549 285.107H85.5872C81.786 282.645 78.0396 280.107 74.3479 277.492L75.1211 271.704C75.1211 271.704 77.7818 261.367 76.663 260.132C75.5487 258.897 73.1038 256.689 73.1038 256.689L76.1836 249.502L76.6113 248.504L75.8942 233.632L75.877 233.273L75.6394 228.371L75.6092 227.74L75.5616 226.794L74.6502 207.927L74.6329 207.616L74.3565 201.897L74.0973 196.458L73.985 194.165L72.875 171.215L72.1234 155.631L71.4668 142.063L74.106 141.169L102.334 131.576L114.027 116.375L138.363 116.557L150.276 116.647L170.154 135.083L174.677 137.243L174.711 137.26L177.955 138.811L186.179 142.737L194.874 146.892L199.336 149.022L199.431 149.069Z" fill="#CACACA"/>
<path d="M117.172 240.833C115.388 241.524 113.475 241.815 111.567 241.687C109.659 241.559 107.802 241.013 106.127 240.089C104.453 239.166 103.001 237.886 101.875 236.341C100.748 234.795 99.9739 233.021 99.607 231.145L53.5791 224.614L69.5797 206.515L110.835 215.491C114.03 215.083 117.262 215.862 119.921 217.678C122.579 219.495 124.479 222.224 125.26 225.348C126.041 228.471 125.649 231.773 124.158 234.627C122.668 237.481 120.182 239.689 117.172 240.833Z" fill="#FFB6B6"/>
<path d="M96.6495 207.927C95.7969 206.846 94.5898 206.101 93.2414 205.823L74.3567 201.897L72.4172 201.495C71.2901 201.26 70.2254 200.789 69.2927 200.114C68.36 199.439 67.5804 198.574 67.0049 197.577C66.4079 196.53 66.0467 195.366 65.9466 194.165C65.8566 193.073 65.9873 191.974 66.331 190.934L72.875 171.215L77.1211 158.421C77.6357 156.878 77.9394 155.272 78.0239 153.648C78.2604 149.153 76.8696 144.723 74.1061 141.169C71.6765 138.046 68.3067 135.787 64.4946 134.726C60.6824 133.665 56.6301 133.858 52.9363 135.277C52.8283 135.316 52.716 135.359 52.608 135.403C49.959 136.46 47.5923 138.12 45.6949 140.249C43.7975 142.379 42.4214 144.921 41.6754 147.674L37.0622 164.455L27.5464 199.05C26.5938 202.516 26.4014 206.147 26.9822 209.695C27.5631 213.242 28.9035 216.622 30.9118 219.603C32.9201 222.584 35.5488 225.097 38.6181 226.968C41.6873 228.839 45.1245 230.025 48.6946 230.444L75.8943 233.632L88.4813 235.109C89.9368 235.284 91.4047 234.904 92.5927 234.045C93.7806 233.186 94.6014 231.911 94.8914 230.474C94.9118 230.396 94.9277 230.317 94.9389 230.237L95.2413 228.371L97.8028 212.657L97.8287 212.497C97.9621 211.695 97.9261 210.874 97.7231 210.087C97.52 209.3 97.1542 208.564 96.6495 207.927Z" fill="#CACACA"/>
<path d="M146.49 241.337C148.353 241.769 150.288 241.788 152.159 241.392C154.03 240.996 155.792 240.194 157.319 239.043C158.847 237.893 160.104 236.421 161.001 234.732C161.898 233.043 162.414 231.178 162.513 229.268L207.16 216.312L188.767 200.65L149.189 215.354C145.97 215.401 142.879 216.628 140.503 218.801C138.128 220.975 136.632 223.944 136.299 227.147C135.966 230.349 136.82 233.563 138.698 236.178C140.577 238.794 143.349 240.629 146.49 241.337Z" fill="#FFB6B6"/>
<path d="M229.327 187.331L208.092 138.461C206.355 134.449 203.253 131.181 199.336 129.239C198.126 128.643 196.854 128.179 195.544 127.856C195.341 127.805 195.138 127.757 194.935 127.718C192.156 127.112 189.275 127.165 186.521 127.874C184.003 128.521 181.65 129.691 179.615 131.308C177.58 132.925 175.909 134.953 174.711 137.26C174.698 137.279 174.686 137.299 174.676 137.32C173.338 139.91 172.626 142.777 172.598 145.692C172.571 148.607 173.228 151.487 174.517 154.102L174.78 154.629L189.786 184.766C190.298 185.796 190.587 186.923 190.633 188.073C190.679 189.223 190.482 190.37 190.053 191.438C189.625 192.507 188.976 193.472 188.148 194.272C187.32 195.072 186.333 195.687 185.251 196.078L184.197 196.459L165.243 203.305C163.82 203.812 162.651 204.852 161.98 206.205C161.308 207.557 161.188 209.118 161.645 210.557L161.692 210.708L167.005 227.71C167.031 227.788 167.057 227.865 167.087 227.943C167.134 228.09 167.192 228.233 167.26 228.371C167.825 229.637 168.823 230.661 170.074 231.257C171.326 231.853 172.75 231.983 174.089 231.623L184.318 228.924L186.404 228.371L212.817 221.395C216.293 220.476 219.529 218.818 222.304 216.533C225.079 214.247 227.327 211.39 228.895 208.155C230.463 204.92 231.313 201.384 231.388 197.79C231.462 194.196 230.759 190.628 229.327 187.331Z" fill="#CACACA"/>
<path d="M20.3242 228.371C26.4451 235.837 33.0463 242.895 40.0858 249.502H235.313C237.194 249.505 238.997 250.254 240.327 251.584C241.657 252.914 242.404 254.718 242.406 256.599L242.687 306.07C254.697 300.552 265.944 293.506 276.15 285.107C278.983 282.779 281.729 280.35 284.387 277.82C286.128 276.17 287.827 274.48 289.484 272.749C301.909 259.806 311.97 244.786 319.211 228.371H20.3242Z" fill="#3F3D56"/>
<path d="M289.485 272.749C287.83 274.481 286.131 276.172 284.388 277.82H242.83V272.749H289.485Z" fill="white"/>
<path d="M199.043 110.557C198.838 110.178 198.534 109.862 198.164 109.641C197.793 109.421 197.37 109.304 196.939 109.304H55.3295C54.6946 109.306 54.0863 109.559 53.6377 110.009C53.1892 110.458 52.937 111.067 52.9365 111.702V196.459H199.337V111.702C199.339 111.301 199.238 110.907 199.043 110.557Z" fill="#3F3D56"/>
<path d="M52.8086 194.164V204.623C52.8086 205.057 52.894 205.486 53.0599 205.887C53.2258 206.287 53.469 206.651 53.7756 206.958C54.0822 207.264 54.4462 207.507 54.8468 207.673C55.2474 207.839 55.6767 207.925 56.1103 207.925H110.146V228.566H109.428C109.371 228.566 109.316 228.577 109.264 228.599C109.212 228.62 109.164 228.652 109.124 228.692C109.085 228.732 109.053 228.779 109.032 228.831C109.01 228.883 108.999 228.939 108.999 228.995V230.431C108.999 230.487 109.01 230.543 109.032 230.595C109.053 230.647 109.085 230.694 109.124 230.734C109.164 230.774 109.212 230.805 109.264 230.827C109.316 230.849 109.371 230.86 109.428 230.86H142.972C143.029 230.86 143.084 230.849 143.136 230.827C143.188 230.805 143.236 230.774 143.276 230.734C143.315 230.694 143.347 230.647 143.368 230.595C143.39 230.543 143.401 230.487 143.401 230.431V228.995C143.401 228.939 143.39 228.883 143.368 228.831C143.347 228.779 143.315 228.732 143.275 228.692C143.236 228.652 143.188 228.62 143.136 228.599C143.084 228.577 143.029 228.566 142.972 228.566H142.254V207.925H196.29C196.723 207.925 197.153 207.839 197.553 207.673C197.954 207.507 198.318 207.264 198.624 206.958C198.931 206.651 199.174 206.287 199.34 205.887C199.506 205.486 199.591 205.057 199.591 204.623V194.164H52.8086Z" fill="#3F3D56"/>
<path d="M124.426 164.145C131.894 164.145 137.949 158.09 137.949 150.622C137.949 143.154 131.894 137.099 124.426 137.099C116.958 137.099 110.903 143.154 110.903 150.622C110.903 158.09 116.958 164.145 124.426 164.145Z" fill="#007C8F"/>
<path d="M158.88 74.7268H156.721C156.721 58.3992 140.562 47.6998 124.26 47.6912C121.889 47.6843 119.523 47.9143 117.197 48.378C114.58 48.9007 111.863 49.527 109.193 50.3434C98.6669 53.57 88.9049 59.8073 88.9049 74.7268C88.9026 77.6243 89.2713 80.5101 90.002 83.314L87.9114 83.8582C87.1359 80.8764 86.744 77.8078 86.7451 74.7268C86.7451 61.6906 92.097 52.7363 101.341 47.3975C106.2 44.5898 112.131 42.7799 118.925 41.8988C121.753 41.5226 124.611 41.4358 127.456 41.6396C146.203 42.9873 158.88 57.3625 158.88 74.7268Z" fill="#007C8F"/>
<path d="M162.479 75.9234L161.628 69.6342C161.418 68.0459 160.653 66.5832 159.468 65.5048C158.708 64.8018 157.797 64.2809 156.806 63.9816C155.814 63.6823 154.767 63.6123 153.745 63.777L152.393 63.9627C152.023 64.0114 151.666 64.1331 151.344 64.3207C151.021 64.5083 150.739 64.7581 150.514 65.0556C150.287 65.352 150.121 65.6906 150.025 66.0516C149.929 66.4127 149.906 66.7891 149.957 67.1591L151.922 81.6467C152.003 82.2372 152.268 82.7872 152.679 83.219C153.089 83.6508 153.626 83.9424 154.211 84.0526C154.385 84.0874 154.561 84.1048 154.738 84.1045C154.866 84.1044 154.993 84.0958 155.119 84.0786L156.63 83.8755C157.552 83.7532 158.439 83.4437 159.237 82.9661C160.035 82.4885 160.726 81.8528 161.269 81.0981C161.386 80.934 161.498 80.7655 161.602 80.5927C162.412 79.1794 162.721 77.5341 162.479 75.9234Z" fill="#007C8F"/>
<path d="M151.52 64.2262C151.124 64.4189 150.779 64.7031 150.514 65.0555C150.287 65.352 150.121 65.6905 150.025 66.0516C149.929 66.4126 149.906 66.7891 149.957 67.1591L151.922 81.6467C152.003 82.2371 152.268 82.7872 152.679 83.219C153.089 83.6508 153.626 83.9424 154.211 84.0526L151.52 64.2262Z" fill="white"/>
<path d="M162.478 75.9233L161.628 69.6342C161.418 68.0459 160.653 66.5831 159.468 65.5048L161.425 79.9189C161.454 80.1503 161.513 80.3768 161.602 80.5927C162.411 79.1793 162.72 77.5341 162.478 75.9233Z" fill="#3F3D56"/>
<path d="M155.753 80.4548C156.344 80.3746 156.641 78.9682 156.417 77.3134C156.192 75.6587 155.531 74.3822 154.94 74.4624C154.349 74.5426 154.052 75.949 154.277 77.6037C154.501 79.2585 155.162 80.5349 155.753 80.4548Z" fill="#3F3D56"/>
<path d="M154.457 72.6797C155.048 72.5996 155.345 71.1931 155.121 69.5384C154.896 67.8836 154.235 66.6072 153.644 66.6874C153.053 66.7675 152.756 68.174 152.981 69.8287C153.205 71.4835 153.866 72.7599 154.457 72.6797Z" fill="#3F3D56"/>
<path d="M162.664 75.7034C163.255 75.6232 163.552 74.2168 163.328 72.562C163.103 70.9073 162.442 69.6308 161.851 69.711C161.26 69.7911 160.963 71.1976 161.188 72.8523C161.412 74.5071 162.073 75.7835 162.664 75.7034Z" fill="#3F3D56"/>
<path d="M124.26 47.6912C121.889 47.6843 119.523 47.9143 117.198 48.378C114.58 48.9007 111.863 49.527 109.194 50.3434C105.025 50.1403 101.959 49.0605 101.341 47.3975C106.2 44.5898 112.131 42.7799 118.925 41.8988C121.753 41.5226 124.611 41.4358 127.456 41.6396C127.758 41.8162 128.018 42.0545 128.22 42.3389C128.423 42.6232 128.563 42.9473 128.631 43.2896C128.834 44.7928 127.119 46.391 124.26 47.6912Z" fill="#3F3D56"/>
<path d="M96.6842 89.7154L93.3582 75.8888C93.2396 75.3899 92.9762 74.9373 92.6012 74.5876C92.2262 74.2379 91.7562 74.0069 91.2503 73.9234C91.1073 73.9012 90.963 73.8896 90.8183 73.8889C90.6146 73.8896 90.4116 73.9142 90.2136 73.9623L88.9264 74.2733C87.2691 74.6741 85.8384 75.716 84.9485 77.1705C84.0585 78.6249 83.7819 80.3729 84.1793 82.0311L85.6695 88.2339C86.0097 89.6941 86.8201 91.0023 87.9761 91.9573C88.1634 92.1085 88.3596 92.2484 88.5635 92.3763C89.2876 92.8301 90.0952 93.1342 90.9387 93.2707C91.7823 93.4072 92.6446 93.3733 93.4748 93.171L94.7577 92.86C95.0969 92.7809 95.416 92.6323 95.695 92.4238C96.1099 92.1213 96.4254 91.7023 96.6015 91.2201C96.7777 90.7378 96.8064 90.2141 96.6842 89.7154Z" fill="#007C8F"/>
<path d="M89.7118 87.1428C90.2917 87.0033 90.445 85.574 90.0543 83.9505C89.6636 82.3269 88.8768 81.1239 88.297 81.2634C87.7171 81.4029 87.5638 82.8322 87.9545 84.4558C88.3452 86.0793 89.132 87.2824 89.7118 87.1428Z" fill="#3F3D56"/>
<path d="M85.3925 88.4387C85.9723 88.2991 86.1256 86.8699 85.735 85.2463C85.3443 83.6227 84.5575 82.4197 83.9776 82.5592C83.3978 82.6988 83.2445 84.128 83.6352 85.7516C84.0259 87.3752 84.8126 88.5782 85.3925 88.4387Z" fill="#3F3D56"/>
<path d="M96.8962 89.6636L93.5702 75.8369C93.4406 75.2972 93.1547 74.8077 92.7482 74.4297C92.3418 74.0516 91.8328 73.8019 91.2852 73.7117L95.8249 92.5965C96.2733 92.2682 96.6143 91.8144 96.805 91.2924C96.9956 90.7704 97.0273 90.2036 96.8962 89.6636Z" fill="white"/>
<path d="M84.9314 79.2925C84.8396 78.908 84.6673 78.5473 84.426 78.2343C83.9585 79.4451 83.8726 80.77 84.1798 82.0311L85.67 88.2339C86.0103 89.6941 86.8207 91.0023 87.9766 91.9573L84.9314 79.2925Z" fill="#3F3D56"/>
</g>
<defs>
<clipPath id="clip0_10500_19111">
<rect width="368.244" height="320" fill="white" transform="translate(0.50293)"/>
</clipPath>
</defs>
</svg>
