<svg width="513" height="320" viewBox="0 0 513 320" fill="none" xmlns="http://www.w3.org/2000/svg">
<g clip-path="url(#clip0_8473_74242)">
<path d="M133.956 195.021C187.81 195.021 231.467 151.364 231.467 97.5107C231.467 43.657 187.81 0 133.956 0C80.1024 0 36.4453 43.657 36.4453 97.5107C36.4453 151.364 80.1024 195.021 133.956 195.021Z" fill="#F2F2F2"/>
<path d="M0.000976562 23.4128C0.000976562 58.8911 22.2582 87.5997 49.7638 87.5997L0.000976562 23.4128Z" fill="#2F2E41"/>
<path d="M49.7637 87.5997C49.7637 51.7228 74.6014 22.6917 105.296 22.6917L49.7637 87.5997Z" fill="#007C8F"/>
<path d="M18.0312 26.629C18.0312 60.3296 32.2243 87.5997 49.7641 87.5997L18.0312 26.629Z" fill="#007C8F"/>
<path d="M49.7637 87.5997C49.7637 41.757 78.4723 4.66162 113.951 4.66162L49.7637 87.5997Z" fill="#2F2E41"/>
<path d="M39.2949 88.0522C39.2949 88.0522 46.3521 87.8349 48.479 86.3204C50.6058 84.8059 59.3347 82.9975 59.8623 85.4264C60.39 87.8554 70.468 97.5069 62.5004 97.5711C54.5329 97.6354 43.9874 96.33 41.8647 95.037C39.7419 93.7439 39.2949 88.0522 39.2949 88.0522Z" fill="#A8A8A8"/>
<path opacity="0.2" d="M62.6426 96.7255C54.6751 96.7898 44.1296 95.4845 42.0069 94.1914C40.3903 93.2067 39.7461 89.6732 39.5305 88.043C39.3812 88.0494 39.2949 88.0521 39.2949 88.0521C39.2949 88.0521 39.7419 93.7438 41.8647 95.0369C43.9875 96.3299 54.5329 97.6353 62.5005 97.571C64.8004 97.5524 65.5948 96.7342 65.5512 95.5222C65.2316 96.2545 64.3545 96.7117 62.6426 96.7255Z" fill="black"/>
<path d="M90.9234 205.981C138.203 205.981 176.531 200.767 176.531 194.335C176.531 187.903 138.203 182.688 90.9234 182.688C43.6434 182.688 5.31543 187.903 5.31543 194.335C5.31543 200.767 43.6434 205.981 90.9234 205.981Z" fill="#3F3D56"/>
<path opacity="0.1" d="M90.9239 204.113C130.619 204.113 162.798 199.735 162.798 194.335C162.798 188.935 130.619 184.557 90.9239 184.557C51.2289 184.557 19.0498 188.935 19.0498 194.335C19.0498 199.735 51.2289 204.113 90.9239 204.113Z" fill="black"/>
<path d="M382.998 320C454.55 320 512.554 312.109 512.554 302.375C512.554 292.641 454.55 284.75 382.998 284.75C311.446 284.75 253.441 292.641 253.441 302.375C253.441 312.109 311.446 320 382.998 320Z" fill="#3F3D56"/>
<path d="M142.197 306.095C185.178 306.095 220.022 301.355 220.022 295.508C220.022 289.66 185.178 284.92 142.197 284.92C99.2147 284.92 64.3711 289.66 64.3711 295.508C64.3711 301.355 99.2147 306.095 142.197 306.095Z" fill="#3F3D56"/>
<path d="M211.782 286.581C252.984 297.11 332.183 272.847 340.881 245.379" stroke="#2F2E41" stroke-width="2" stroke-miterlimit="10"/>
<path d="M141.739 118.569C141.739 118.569 201.253 102.089 204.915 155.193C208.578 208.298 155.931 223.405 197.133 233.934" stroke="#2F2E41" stroke-width="2" stroke-miterlimit="10"/>
<path d="M84.2412 245.967C84.2412 245.967 102.128 241.013 103.229 256.974C104.33 272.935 88.5066 277.476 100.89 280.64" stroke="#2F2E41" stroke-width="2" stroke-miterlimit="10"/>
<path d="M356.49 257.849L352.883 280.874C352.883 280.874 335.129 290.306 347.612 290.584C360.096 290.861 418.907 290.584 418.907 290.584C418.907 290.584 430.28 290.584 412.249 280.597L408.642 256.462L356.49 257.849Z" fill="#2F2E41"/>
<path opacity="0.1" d="M345.101 290.334C347.936 287.811 352.883 285.183 352.883 285.183L356.49 262.158L408.643 262.207L412.249 284.905C416.454 287.234 419.059 289.02 420.583 290.389C422.898 289.861 425.429 287.897 412.249 280.597L408.643 256.462L356.49 257.849L352.883 280.874C352.883 280.874 337.965 288.801 345.101 290.334Z" fill="black"/>
<path d="M491.51 97.3682H273.067C268.504 97.3682 264.806 101.067 264.806 105.629V252.778C264.806 257.341 268.504 261.04 273.067 261.04H491.51C496.073 261.04 499.771 257.341 499.771 252.778V105.629C499.771 101.067 496.073 97.3682 491.51 97.3682Z" fill="#2F2E41"/>
<path d="M491.865 106.107H272.712V228.721H491.865V106.107Z" fill="#3F3D56"/>
<path d="M382.288 103.61C383.054 103.61 383.675 102.989 383.675 102.223C383.675 101.457 383.054 100.836 382.288 100.836C381.522 100.836 380.901 101.457 380.901 102.223C380.901 102.989 381.522 103.61 382.288 103.61Z" fill="#F2F2F2"/>
<path d="M499.771 238.431V252.778C499.771 253.863 499.558 254.938 499.143 255.94C498.728 256.942 498.119 257.853 497.352 258.62C496.585 259.387 495.674 259.996 494.672 260.411C493.669 260.826 492.595 261.04 491.51 261.04H273.067C271.982 261.04 270.908 260.826 269.905 260.411C268.903 259.996 267.992 259.387 267.225 258.62C266.458 257.853 265.849 256.942 265.434 255.94C265.019 254.938 264.806 253.863 264.806 252.778V238.431H499.771Z" fill="#2F2E41"/>
<path d="M443.596 305.564V308.338H294.35V306.119L294.555 305.564L298.234 295.577H440.544L443.596 305.564Z" fill="#2F2E41"/>
<path d="M501.031 302.848C500.759 304.01 499.732 305.237 497.413 306.396C489.091 310.557 472.169 305.286 472.169 305.286C472.169 305.286 459.131 303.067 459.131 297.242C459.497 296.991 459.879 296.764 460.274 296.562C463.773 294.711 475.374 290.143 495.944 296.755C497.46 297.231 498.813 298.118 499.854 299.318C500.688 300.294 501.341 301.531 501.031 302.848Z" fill="#2F2E41"/>
<path opacity="0.1" d="M501.03 302.848C490.844 306.751 481.764 307.042 472.446 300.57C467.747 297.308 463.478 296.501 460.273 296.562C463.772 294.711 475.374 290.143 495.944 296.755C497.459 297.231 498.813 298.118 499.854 299.318C500.688 300.293 501.341 301.531 501.03 302.848Z" fill="black"/>
<path d="M488.259 300.57C490.25 300.57 491.865 300.074 491.865 299.461C491.865 298.848 490.25 298.351 488.259 298.351C486.267 298.351 484.652 298.848 484.652 299.461C484.652 300.074 486.267 300.57 488.259 300.57Z" fill="#F2F2F2"/>
<path d="M382.288 255.075C385.199 255.075 387.559 252.716 387.559 249.805C387.559 246.894 385.199 244.534 382.288 244.534C379.377 244.534 377.018 246.894 377.018 249.805C377.018 252.716 379.377 255.075 382.288 255.075Z" fill="#F2F2F2"/>
<path opacity="0.1" d="M443.596 305.564V308.338H294.35V306.119L294.555 305.564H443.596Z" fill="black"/>
<path d="M144.943 72.7897H49.7217V183.577H144.943V72.7897Z" fill="#2F2E41"/>
<path d="M154.558 61.8026H40.1084V101.173H154.558V61.8026Z" fill="#3F3D56"/>
<path d="M154.558 108.498H40.1084V147.868H154.558V108.498Z" fill="#3F3D56"/>
<path d="M154.558 155.193H40.1084V194.564H154.558V155.193Z" fill="#3F3D56"/>
<path opacity="0.4" d="M131.668 68.6696H124.343V75.9943H131.668V68.6696Z" fill="#007C8F"/>
<path opacity="0.8" d="M142.197 68.6696H134.872V75.9943H142.197V68.6696Z" fill="#007C8F"/>
<path d="M152.726 68.6696H145.401V75.9943H152.726V68.6696Z" fill="#007C8F"/>
<path opacity="0.4" d="M131.668 114.907H124.343V122.232H131.668V114.907Z" fill="#007C8F"/>
<path opacity="0.8" d="M142.197 114.907H134.872V122.232H142.197V114.907Z" fill="#007C8F"/>
<path d="M152.726 114.907H145.401V122.232H152.726V114.907Z" fill="#007C8F"/>
<path opacity="0.4" d="M131.668 161.145H124.343V168.469H131.668V161.145Z" fill="#007C8F"/>
<path opacity="0.8" d="M142.197 161.145H134.872V168.469H142.197V161.145Z" fill="#007C8F"/>
<path d="M152.726 161.145H145.401V168.469H152.726V161.145Z" fill="#007C8F"/>
<path d="M144.943 282.461C164.917 282.461 181.109 266.269 181.109 246.295C181.109 226.321 164.917 210.129 144.943 210.129C124.969 210.129 108.777 226.321 108.777 246.295C108.777 266.269 124.969 282.461 144.943 282.461Z" fill="#2F2E41"/>
<path d="M139.45 274.678H128.463V294.363H139.45V274.678Z" fill="#2F2E41"/>
<path d="M161.425 274.678H150.438V294.363H161.425V274.678Z" fill="#2F2E41"/>
<path d="M137.619 298.026C142.676 298.026 146.775 296.489 146.775 294.592C146.775 292.696 142.676 291.159 137.619 291.159C132.562 291.159 128.463 292.696 128.463 294.592C128.463 296.489 132.562 298.026 137.619 298.026Z" fill="#2F2E41"/>
<path d="M159.593 297.568C164.65 297.568 168.749 296.031 168.749 294.134C168.749 292.238 164.65 290.701 159.593 290.701C154.537 290.701 150.438 292.238 150.438 294.134C150.438 296.031 154.537 297.568 159.593 297.568Z" fill="#2F2E41"/>
<path d="M145.86 249.499C152.686 249.499 158.22 243.965 158.22 237.139C158.22 230.312 152.686 224.778 145.86 224.778C139.033 224.778 133.499 230.312 133.499 237.139C133.499 243.965 139.033 249.499 145.86 249.499Z" fill="white"/>
<path d="M145.859 241.259C148.135 241.259 149.98 239.414 149.98 237.139C149.98 234.863 148.135 233.019 145.859 233.019C143.584 233.019 141.739 234.863 141.739 237.139C141.739 239.414 143.584 241.259 145.859 241.259Z" fill="#3F3D56"/>
<path d="M109.862 212.661C106.942 199.583 116.276 186.368 130.712 183.145C145.147 179.922 159.216 187.911 162.137 200.989C165.057 214.067 155.49 218.891 141.055 222.114C126.62 225.337 112.782 225.74 109.862 212.661Z" fill="#007C8F"/>
<path d="M178.864 239.082C188.045 235.152 194.488 229.63 193.255 226.747C192.021 223.865 183.578 224.714 174.397 228.644C165.215 232.573 158.773 238.096 160.006 240.978C161.24 243.86 169.683 243.011 178.864 239.082Z" fill="#2F2E41"/>
<path d="M111.11 263.345C120.292 259.415 126.734 253.893 125.501 251.011C124.267 248.128 115.824 248.977 106.643 252.907C97.4615 256.837 91.0186 262.359 92.2523 265.241C93.4859 268.123 101.929 267.274 111.11 263.345Z" fill="#2F2E41"/>
<path d="M166.003 256.824C166.003 260.364 156.888 267.353 146.775 267.353C136.662 267.353 127.09 260.821 127.09 257.282C127.09 253.742 136.662 254.535 146.775 254.535C156.888 254.535 166.003 253.284 166.003 256.824Z" fill="white"/>
</g>
<defs>
<clipPath id="clip0_8473_74242">
<rect width="512.554" height="320" fill="white" transform="translate(0.000976562)"/>
</clipPath>
</defs>
</svg>
