<svg width="1em" height="1em" viewBox="0 0 32 32" fill="currentColor" xmlns="http://www.w3.org/2000/svg">
<path fill-rule="evenodd" clip-rule="evenodd" d="M26.7071 1.29289C26.3166 0.902369 25.6834 0.902369 25.2929 1.29289L22.2931 4.29265C22.2931 4.29273 22.293 4.29281 22.2929 4.29289C22.2928 4.29297 22.2927 4.29306 22.2926 4.29314L13.2929 13.2929C13.1054 13.4804 13 13.7348 13 14V18C13 18.5523 13.4477 19 14 19H18C18.2652 19 18.5196 18.8946 18.7071 18.7071L27.7071 9.70711L30.7071 6.70711C31.0976 6.31658 31.0976 5.68342 30.7071 5.29289L26.7071 1.29289ZM27 7.58579L28.5858 6L26 3.41421L24.4142 5L27 7.58579ZM23 6.41421L25.5858 9L17.5858 17H15V14.4142L23 6.41421Z" fill="currentColor"/>
<path fill-rule="evenodd" clip-rule="evenodd" d="M28 14.0001V28.0001H30C30.2652 28.0001 30.5196 28.1054 30.7071 28.293C30.8946 28.4805 31 28.7349 31 29.0001C31 29.2653 30.8946 29.5197 30.7071 29.7072C30.5196 29.8947 30.2652 30.0001 30 30.0001H2C1.73478 30.0001 1.48043 29.8947 1.29289 29.7072C1.10536 29.5197 1 29.2653 1 29.0001C1 28.7349 1.10536 28.4805 1.29289 28.293C1.48043 28.1054 1.73478 28.0001 2 28.0001H4V12.6676C3.99937 12.3378 4.0803 12.013 4.23558 11.7221C4.39086 11.4311 4.61567 11.1831 4.89 11.0001L14.89 4.33508C15.1913 4.13407 15.5415 4.01865 15.9032 4.00112C16.265 3.9836 16.6247 4.06463 16.944 4.23557C17.2633 4.40651 17.5301 4.66094 17.7161 4.9717C17.9021 5.28247 18.0002 5.63791 18 6.00008V6.5L16 8.5V6.00008L6 12.6676V28.0001H16V21H18V28.0001H26V14.0001H25.9999L27.4142 12.5858C27.4142 12.5858 27.4142 12.5859 27.4142 12.5859C27.7893 12.9609 28 13.4696 28 14.0001ZM10 18.0001V16.0001C10 15.7349 9.89464 15.4805 9.70711 15.293C9.51957 15.1054 9.26522 15.0001 9 15.0001C8.73478 15.0001 8.48043 15.1054 8.29289 15.293C8.10536 15.4805 8 15.7349 8 16.0001V18.0001C8 18.2653 8.10536 18.5197 8.29289 18.7072C8.48043 18.8947 8.73478 19.0001 9 19.0001C9.26522 19.0001 9.51957 18.8947 9.70711 18.7072C9.89464 18.5197 10 18.2653 10 18.0001ZM10 25.0001V23.0001C10 22.7349 9.89464 22.4805 9.70711 22.293C9.51957 22.1054 9.26522 22.0001 9 22.0001C8.73478 22.0001 8.48043 22.1054 8.29289 22.293C8.10536 22.4805 8 22.7349 8 23.0001V25.0001C8 25.2653 8.10536 25.5197 8.29289 25.7072C8.48043 25.8947 8.73478 26.0001 9 26.0001C9.26522 26.0001 9.51957 25.8947 9.70711 25.7072C9.89464 25.5197 10 25.2653 10 25.0001ZM14 25.0001V23.0001C14 22.7349 13.8946 22.4805 13.7071 22.293C13.5196 22.1054 13.2652 22.0001 13 22.0001C12.7348 22.0001 12.4804 22.1054 12.2929 22.293C12.1054 22.4805 12 22.7349 12 23.0001V25.0001C12 25.2653 12.1054 25.5197 12.2929 25.7072C12.4804 25.8947 12.7348 26.0001 13 26.0001C13.2652 26.0001 13.5196 25.8947 13.7071 25.7072C13.8946 25.5197 14 25.2653 14 25.0001Z" fill="currentColor"/>
</svg>
