<svg width="1em" height="1em" viewBox="0 0 32 32" fill="currentColor" xmlns="http://www.w3.org/2000/svg">
<path fill-rule="evenodd" clip-rule="evenodd" d="M28.5247 7.3875L27.9497 7.05C27.9855 6.86891 28.0023 6.68457 27.9997 6.5C28.0023 6.31543 27.9855 6.13109 27.9497 5.95L28.5247 5.6125C28.64 5.54882 28.7413 5.46273 28.8228 5.3593C28.9043 5.25587 28.9643 5.13718 28.9992 5.01023C29.0341 4.88328 29.0433 4.75063 29.0263 4.62007C29.0092 4.48951 28.9661 4.36369 28.8997 4.25C28.7642 4.02101 28.5439 3.85459 28.2866 3.78675C28.0292 3.71891 27.7556 3.75511 27.5247 3.8875L26.9497 4.225C26.6696 3.9848 26.3475 3.79834 25.9997 3.675V3C25.9997 2.73478 25.8944 2.48043 25.7068 2.29289C25.5193 2.10536 25.2649 2 24.9997 2C24.7345 2 24.4802 2.10536 24.2926 2.29289C24.1051 2.48043 23.9997 2.73478 23.9997 3V3.675C23.6519 3.79834 23.3299 3.9848 23.0497 4.225L22.4747 3.8875C22.2439 3.75511 21.9702 3.71891 21.7129 3.78675C21.4556 3.85459 21.2353 4.02101 21.0997 4.25C21.0333 4.36369 20.9903 4.48951 20.9732 4.62007C20.9561 4.75063 20.9653 4.88328 21.0002 5.01023C21.0352 5.13718 21.0952 5.25587 21.1766 5.3593C21.2581 5.46273 21.3595 5.54882 21.4747 5.6125L22.0497 5.95C22.0139 6.13109 21.9972 6.31543 21.9997 6.5C21.9972 6.68457 22.0139 6.86891 22.0497 7.05L21.4747 7.3875C21.2858 7.49833 21.1385 7.66812 21.0555 7.87078C20.9724 8.07344 20.9582 8.29776 21.0149 8.50929C21.0717 8.72083 21.1964 8.90786 21.3698 9.04168C21.5432 9.17549 21.7557 9.24868 21.9747 9.25C22.1509 9.25142 22.324 9.20381 22.4747 9.1125L23.0497 8.775C23.3299 9.0152 23.6519 9.20166 23.9997 9.325V10C23.9997 10.2652 24.1051 10.5196 24.2926 10.7071C24.4802 10.8946 24.7345 11 24.9997 11C25.2649 11 25.5193 10.8946 25.7068 10.7071C25.8944 10.5196 25.9997 10.2652 25.9997 10V9.325C26.3475 9.20166 26.6696 9.0152 26.9497 8.775L27.5247 9.1125C27.6754 9.20381 27.8485 9.25142 28.0247 9.25C28.2437 9.24868 28.4563 9.17549 28.6297 9.04168C28.803 8.90786 28.9277 8.72083 28.9845 8.50929C29.0413 8.29776 29.0271 8.07344 28.944 7.87078C28.8609 7.66812 28.7136 7.49833 28.5247 7.3875ZM24.1683 5.94443C24.0584 6.10888 23.9997 6.30222 23.9997 6.5C23.9997 6.76522 24.1051 7.01957 24.2926 7.20711C24.4802 7.39464 24.7345 7.5 24.9997 7.5C25.1975 7.5 25.3908 7.44135 25.5553 7.33147C25.7197 7.22159 25.8479 7.06541 25.9236 6.88268C25.9993 6.69996 26.0191 6.49889 25.9805 6.30491C25.9419 6.11093 25.8467 5.93275 25.7068 5.79289C25.567 5.65304 25.3888 5.5578 25.1948 5.51921C25.0008 5.48063 24.7998 5.50043 24.617 5.57612C24.4343 5.65181 24.2781 5.77998 24.1683 5.94443Z" fill="currentColor"/>
<path d="M30 28.0001H28V14.0001C28 13.4696 27.7893 12.9609 27.4142 12.5859C27.0391 12.2108 26.5304 12.0001 26 12.0001H18V6.00008C18.0002 5.63791 17.9021 5.28247 17.7161 4.9717C17.5301 4.66094 17.2633 4.40651 16.944 4.23557C16.6247 4.06463 16.265 3.9836 15.9032 4.00112C15.5415 4.01865 15.1913 4.13407 14.89 4.33508L4.89 11.0001C4.61567 11.1831 4.39086 11.4311 4.23558 11.7221C4.0803 12.013 3.99937 12.3378 4 12.6676V28.0001H2C1.73478 28.0001 1.48043 28.1054 1.29289 28.293C1.10536 28.4805 1 28.7349 1 29.0001C1 29.2653 1.10536 29.5197 1.29289 29.7072C1.48043 29.8947 1.73478 30.0001 2 30.0001H30C30.2652 30.0001 30.5196 29.8947 30.7071 29.7072C30.8946 29.5197 31 29.2653 31 29.0001C31 28.7349 30.8946 28.4805 30.7071 28.293C30.5196 28.1054 30.2652 28.0001 30 28.0001ZM26 14.0001V28.0001H18V14.0001H26ZM6 12.6676L16 6.00008V28.0001H6V12.6676ZM14 16.0001V18.0001C14 18.2653 13.8946 18.5197 13.7071 18.7072C13.5196 18.8947 13.2652 19.0001 13 19.0001C12.7348 19.0001 12.4804 18.8947 12.2929 18.7072C12.1054 18.5197 12 18.2653 12 18.0001V16.0001C12 15.7349 12.1054 15.4805 12.2929 15.293C12.4804 15.1054 12.7348 15.0001 13 15.0001C13.2652 15.0001 13.5196 15.1054 13.7071 15.293C13.8946 15.4805 14 15.7349 14 16.0001ZM10 16.0001V18.0001C10 18.2653 9.89464 18.5197 9.70711 18.7072C9.51957 18.8947 9.26522 19.0001 9 19.0001C8.73478 19.0001 8.48043 18.8947 8.29289 18.7072C8.10536 18.5197 8 18.2653 8 18.0001V16.0001C8 15.7349 8.10536 15.4805 8.29289 15.293C8.48043 15.1054 8.73478 15.0001 9 15.0001C9.26522 15.0001 9.51957 15.1054 9.70711 15.293C9.89464 15.4805 10 15.7349 10 16.0001ZM10 23.0001V25.0001C10 25.2653 9.89464 25.5197 9.70711 25.7072C9.51957 25.8947 9.26522 26.0001 9 26.0001C8.73478 26.0001 8.48043 25.8947 8.29289 25.7072C8.10536 25.5197 8 25.2653 8 25.0001V23.0001C8 22.7349 8.10536 22.4805 8.29289 22.293C8.48043 22.1054 8.73478 22.0001 9 22.0001C9.26522 22.0001 9.51957 22.1054 9.70711 22.293C9.89464 22.4805 10 22.7349 10 23.0001ZM14 23.0001V25.0001C14 25.2653 13.8946 25.5197 13.7071 25.7072C13.5196 25.8947 13.2652 26.0001 13 26.0001C12.7348 26.0001 12.4804 25.8947 12.2929 25.7072C12.1054 25.5197 12 25.2653 12 25.0001V23.0001C12 22.7349 12.1054 22.4805 12.2929 22.293C12.4804 22.1054 12.7348 22.0001 13 22.0001C13.2652 22.0001 13.5196 22.1054 13.7071 22.293C13.8946 22.4805 14 22.7349 14 23.0001Z" fill="currentColor"/>
</svg>
