<svg viewBox="0 0 32 32" width="1em" height="1em" fill="currentColor" xmlns="http://www.w3.org/2000/svg">
  <path d="M9.46916 12.0135L11.3028 13.1146C11.2026 13.1491 11.1323 13.1849 11.0879 13.2131C11.0631 13.2289 11.0505 13.2397 11.0463 13.2435L9.46916 12.0135Z" fill="currentColor"/>
  <path fill-rule="evenodd" clip-rule="evenodd" d="M12.0685 13C11.7749 12.999 11.5063 13.0444 11.3028 13.1146L11.0463 13.2435C11.0505 13.2397 11.0631 13.2289 11.0879 13.2131C11.1323 13.1849 11.2026 13.1491 11.3028 13.1146L9.46916 12.0135L9.47008 12.0123C9.77551 11.6178 10.2236 11.3712 10.6504 11.224C11.093 11.0713 11.5873 10.9986 12.0735 11H22.5C23.0523 11 23.5 11.4477 23.5 12C23.5 12.5523 23.0523 13 22.5 13H12.0719L12.0685 13Z" fill="currentColor"/>
  <path d="M11.0463 13.2435L7.207 18.196C6.86863 18.6325 6.24048 18.712 5.80399 18.3737C5.3675 18.0353 5.28796 17.4071 5.62633 16.9707L9.46916 12.0135L11.0463 13.2435Z" fill="currentColor"/>
  <path fill-rule="evenodd" clip-rule="evenodd" d="M23.4632 13.049C23.4136 13.0222 23.3367 12.9995 23.2448 13L23.2396 13H16.5833C16.031 13 15.5833 12.5523 15.5833 12C15.5833 11.4477 16.031 11 16.5833 11H23.2373C23.6425 10.9984 24.052 11.0938 24.4142 11.2896C24.7773 11.4858 25.0974 11.7869 25.2927 12.1826C25.3102 12.2181 25.3256 12.2546 25.3387 12.292L26.9429 16.8336C27.1268 17.3544 26.8538 17.9256 26.333 18.1096C25.8123 18.2935 25.241 18.0205 25.0571 17.4997L23.4913 13.0666C23.4845 13.0616 23.4753 13.0555 23.4632 13.049Z" fill="currentColor"/>
  <path fill-rule="evenodd" clip-rule="evenodd" d="M7.5 22C8.60457 22 9.5 22.8954 9.5 24C9.5 25.1046 8.60457 26 7.5 26C6.39543 26 5.5 25.1046 5.5 24C5.5 22.8954 6.39543 22 7.5 22ZM11.5 24C11.5 21.7909 9.70914 20 7.5 20C5.29086 20 3.5 21.7909 3.5 24C3.5 26.2091 5.29086 28 7.5 28C9.70914 28 11.5 26.2091 11.5 24Z" fill="currentColor"/>
  <path fill-rule="evenodd" clip-rule="evenodd" d="M22.5 22C23.6046 22 24.5 22.8954 24.5 24C24.5 25.1046 23.6046 26 22.5 26C21.3954 26 20.5 25.1046 20.5 24C20.5 22.8954 21.3954 22 22.5 22ZM26.5 24C26.5 21.7909 24.7091 20 22.5 20C20.2909 20 18.5 21.7909 18.5 24C18.5 26.2091 20.2909 28 22.5 28C24.7091 28 26.5 26.2091 26.5 24Z" fill="currentColor"/>
  <path fill-rule="evenodd" clip-rule="evenodd" d="M20.5 24C20.5 23.4477 20.0523 23 19.5 23H10.5C9.94772 23 9.5 23.4477 9.5 24C9.5 24.5523 9.94772 25 10.5 25H19.5C20.0523 25 20.5 24.5523 20.5 24Z" fill="currentColor"/>
  <path fill-rule="evenodd" clip-rule="evenodd" d="M28 18.8333V23H25.5C24.9477 23 24.5 23.4477 24.5 24C24.5 24.5523 24.9477 25 25.5 25H28C28.351 25 28.7343 24.9483 29.0667 24.8202C29.2318 24.7566 29.4306 24.6565 29.6051 24.4942C29.7805 24.331 30 24.0342 30 23.6146V18.2188C30 17.7991 29.7805 17.5024 29.6051 17.3392C29.4306 17.1768 29.2318 17.0768 29.0667 17.0131C28.7343 16.885 28.351 16.8333 28 16.8333H2.25C1.69772 16.8333 1.25 17.281 1.25 17.8333C1.25 18.3856 1.69772 18.8333 2.25 18.8333H28Z" fill="currentColor"/>
  <path fill-rule="evenodd" clip-rule="evenodd" d="M2 16.8333C1.44772 16.8333 1 17.281 1 17.8333V23C1 23.4411 1.12274 23.9065 1.39548 24.2883C1.67124 24.6744 2.13028 25 2.71428 25H4.5C5.05229 25 5.5 24.5523 5.5 24C5.5 23.4477 5.05229 23 4.5 23H3V17.8333C3 17.281 2.55229 16.8333 2 16.8333Z" fill="currentColor"/>
  <path fill-rule="evenodd" clip-rule="evenodd" d="M13 8C13 7.44772 12.5523 7 12 7H2C1.44772 7 1 7.44772 1 8C1 8.55228 1.44772 9 2 9H12C12.5523 9 13 8.55228 13 8Z" fill="currentColor"/>
  <path fill-rule="evenodd" clip-rule="evenodd" d="M6.70711 3.29289C6.31658 2.90237 5.68342 2.90237 5.29289 3.29289L1.29289 7.29289C0.902369 7.68342 0.902369 8.31658 1.29289 8.70711L5.29289 12.7071C5.68342 13.0976 6.31658 13.0976 6.70711 12.7071C7.09763 12.3166 7.09763 11.6834 6.70711 11.2929L3.41422 8L6.70711 4.70711C7.09763 4.31658 7.09763 3.68342 6.70711 3.29289Z" fill="currentColor"/>
</svg>
