<svg width="1em" height="1em" viewBox="0 0 32 32" fill="currentColor" xmlns="http://www.w3.org/2000/svg">
<path fill-rule="evenodd" clip-rule="evenodd" d="M30 16H5.5375L8.65 9.00001H15C15 9.00001 16 9 16 8C16 7 15 7.00001 15 7.00001H8.65C8.26325 6.99892 7.88459 7.11069 7.56042 7.32162C7.23625 7.53255 6.98067 7.83347 6.825 8.18751L3.35 16H2C1.73478 16 1.48043 16.1054 1.29289 16.2929C1.10536 16.4804 1 16.7348 1 17C1 17.2652 1.10536 17.5196 1.29289 17.7071C1.48043 17.8947 1.73478 18 2 18H3V28C3 28.5304 3.21071 29.0391 3.58579 29.4142C3.96086 29.7893 4.46957 30 5 30H8C8.53043 30 9.03914 29.7893 9.41421 29.4142C9.78929 29.0391 10 28.5304 10 28V26H22V28C22 28.5304 22.2107 29.0391 22.5858 29.4142C22.9609 29.7893 23.4696 30 24 30H27C27.5304 30 28.0391 29.7893 28.4142 29.4142C28.7893 29.0391 29 28.5304 29 28V18H30C30.2652 18 30.5196 17.8947 30.7071 17.7071C30.8946 17.5196 31 17.2652 31 17C31 16.7348 30.8946 16.4804 30.7071 16.2929C30.5196 16.1054 30.2652 16 30 16ZM24 28H27V18H5V28H8V25C8 24.7348 8.10536 24.4804 8.29289 24.2929C8.48043 24.1054 8.73478 24 9 24H23C23.2652 24 23.5196 24.1054 23.7071 24.2929C23.8946 24.4804 24 24.7348 24 25V28Z" fill="currentColor"/>
<path fill-rule="evenodd" clip-rule="evenodd" d="M7 21C7 20.4477 7.44772 20 8 20H10C10.5523 20 11 20.4477 11 21C11 21.5523 10.5523 22 10 22H8C7.44772 22 7 21.5523 7 21Z" fill="currentColor"/>
<path fill-rule="evenodd" clip-rule="evenodd" d="M21 21C21 20.4477 21.4477 20 22 20H24C24.5523 20 25 20.4477 25 21C25 21.5523 24.5523 22 24 22H22C21.4477 22 21 21.5523 21 21Z" fill="currentColor"/>
<path d="M24.1126 5.08892H23.2397V7.90698H23.9163C24.3054 7.90698 24.636 7.85955 24.9081 7.76471C25.1801 7.66621 25.3867 7.51117 25.5279 7.29959C25.6691 7.08801 25.7397 6.80894 25.7397 6.46238C25.7397 5.99909 25.6071 5.65435 25.3419 5.42818C25.0802 5.20201 24.6705 5.08892 24.1126 5.08892Z" fill="currentColor"/>
<path fill-rule="evenodd" clip-rule="evenodd" d="M20 2H28C29.1046 2 30 2.89543 30 4V12C30 13.1046 29.1046 14 28 14H20C18.8954 14 18 13.1046 18 12V4C18 2.89543 18.8954 2 20 2ZM26.3285 4.63475C25.8809 4.21158 25.1698 4 24.1952 4H22V12H23.2397V9.00137H24.0455C24.5964 9.00137 25.0596 8.93206 25.4349 8.79343C25.8137 8.65481 26.1185 8.46694 26.3492 8.22982C26.5799 7.98906 26.7452 7.71363 26.845 7.40356C26.9483 7.08983 27 6.75969 27 6.41313C27 5.65071 26.7762 5.05791 26.3285 4.63475Z" fill="currentColor"/>
</svg>
