<svg viewBox="0 0 32 32" width="1em" height="1em" fill="currentColor" xmlns="http://www.w3.org/2000/svg">
  <path d="M21.5308 12.0135L19.6973 13.1146C19.7974 13.1491 19.8677 13.1849 19.9121 13.2131C19.9369 13.2289 19.9495 13.2397 19.9537 13.2435L21.5308 12.0135Z" fill="currentColor"/>
  <path fill-rule="evenodd" clip-rule="evenodd" d="M18.9315 13C19.2251 12.999 19.4937 13.0444 19.6973 13.1146L19.9537 13.2435C19.9495 13.2397 19.9369 13.2289 19.9121 13.2131C19.8677 13.1849 19.7974 13.1491 19.6973 13.1146L21.5308 12.0135L21.5299 12.0123C21.2245 11.6178 20.7764 11.3712 20.3496 11.224C19.907 11.0713 19.4127 10.9986 18.9265 11H8.5C7.94772 11 7.5 11.4477 7.5 12C7.5 12.5523 7.94772 13 8.5 13H18.9281L18.9315 13Z" fill="currentColor"/>
  <path d="M19.9537 13.2435L23.793 18.196C24.1314 18.6325 24.7595 18.712 25.196 18.3737C25.6325 18.0353 25.712 17.4071 25.3737 16.9707L21.5308 12.0135L19.9537 13.2435Z" fill="currentColor"/>
  <path fill-rule="evenodd" clip-rule="evenodd" d="M7.53682 13.049C7.58644 13.0222 7.66327 12.9995 7.7552 13L7.76042 13H14.4167C14.969 13 15.4167 12.5523 15.4167 12C15.4167 11.4477 14.969 11 14.4167 11H7.76269C7.3575 10.9984 6.94801 11.0938 6.58579 11.2896C6.22266 11.4858 5.90255 11.7869 5.70734 12.1826C5.68983 12.2181 5.67444 12.2546 5.66126 12.292L4.05709 16.8336C3.87315 17.3544 4.1462 17.9256 4.66695 18.1096C5.18771 18.2935 5.75897 18.0205 5.94291 17.4997L7.50873 13.0666C7.51551 13.0616 7.52473 13.0555 7.53682 13.049Z" fill="currentColor"/>
  <path fill-rule="evenodd" clip-rule="evenodd" d="M23.5 22C22.3954 22 21.5 22.8954 21.5 24C21.5 25.1046 22.3954 26 23.5 26C24.6046 26 25.5 25.1046 25.5 24C25.5 22.8954 24.6046 22 23.5 22ZM19.5 24C19.5 21.7909 21.2909 20 23.5 20C25.7091 20 27.5 21.7909 27.5 24C27.5 26.2091 25.7091 28 23.5 28C21.2909 28 19.5 26.2091 19.5 24Z" fill="currentColor"/>
  <path fill-rule="evenodd" clip-rule="evenodd" d="M8.5 22C7.39543 22 6.5 22.8954 6.5 24C6.5 25.1046 7.39543 26 8.5 26C9.60457 26 10.5 25.1046 10.5 24C10.5 22.8954 9.60457 22 8.5 22ZM4.5 24C4.5 21.7909 6.29086 20 8.5 20C10.7091 20 12.5 21.7909 12.5 24C12.5 26.2091 10.7091 28 8.5 28C6.29086 28 4.5 26.2091 4.5 24Z" fill="currentColor"/>
  <path fill-rule="evenodd" clip-rule="evenodd" d="M10.5 24C10.5 23.4477 10.9477 23 11.5 23H20.5C21.0523 23 21.5 23.4477 21.5 24C21.5 24.5523 21.0523 25 20.5 25H11.5C10.9477 25 10.5 24.5523 10.5 24Z" fill="currentColor"/>
  <path fill-rule="evenodd" clip-rule="evenodd" d="M3 18.8333V23H5.5C6.05229 23 6.5 23.4477 6.5 24C6.5 24.5523 6.05229 25 5.5 25H3C2.64896 25 2.26574 24.9483 1.93326 24.8202C1.76816 24.7566 1.56936 24.6565 1.39492 24.4942C1.21951 24.331 1 24.0342 1 23.6146V18.2188C1 17.7991 1.21951 17.5024 1.39492 17.3392C1.56936 17.1768 1.76816 17.0768 1.93326 17.0131C2.26574 16.885 2.64896 16.8333 3 16.8333H28.75C29.3023 16.8333 29.75 17.281 29.75 17.8333C29.75 18.3856 29.3023 18.8333 28.75 18.8333H3ZM2.64729 22.9518C2.64734 22.9518 2.64878 22.9523 2.65144 22.9536C2.64857 22.9525 2.64723 22.9518 2.64729 22.9518ZM2.64729 18.8815C2.64723 18.8815 2.64856 18.8809 2.65143 18.8797C2.64877 18.881 2.64734 18.8816 2.64729 18.8815Z" fill="currentColor"/>
  <path fill-rule="evenodd" clip-rule="evenodd" d="M29 16.8333C29.5523 16.8333 30 17.281 30 17.8333V23C30 23.4411 29.8773 23.9065 29.6045 24.2883C29.3288 24.6744 28.8697 25 28.2857 25H26.5C25.9477 25 25.5 24.5523 25.5 24C25.5 23.4477 25.9477 23 26.5 23H28V17.8333C28 17.281 28.4477 16.8333 29 16.8333Z" fill="currentColor"/>
  <path fill-rule="evenodd" clip-rule="evenodd" d="M18 8C18 7.44772 18.4477 7 19 7H29C29.5523 7 30 7.44772 30 8C30 8.55228 29.5523 9 29 9H19C18.4477 9 18 8.55228 18 8Z" fill="currentColor"/>
  <path fill-rule="evenodd" clip-rule="evenodd" d="M24.2929 3.29289C24.6834 2.90237 25.3166 2.90237 25.7071 3.29289L29.7071 7.29289C30.0976 7.68342 30.0976 8.31658 29.7071 8.70711L25.7071 12.7071C25.3166 13.0976 24.6834 13.0976 24.2929 12.7071C23.9024 12.3166 23.9024 11.6834 24.2929 11.2929L27.5858 8L24.2929 4.70711C23.9024 4.31658 23.9024 3.68342 24.2929 3.29289Z" fill="currentColor"/>
</svg>
