<svg width="1em" height="1em" viewBox="0 0 32 32" fill="currentColor" xmlns="http://www.w3.org/2000/svg">
<path fill-rule="evenodd" clip-rule="evenodd" d="M30 14H28.65L27.7604 12C27.7604 12 27.5 11.5 26.5 11.5C25.5 11.5 25.5732 12 25.5732 12L26.4625 14H5.5375L8.65 7H17C17 7 18 6.99999 18 5.99999C18 4.99999 17 5 17 5H8.65C8.26325 4.99891 7.88459 5.11068 7.56042 5.32161C7.23625 5.53254 6.98067 5.83346 6.825 6.1875L3.35 14H2C1.73478 14 1.48043 14.1054 1.29289 14.2929C1.10536 14.4804 1 14.7348 1 15C1 15.2652 1.10536 15.5196 1.29289 15.7071C1.48043 15.8946 1.73478 16 2 16H3V26C3 26.5304 3.21071 27.0391 3.58579 27.4142C3.96086 27.7893 4.46957 28 5 28H8C8.53043 28 9.03914 27.7893 9.41421 27.4142C9.78929 27.0391 10 26.5304 10 26V24H22V26C22 26.5304 22.2107 27.0391 22.5858 27.4142C22.9609 27.7893 23.4696 28 24 28H27C27.5304 28 28.0391 27.7893 28.4142 27.4142C28.7893 27.0391 29 26.5304 29 26V16H30C30.2652 16 30.5196 15.8946 30.7071 15.7071C30.8946 15.5196 31 15.2652 31 15C31 14.7348 30.8946 14.4804 30.7071 14.2929C30.5196 14.1054 30.2652 14 30 14ZM24 26H27V16H5V26H8V23C8 22.7348 8.10536 22.4804 8.29289 22.2929C8.48043 22.1054 8.73478 22 9 22H23C23.2652 22 23.5196 22.1054 23.7071 22.2929C23.8946 22.4804 24 22.7348 24 23V26Z" fill="currentColor"/>
<path fill-rule="evenodd" clip-rule="evenodd" d="M27.5247 7.8875L26.9497 7.55C26.9855 7.36891 27.0023 7.18457 26.9997 7C27.0023 6.81543 26.9855 6.63109 26.9497 6.45L27.5247 6.1125C27.64 6.04882 27.7413 5.96273 27.8228 5.8593C27.9043 5.75587 27.9643 5.63718 27.9992 5.51023C28.0341 5.38328 28.0433 5.25063 28.0263 5.12007C28.0092 4.98951 27.9662 4.86369 27.8997 4.75C27.7642 4.52101 27.5439 4.35459 27.2866 4.28675C27.0292 4.21891 26.7556 4.25511 26.5247 4.3875L25.9497 4.725C25.6696 4.4848 25.3475 4.29834 24.9997 4.175V3.5C24.9997 3.23478 24.8944 2.98043 24.7068 2.79289C24.5193 2.60536 24.2649 2.5 23.9997 2.5C23.7345 2.5 23.4802 2.60536 23.2926 2.79289C23.1051 2.98043 22.9997 3.23478 22.9997 3.5V4.175C22.6519 4.29834 22.3299 4.4848 22.0497 4.725L21.4747 4.3875C21.2439 4.25511 20.9702 4.21891 20.7129 4.28675C20.4556 4.35459 20.2353 4.52101 20.0997 4.75C20.0333 4.86369 19.9903 4.98951 19.9732 5.12007C19.9561 5.25063 19.9653 5.38328 20.0002 5.51023C20.0352 5.63718 20.0952 5.75587 20.1766 5.8593C20.2581 5.96273 20.3595 6.04882 20.4747 6.1125L21.0497 6.45C21.0139 6.63109 20.9972 6.81543 20.9997 7C20.9972 7.18457 21.0139 7.36891 21.0497 7.55L20.4747 7.8875C20.2858 7.99833 20.1385 8.16812 20.0555 8.37078C19.9724 8.57344 19.9582 8.79776 20.0149 9.00929C20.0717 9.22083 20.1964 9.40786 20.3698 9.54168C20.5432 9.67549 20.7557 9.74868 20.9747 9.75C21.1509 9.75142 21.324 9.70381 21.4747 9.6125L22.0497 9.275C22.3299 9.5152 22.6519 9.70166 22.9997 9.825V10.5C22.9997 10.7652 23.1051 11.0196 23.2926 11.2071C23.4802 11.3946 23.7345 11.5 23.9997 11.5C24.2649 11.5 24.5193 11.3946 24.7068 11.2071C24.8944 11.0196 24.9997 10.7652 24.9997 10.5V9.825C25.3475 9.70166 25.6696 9.5152 25.9497 9.275L26.5247 9.6125C26.6754 9.70381 26.8485 9.75142 27.0247 9.75C27.2437 9.74868 27.4563 9.67549 27.6297 9.54168C27.803 9.40786 27.9277 9.22083 27.9845 9.00929C28.0413 8.79776 28.0271 8.57344 27.944 8.37078C27.8609 8.16812 27.7136 7.99833 27.5247 7.8875ZM23.1683 6.44443C23.0584 6.60888 22.9997 6.80222 22.9997 7C22.9997 7.26522 23.1051 7.51957 23.2926 7.70711C23.4802 7.89464 23.7345 8 23.9997 8C24.1975 8 24.3908 7.94135 24.5553 7.83147C24.7197 7.72159 24.8479 7.56541 24.9236 7.38268C24.9993 7.19996 25.0191 6.99889 24.9805 6.80491C24.9419 6.61093 24.8467 6.43275 24.7068 6.29289C24.567 6.15304 24.3888 6.0578 24.1948 6.01921C24.0008 5.98063 23.7998 6.00043 23.617 6.07612C23.4343 6.15181 23.2781 6.27998 23.1683 6.44443Z" fill="currentColor"/>
<path fill-rule="evenodd" clip-rule="evenodd" d="M7 19C7 18.4477 7.44772 18 8 18H10C10.5523 18 11 18.4477 11 19C11 19.5523 10.5523 20 10 20H8C7.44772 20 7 19.5523 7 19Z" fill="currentColor"/>
<path fill-rule="evenodd" clip-rule="evenodd" d="M21 19C21 18.4477 21.4477 18 22 18H24C24.5523 18 25 18.4477 25 19C25 19.5523 24.5523 20 24 20H22C21.4477 20 21 19.5523 21 19Z" fill="currentColor"/>
</svg>
