<svg width="1em" height="1em" viewBox="0 0 32 32" fill="currentColor" xmlns="http://www.w3.org/2000/svg">
<path d="M30 15.0001H28.65L25.175 7.18757C25.0193 6.83353 24.7637 6.53261 24.4396 6.32168C24.1154 6.11075 23.7367 5.99898 23.35 6.00007H8.65C8.26325 5.99898 7.88459 6.11075 7.56042 6.32168C7.23625 6.53261 6.98067 6.83353 6.825 7.18757L3.35 15.0001H2C1.73478 15.0001 1.48043 15.1054 1.29289 15.293C1.10536 15.4805 1 15.7348 1 16.0001C1 16.2653 1.10536 16.5196 1.29289 16.7072C1.48043 16.8947 1.73478 17.0001 2 17.0001H3V27.0001C3 27.5305 3.21071 28.0392 3.58579 28.4143C3.96086 28.7894 4.46957 29.0001 5 29.0001H8C8.53043 29.0001 9.03914 28.7894 9.41421 28.4143C9.78929 28.0392 10 27.5305 10 27.0001V25.0001H22V27.0001C22 27.5305 22.2107 28.0392 22.5858 28.4143C22.9609 28.7894 23.4696 29.0001 24 29.0001H27C27.5304 29.0001 28.0391 28.7894 28.4142 28.4143C28.7893 28.0392 29 27.5305 29 27.0001V17.0001H30C30.2652 17.0001 30.5196 16.8947 30.7071 16.7072C30.8946 16.5196 31 16.2653 31 16.0001C31 15.7348 30.8946 15.4805 30.7071 15.293C30.5196 15.1054 30.2652 15.0001 30 15.0001ZM8.65 8.00007H23.35L26.4625 15.0001H5.5375L8.65 8.00007ZM27 27.0001H24V24.0001C24 23.7348 23.8946 23.4805 23.7071 23.293C23.5196 23.1054 23.2652 23.0001 23 23.0001H9C8.73478 23.0001 8.48043 23.1054 8.29289 23.293C8.10536 23.4805 8 23.7348 8 24.0001V27.0001H5V17.0001H27V27.0001Z" fill="currentColor"/>
<path fill-rule="evenodd" clip-rule="evenodd" d="M7 20C7 19.4477 7.44772 19 8 19H10C10.5523 19 11 19.4477 11 20C11 20.5523 10.5523 21 10 21H8C7.44772 21 7 20.5523 7 20Z" fill="currentColor"/>
<path fill-rule="evenodd" clip-rule="evenodd" d="M21 20C21 19.4477 21.4477 19 22 19H24C24.5523 19 25 19.4477 25 20C25 20.5523 24.5523 21 24 21H22C21.4477 21 21 20.5523 21 20Z" fill="currentColor"/>
<path fill-rule="evenodd" clip-rule="evenodd" d="M9 4C9 3.44772 9.44771 3 10 3H26.5C26.9 3 27.2616 3.2384 27.4191 3.60608L30.4191 10.6061C30.6367 11.1137 30.4015 11.7016 29.8939 11.9191C29.3863 12.1367 28.7984 11.9015 28.5809 11.3939L25.8406 5H10C9.44771 5 9 4.55228 9 4Z" fill="currentColor"/>
</svg>
