<svg width="1em" height="1em" viewBox="0 0 32 32" fill="currentColor" xmlns="http://www.w3.org/2000/svg">
<path d="M3.11279 15.9999C3.11319 15.8247 3.15959 15.6528 3.24734 15.5012C3.33508 15.3496 3.46111 15.2237 3.61279 15.1362L15.6128 8.13615C15.7657 8.04698 15.9395 8 16.1165 8C16.2935 8 16.4674 8.04698 16.6203 8.13615L28.6203 15.1362C28.7712 15.2242 28.8965 15.3503 28.9835 15.5019C29.0706 15.6534 29.1164 15.8251 29.1164 15.9999C29.1164 16.1747 29.0706 16.3464 28.9835 16.4979C28.8965 16.6495 28.7712 16.7756 28.6203 16.8637L16.6203 23.8637C16.4674 23.9528 16.2935 23.9998 16.1165 23.9998C15.9395 23.9998 15.7657 23.9528 15.6128 23.8637L3.61279 16.8637C3.46111 16.7761 3.33508 16.6502 3.24734 16.4986C3.15959 16.347 3.11319 16.1751 3.11279 15.9999ZM6.09779 15.9999L16.1128 21.8424L26.1278 15.9999L16.1128 10.1574L6.09779 15.9999Z" fill="currentColor"/>
</svg>
