<svg width="1em" height="1em" viewBox="0 0 32 32" fill="currentColor" xmlns="http://www.w3.org/2000/svg">
<path fill-rule="evenodd" clip-rule="evenodd" d="M13.4989 5.89333C13.1271 6.21365 12.6833 6.54698 12.1712 6.75896C11.6664 6.96788 11.1207 7.0388 10.6404 7.06994C10.3269 7.09026 9.97678 7.09568 9.65743 7.10062C9.50464 7.10299 9.3589 7.10525 9.22759 7.10897C8.26471 7.1363 7.77451 7.25471 7.51461 7.51461C7.25471 7.77451 7.1363 8.26471 7.10897 9.22759C7.10525 9.3589 7.10299 9.50464 7.10062 9.65743C7.09568 9.97678 7.09026 10.3269 7.06994 10.6404C7.0388 11.1207 6.96794 11.6662 6.75902 12.1711L6.75838 12.1726C6.54627 12.6828 6.21295 13.1256 5.89305 13.4966C5.67397 13.7506 5.42123 14.0144 5.19198 14.2537C5.09545 14.3545 5.00308 14.4509 4.91915 14.5404C4.61009 14.87 4.3712 15.1498 4.20861 15.4133C4.05006 15.6703 4 15.8553 4 16C4 16.1447 4.05006 16.3297 4.20861 16.5867C4.3712 16.8502 4.61009 17.13 4.91915 17.4596C5.00308 17.5491 5.09545 17.6455 5.19198 17.7463C5.42123 17.9856 5.67397 18.2494 5.89305 18.5034C6.21295 18.8744 6.54627 19.3172 6.75838 19.8274L6.75914 19.8292C6.96793 20.3342 7.0388 20.8798 7.06994 21.3601C7.09026 21.6736 7.09568 22.0238 7.10063 22.3431C7.10299 22.4959 7.10525 22.6416 7.10897 22.7729C7.1363 23.7355 7.25468 24.2255 7.51461 24.4854C7.77451 24.7453 8.26471 24.8637 9.22759 24.891C9.35889 24.8948 9.50462 24.897 9.6574 24.8994C9.97676 24.9043 10.3269 24.9097 10.6404 24.9301C11.1207 24.9612 11.6662 25.0321 12.1711 25.241L12.1726 25.2416C12.6828 25.4537 13.1256 25.7871 13.4966 26.107C13.7506 26.326 14.0144 26.5788 14.2537 26.808C14.3545 26.9045 14.4509 26.9969 14.5404 27.0809C14.87 27.3899 15.1498 27.6288 15.4133 27.7914C15.6703 27.9499 15.8553 28 16 28C16.1447 28 16.3297 27.9499 16.5867 27.7914C16.8502 27.6288 17.13 27.3899 17.4596 27.0809C17.5491 26.9969 17.6455 26.9045 17.7463 26.808C17.9856 26.5788 18.2494 26.326 18.5034 26.107C18.8744 25.7871 19.3172 25.4537 19.8274 25.2416L19.8292 25.2409C20.3342 25.0321 20.8798 24.9612 21.3601 24.9301C21.6736 24.9097 22.0238 24.9043 22.3431 24.8994C22.4959 24.897 22.6416 24.8948 22.7729 24.891C23.7355 24.8637 24.2255 24.7453 24.4854 24.4854C24.7453 24.2255 24.8637 23.7355 24.891 22.7729C24.8948 22.6416 24.897 22.4959 24.8994 22.3431C24.9043 22.0238 24.9097 21.6736 24.9301 21.3601C24.9612 20.8798 25.0321 20.3342 25.2409 19.8292L25.2416 19.8274C25.4537 19.3172 25.7871 18.8744 26.107 18.5034C26.326 18.2494 26.5788 17.9856 26.808 17.7463C26.9045 17.6455 26.9969 17.5491 27.0809 17.4596C27.3899 17.13 27.6288 16.8502 27.7914 16.5867C27.9499 16.3297 28 16.1447 28 16C28 15.8555 27.95 15.6711 27.7917 15.4148C27.6292 15.1517 27.3905 14.8726 27.0812 14.5432C26.9982 14.4548 26.9071 14.3597 26.8118 14.2603C26.5815 14.0201 26.3273 13.7549 26.1067 13.4989C25.7864 13.1271 25.453 12.6833 25.241 12.1712C25.0322 11.6662 24.9612 11.1202 24.9301 10.6399C24.9097 10.3264 24.9043 9.97623 24.8994 9.65692C24.897 9.50414 24.8948 9.35841 24.891 9.22713C24.8637 8.26451 24.7453 7.77454 24.4854 7.51461C24.2255 7.25468 23.7355 7.1363 22.7729 7.10897C22.6416 7.10525 22.4959 7.10299 22.3431 7.10063C22.0238 7.09568 21.6736 7.09026 21.3601 7.06994C20.8798 7.0388 20.3342 6.96793 19.8292 6.75914L19.8274 6.75838C19.3172 6.54627 18.8744 6.21295 18.5034 5.89305C18.2494 5.67397 17.9856 5.42123 17.7463 5.19198C17.6455 5.09545 17.5491 5.00308 17.4596 4.91915C17.13 4.61009 16.8502 4.3712 16.5867 4.20861C16.3297 4.05006 16.1447 4 16 4C15.8555 4 15.6711 4.04995 15.4148 4.20829C15.1517 4.37077 14.8726 4.60952 14.5432 4.91875C14.4548 5.00175 14.3597 5.09292 14.2603 5.18817C14.0201 5.41847 13.7549 5.67269 13.4989 5.89333ZM14.3636 2.50679C14.8141 2.22849 15.3633 2 16 2C16.6366 2 17.186 2.22837 17.6367 2.50647C18.081 2.78052 18.4824 3.13647 18.8276 3.46023C18.9524 3.57722 19.0676 3.68771 19.1778 3.79333C19.3968 4.00328 19.5957 4.19402 19.8096 4.37844C20.1206 4.64669 20.374 4.81952 20.5943 4.91125C20.7967 4.99473 21.0835 5.04781 21.4895 5.07413C21.7575 5.0915 22.0151 5.09526 22.2998 5.09942C22.4649 5.10183 22.6391 5.10437 22.8296 5.10978C23.7164 5.13495 25.0095 5.21032 25.8996 6.10039C26.7897 6.99046 26.865 8.28362 26.8902 9.17037C26.8956 9.36092 26.8982 9.53511 26.9006 9.70023C26.9047 9.98487 26.9085 10.2425 26.9259 10.5105C26.9522 10.9168 27.0054 11.2038 27.089 11.4063C27.1807 11.6279 27.3537 11.8821 27.6218 12.1934C27.807 12.4083 27.999 12.6084 28.2103 12.8287C28.3148 12.9376 28.4239 13.0513 28.5394 13.1743C28.863 13.519 29.2191 13.9198 29.4932 14.3636C29.7715 14.8141 30 15.3633 30 16C30 16.6366 29.7716 17.186 29.4935 17.6367C29.2195 18.081 28.8635 18.4824 28.5398 18.8276C28.4228 18.9524 28.3123 19.0676 28.2067 19.1778C27.9967 19.3968 27.806 19.5957 27.6216 19.8096C27.3533 20.1207 27.1804 20.3741 27.0887 20.5944C27.0053 20.7968 26.9522 21.0836 26.9259 21.4895C26.9085 21.7575 26.9047 22.0151 26.9006 22.2998C26.8982 22.4649 26.8956 22.6391 26.8902 22.8296C26.865 23.7164 26.7897 25.0095 25.8996 25.8996C25.0095 26.7897 23.7164 26.865 22.8296 26.8902C22.6391 26.8956 22.4649 26.8982 22.2998 26.9006C22.0151 26.9047 21.7575 26.9085 21.4895 26.9259C21.0836 26.9522 20.7968 27.0053 20.5944 27.0887C20.3741 27.1804 20.1207 27.3533 19.8096 27.6216C19.5957 27.806 19.3968 27.9967 19.1778 28.2067C19.0676 28.3123 18.9524 28.4228 18.8276 28.5398C18.4824 28.8635 18.081 29.2195 17.6367 29.4935C17.186 29.7716 16.6366 30 16 30C15.3634 30 14.814 29.7716 14.3633 29.4935C13.919 29.2195 13.5176 28.8635 13.1724 28.5398C13.0476 28.4228 12.9324 28.3123 12.8222 28.2067C12.6032 27.9967 12.4043 27.806 12.1904 27.6216C11.8794 27.3533 11.626 27.1805 11.4058 27.0888C11.2039 27.0053 10.9172 26.9522 10.511 26.9259C10.2431 26.9085 9.98539 26.9047 9.70071 26.9006C9.53559 26.8982 9.36139 26.8956 9.17085 26.8902C8.28404 26.8651 6.99049 26.7897 6.10039 25.8996C5.21032 25.0095 5.13495 23.7164 5.10978 22.8296C5.10437 22.6391 5.10183 22.4649 5.09942 22.2998C5.09526 22.0151 5.0915 21.7575 5.07413 21.4895C5.04781 21.0835 4.99473 20.7967 4.91126 20.5943C4.81953 20.374 4.64669 20.1206 4.37844 19.8096C4.19402 19.5957 4.00328 19.3968 3.79333 19.1778C3.68771 19.0676 3.57722 18.9524 3.46023 18.8276C3.13647 18.4824 2.78052 18.081 2.50647 17.6367C2.22837 17.186 2 16.6366 2 16C2 15.3634 2.22837 14.814 2.50647 14.3633C2.78052 13.919 3.13647 13.5176 3.46023 13.1724C3.57722 13.0476 3.68771 12.9324 3.79333 12.8222C4.00328 12.6032 4.19402 12.4043 4.37844 12.1904C4.64673 11.8793 4.81957 11.6259 4.91129 11.4056C4.99469 11.2037 5.0478 10.9171 5.07413 10.511C5.0915 10.2431 5.09526 9.98541 5.09942 9.70073C5.10183 9.53561 5.10437 9.3614 5.10978 9.17085C5.13495 8.28404 5.21029 6.99049 6.10039 6.10039C6.99049 5.21029 8.28404 5.13495 9.17085 5.10978C9.3614 5.10437 9.53561 5.10183 9.70073 5.09942C9.98541 5.09526 10.2431 5.0915 10.511 5.07413C10.9175 5.04777 11.2043 4.99459 11.4063 4.91104M14.3636 2.50679C13.9198 2.78095 13.519 3.13704 13.1743 3.46062L14.3636 2.50679ZM13.1743 3.46062C13.0513 3.57606 12.9376 3.68522 12.8287 3.78964L13.1743 3.46062ZM12.8287 3.78964C12.6084 4.00104 12.4083 4.19299 12.1934 4.37816L12.8287 3.78964ZM12.1934 4.37816C11.8822 4.64629 11.6279 4.81926 11.4063 4.91104L12.1934 4.37816Z" fill="currentColor"/>
<path fill-rule="evenodd" clip-rule="evenodd" d="M21.7071 10.2929C22.0976 10.6834 22.0976 11.3166 21.7071 11.7071L11.7071 21.7071C11.3166 22.0976 10.6834 22.0976 10.2929 21.7071C9.90237 21.3166 9.90237 20.6834 10.2929 20.2929L20.2929 10.2929C20.6834 9.90237 21.3166 9.90237 21.7071 10.2929Z" fill="currentColor"/>
<path d="M20 22C21.1046 22 22 21.1046 22 20C22 18.8954 21.1046 18 20 18C18.8954 18 18 18.8954 18 20C18 21.1046 18.8954 22 20 22Z" fill="currentColor"/>
<path d="M12 14C13.1046 14 14 13.1046 14 12C14 10.8954 13.1046 10 12 10C10.8954 10 10 10.8954 10 12C10 13.1046 10.8954 14 12 14Z" fill="currentColor"/>
</svg>
