<svg width="1em" height="1em" viewBox="0 0 32 32" fill="currentColor" xmlns="http://www.w3.org/2000/svg">
<path fill-rule="evenodd" clip-rule="evenodd" d="M4.11279 5C4.11279 4.44772 4.56051 4 5.11279 4H16.699C17.2288 4.00025 17.7372 4.21064 18.112 4.585L30.5274 17.0004C30.9022 17.3754 31.113 17.8842 31.113 18.4144C31.113 18.9446 30.9024 19.4531 30.5276 19.8281L19.945 30.4145C19.57 30.7893 19.0611 31.0002 18.5309 31.0002C18.0007 31.0002 17.4922 30.7896 17.1172 30.4148L4.69829 17.9997C4.32393 17.6249 4.11304 17.1164 4.11279 16.5867L4.11279 5ZM6.11279 6V16.5858L18.5309 29.0002L29.113 18.4144L16.6986 6L6.11279 6Z" fill="currentColor"/>
<path d="M10.6128 12C11.4412 12 12.1128 11.3284 12.1128 10.5C12.1128 9.67157 11.4412 9 10.6128 9C9.78437 9 9.11279 9.67157 9.11279 10.5C9.11279 11.3284 9.78437 12 10.6128 12Z" fill="currentColor"/>
<path d="M16.2171 13.2122C16.6583 12.9995 17.1325 12.9474 17.5878 13.0528C18.0456 13.1588 18.4901 13.4258 18.8544 13.8496C19.2144 14.2685 19.8457 14.3162 20.2646 13.9563C20.6834 13.5963 20.7312 12.9649 20.3712 12.5461C19.7523 11.8259 18.9444 11.3139 18.0388 11.1043C17.1307 10.8941 16.1917 11.0042 15.3486 11.4107C14.5087 11.8156 13.8157 12.4886 13.3383 13.32C13.0409 13.8381 12.8324 14.4079 12.7175 15H12.1128C11.5605 15 11.1128 15.4477 11.1128 16C11.1128 16.5523 11.5605 17 12.1128 17H12.6128V17.9096C12.6128 17.9398 12.613 17.9699 12.6135 18H12.1128C11.5605 18 11.1128 18.4477 11.1128 19C11.1128 19.5523 11.5605 20 12.1128 20H13.0101C13.1035 20.2344 13.213 20.4618 13.3383 20.68C13.8157 21.5114 14.5087 22.1845 15.3486 22.5894C16.1917 22.9959 17.1307 23.1059 18.0388 22.8957C18.9444 22.6861 19.7523 22.1741 20.3712 21.4539C20.7312 21.0351 20.6834 20.4037 20.2646 20.0437C19.8457 19.6838 19.2144 19.7315 18.8544 20.1504C18.4901 20.5742 18.0456 20.8413 17.5878 20.9472C17.1325 21.0526 16.6583 21.0005 16.2171 20.7878C15.8695 20.6202 15.5461 20.354 15.2805 20H17.1128C17.6651 20 18.1128 19.5523 18.1128 19C18.1128 18.4477 17.6651 18 17.1128 18H14.6139C14.6132 17.9699 14.6128 17.9393 14.6128 17.9091V17H17.1128C17.6651 17 18.1128 16.5523 18.1128 16C18.1128 15.4477 17.6651 15 17.1128 15H14.7764C14.8513 14.7581 14.9509 14.5282 15.0728 14.3159C15.3679 13.802 15.7727 13.4265 16.2171 13.2122Z" fill="currentColor"/>
</svg>
