<svg viewBox="0 0 32 32" width="1em" height="1em" fill="currentColor" xmlns="http://www.w3.org/2000/svg">
  <path d="M14.1043 15.2122C14.5456 14.9995 15.0197 14.9474 15.475 15.0528C15.9328 15.1588 16.3773 15.4258 16.7416 15.8496C17.1016 16.2685 17.7329 16.3162 18.1518 15.9563C18.5706 15.5963 18.6184 14.9649 18.2584 14.5461C17.6395 13.8259 16.8316 13.3139 15.926 13.1043C15.0179 12.8941 14.0789 13.0042 13.2358 13.4107C12.3959 13.8156 11.7029 14.4886 11.2256 15.32C10.9281 15.8381 10.7196 16.4079 10.6047 17H10C9.44772 17 9 17.4477 9 18C9 18.5523 9.44772 19 10 19H10.5V19.9096C10.5 19.9398 10.5003 19.9699 10.5007 20H10C9.44772 20 9 20.4477 9 21C9 21.5523 9.44772 22 10 22H10.8973C10.9907 22.2344 11.1002 22.4618 11.2256 22.68C11.7029 23.5114 12.3959 24.1845 13.2358 24.5894C14.0789 24.9959 15.0179 25.1059 15.926 24.8957C16.8316 24.6861 17.6395 24.1741 18.2584 23.4539C18.6184 23.0351 18.5706 22.4037 18.1518 22.0437C17.7329 21.6838 17.1016 21.7315 16.7416 22.1504C16.3773 22.5742 15.9328 22.8413 15.475 22.9472C15.0197 23.0526 14.5456 23.0005 14.1043 22.7878C13.7567 22.6202 13.4333 22.354 13.1677 22H15C15.5523 22 16 21.5523 16 21C16 20.4477 15.5523 20 15 20H12.5011C12.5004 19.9699 12.5 19.9393 12.5 19.9091V19H15C15.5523 19 16 18.5523 16 18C16 17.4477 15.5523 17 15 17H12.6636C12.7385 16.7581 12.8381 16.5282 12.96 16.3159C13.2551 15.802 13.6599 15.4265 14.1043 15.2122Z" fill="currentColor"/>
  <path fill-rule="evenodd" clip-rule="evenodd" d="M5.58579 3.58579C5.96086 3.21071 6.46957 3 7 3H19C19.2765 3 19.5267 3.11219 19.7077 3.29354L26.7071 10.2929L26.7183 10.3043C26.8927 10.4843 27 10.7296 27 11V27C27 27.5304 26.7893 28.0391 26.4142 28.4142C26.0391 28.7893 25.5304 29 25 29H7C6.46957 29 5.96086 28.7893 5.58579 28.4142C5.21071 28.0391 5 27.5304 5 27V5C5 4.46957 5.21071 3.96086 5.58579 3.58579ZM7 5L18 5V11C18 11.5523 18.4477 12 19 12H25V27H7L7 5ZM20 6.41421L23.5858 10H20V6.41421Z" fill="currentColor"/>
</svg>
