<svg width="1em" height="1em" viewBox="0 0 32 32" fill="none" stroke="currentColor" xmlns="http://www.w3.org/2000/svg">
<path d="M17 22H23" stroke="currentColor" stroke-width="2" stroke-linecap="round" stroke-linejoin="round"/>
<path d="M17 25H22" stroke="currentColor" stroke-width="2" stroke-linecap="round" stroke-linejoin="round"/>
<path d="M27 27.75C26.3093 28.3817 25.4546 28.7956 24.539 28.9415C23.6235 29.0874 22.6862 28.9591 21.8403 28.5722C20.9944 28.1853 20.2761 27.5563 19.7721 26.7611C19.2681 25.9659 18.9999 25.0385 19 24.0909V21.9091C18.9999 20.9615 19.2681 20.0341 19.7721 19.2389C20.2761 18.4437 20.9944 17.8147 21.8403 17.4278C22.6862 17.0409 23.6235 16.9126 24.539 17.0585C25.4546 17.2044 26.3093 17.6183 27 18.25" stroke="currentColor" stroke-width="2" stroke-linecap="round" stroke-linejoin="round"/>
<path d="M16.5 29H10.7083C10.4542 29 10.2104 28.899 10.0307 28.7193C9.85097 28.5396 9.75 28.2958 9.75 28.0417V11.5H5L15.5 3L26 11.5H21.25V13.5" stroke="currentColor" stroke-width="2" stroke-linecap="round" stroke-linejoin="round"/>
</svg>
