<svg width="1em" height="1em" viewBox="0 0 32 32" fill="currentColor" xmlns="http://www.w3.org/2000/svg">
<path fill-rule="evenodd" clip-rule="evenodd" d="M5.58579 3.58579C5.96086 3.21071 6.46957 3 7 3H19C19.2652 3 19.5196 3.10536 19.7071 3.29289L26.7071 10.2929C26.8946 10.4804 27 10.7348 27 11V27C27 27.5304 26.7893 28.0391 26.4142 28.4142C26.0391 28.7893 25.5304 29 25 29H7C6.46957 29 5.96086 28.7893 5.58579 28.4142C5.21071 28.0391 5 27.5304 5 27V5C5 4.46957 5.21071 3.96086 5.58579 3.58579ZM18 5L7 5L7 27H25V12H19C18.4477 12 18 11.5523 18 11V5ZM20 6.41421L23.5858 10H20V6.41421ZM19.7236 16.3097C20.1048 16.7093 20.0899 17.3423 19.6903 17.7236L15.688 21.5417C15.3014 21.9106 14.6931 21.9103 14.3068 21.5411L12.3091 19.6321C11.9098 19.2505 11.8955 18.6175 12.277 18.2182C12.6586 17.8189 13.2916 17.8046 13.6909 18.1861L14.9983 19.4355L18.3097 16.2764C18.7093 15.8952 19.3423 15.9101 19.7236 16.3097Z" fill="currentColor"/>
</svg>
