<svg width="1em" height="1em" viewBox="0 0 32 32" fill="currentColor" xmlns="http://www.w3.org/2000/svg">
<path d="M13 9H5C4.46957 9 3.96086 9.21071 3.58579 9.58579C3.21071 9.96086 3 10.4696 3 11V27C3 27.5304 3.21071 28.0391 3.58579 28.4142C3.96086 28.7893 4.46957 29 5 29H27C27.5304 29 28.0391 28.7893 28.4142 28.4142C28.7893 28.0391 29 27.5304 29 27V21H13V9ZM19 23V27H13V23H19ZM5 17H11V21H5V17ZM11 11V15H5V11H11ZM5 23H11V27H5V23ZM27 27H21V23H27V27Z" fill="currentColor"/>
<path d="M13 9V11H16V9H13Z" fill="#currentColor"/>
<path d="M27 21H29V15H27V17V21Z" fill="currentColor"/>
<path d="M27 15H26V17H27V15Z" fill="currentColor"/>
<path d="M19 21H21V20H19V21Z" fill="currentColor"/>
<path fill-rule="evenodd" clip-rule="evenodd" d="M25.2929 3.29289C25.6834 2.90237 26.3166 2.90237 26.7071 3.29289L30.7071 7.29289C31.0976 7.68342 31.0976 8.31658 30.7071 8.70711L21.7071 17.7071C21.5196 17.8946 21.2652 18 21 18H17C16.4477 18 16 17.5523 16 17V13C16 12.7348 16.1054 12.4804 16.2929 12.2929L25.2929 3.29289ZM18 13.4142V16H20.5858L28.5858 8L26 5.41421L18 13.4142Z" fill="currentColor"/>
<path fill-rule="evenodd" clip-rule="evenodd" d="M22.2929 6.29289C22.6834 5.90237 23.3166 5.90237 23.7071 6.29289L27.7071 10.2929C28.0976 10.6834 28.0976 11.3166 27.7071 11.7071C27.3166 12.0976 26.6834 12.0976 26.2929 11.7071L22.2929 7.70711C21.9024 7.31658 21.9024 6.68342 22.2929 6.29289Z" fill="currentColor"/>
</svg>
