<svg viewBox="0 0 32 32" width="1em" height="1em" fill="currentColor" xmlns="http://www.w3.org/2000/svg">
  <path d="M24.3867 5.17236C24.3867 6.00079 23.7151 6.67236 22.8867 6.67236C22.0583 6.67236 21.3867 6.00079 21.3867 5.17236C21.3867 4.34394 22.0583 3.67236 22.8867 3.67236C23.7151 3.67236 24.3867 4.34394 24.3867 5.17236Z" fill="currentColor"/>
  <path d="M15.8867 13.6724C15.8867 14.5008 15.2151 15.1724 14.3867 15.1724C13.5583 15.1724 12.8867 14.5008 12.8867 13.6724C12.8867 12.8439 13.5583 12.1724 14.3867 12.1724C15.2151 12.1724 15.8867 12.8439 15.8867 13.6724Z" fill="currentColor"/>
  <path d="M22.8867 15.1724C23.7151 15.1724 24.3867 14.5008 24.3867 13.6724C24.3867 12.8439 23.7151 12.1724 22.8867 12.1724C22.0583 12.1724 21.3867 12.8439 21.3867 13.6724C21.3867 14.5008 22.0583 15.1724 22.8867 15.1724Z" fill="currentColor"/>
  <path d="M7.38672 22.1724C7.38672 23.0008 6.71515 23.6724 5.88672 23.6724C5.05829 23.6724 4.38672 23.0008 4.38672 22.1724C4.38672 21.3439 5.05829 20.6724 5.88672 20.6724C6.71515 20.6724 7.38672 21.3439 7.38672 22.1724Z" fill="currentColor"/>
  <path d="M14.3867 23.6724C15.2151 23.6724 15.8867 23.0008 15.8867 22.1724C15.8867 21.3439 15.2151 20.6724 14.3867 20.6724C13.5583 20.6724 12.8867 21.3439 12.8867 22.1724C12.8867 23.0008 13.5583 23.6724 14.3867 23.6724Z" fill="currentColor"/>
  <path d="M24.3867 22.1724C24.3867 23.0008 23.7151 23.6724 22.8867 23.6724C22.0583 23.6724 21.3867 23.0008 21.3867 22.1724C21.3867 21.3439 22.0583 20.6724 22.8867 20.6724C23.7151 20.6724 24.3867 21.3439 24.3867 22.1724Z" fill="currentColor"/>
</svg>
