<svg width="1em" height="1em" viewBox="0 0 32 32" fill="currentColor" xmlns="http://www.w3.org/2000/svg">
<path fill-rule="evenodd" clip-rule="evenodd" d="M16.1128 8C15.0082 8 14.1128 8.89543 14.1128 10C14.1128 11.1046 15.0082 12 16.1128 12C17.2174 12 18.1128 11.1046 18.1128 10C18.1128 8.89543 17.2174 8 16.1128 8ZM12.1128 10C12.1128 7.79086 13.9037 6 16.1128 6C18.3219 6 20.1128 7.79086 20.1128 10C20.1128 12.2091 18.3219 14 16.1128 14C13.9037 14 12.1128 12.2091 12.1128 10Z" fill="currentColor"/>
<path fill-rule="evenodd" clip-rule="evenodd" d="M16.1128 4C14.518 4 12.9906 4.62669 11.8662 5.73872C10.7422 6.85039 10.1128 8.35577 10.1128 9.92308C10.1128 12.6745 11.6707 15.2121 13.3638 17.1378C14.1977 18.0862 15.0342 18.8518 15.6625 19.38C15.8291 19.52 15.9806 19.6429 16.1128 19.7477C16.245 19.6429 16.3965 19.52 16.5631 19.38C17.1914 18.8518 18.0279 18.0862 18.8618 17.1378C20.5549 15.2121 22.1128 12.6745 22.1128 9.92308C22.1128 8.35577 21.4834 6.85039 20.3594 5.73872C19.235 4.62669 17.7076 4 16.1128 4ZM16.1128 21C15.5436 21.8222 15.543 21.8218 15.543 21.8218L15.5404 21.82L15.5346 21.8159L15.5156 21.8026C15.4997 21.7913 15.4773 21.7754 15.4488 21.7548C15.3919 21.7138 15.3109 21.6543 15.209 21.5773C15.0054 21.4235 14.7183 21.1991 14.3756 20.9109C13.6914 20.3357 12.7779 19.5004 11.8618 18.4584C10.0549 16.4033 8.11279 13.4024 8.11279 9.92308C8.11279 7.81816 8.95836 5.80171 10.4599 4.31672C11.961 2.8321 13.9946 2 16.1128 2C18.231 2 20.2646 2.8321 21.7657 4.31672C23.2672 5.80171 24.1128 7.81816 24.1128 9.92308C24.1128 13.4024 22.1707 16.4033 20.3638 18.4584C19.4477 19.5004 18.5342 20.3357 17.85 20.9109C17.5072 21.1991 17.2202 21.4235 17.0166 21.5773C16.9147 21.6543 16.8336 21.7138 16.7768 21.7548C16.7483 21.7754 16.7259 21.7913 16.71 21.8026L16.691 21.8159L16.6852 21.82L16.6833 21.8213C16.6833 21.8213 16.682 21.8222 16.1128 21ZM16.1128 21L16.682 21.8222C16.3396 22.0593 15.8855 22.0589 15.543 21.8218L16.1128 21Z" fill="currentColor"/>
<path fill-rule="evenodd" clip-rule="evenodd" d="M10.8737 13.6197C11.0453 14.1446 10.7587 14.7093 10.2338 14.8808C8.59007 15.4179 7.27896 16.1566 6.39658 16.9847C5.51742 17.8098 5.11279 18.6707 5.11279 19.5C5.11279 20.7538 6.06564 22.1129 8.10379 23.2169C9.54461 23.9973 11.4172 24.5791 13.5417 24.8431L11.9057 23.2071C11.5152 22.8166 11.5152 22.1834 11.9057 21.7929C12.2962 21.4024 12.9294 21.4024 13.3199 21.7929L16.8199 25.2929C17.0074 25.4804 17.1128 25.7347 17.1128 26C17.1128 26.2652 17.0074 26.5195 16.8199 26.7071L13.3199 30.2071C12.9294 30.5976 12.2962 30.5976 11.9057 30.2071C11.5152 29.8166 11.5152 29.1834 11.9057 28.7929L13.8126 26.8859C11.2679 26.6305 8.96296 25.9568 7.15123 24.9755C4.84624 23.7269 3.11279 21.836 3.11279 19.5C3.11279 17.966 3.87237 16.6109 5.0279 15.5264C6.18022 14.4449 7.77429 13.5804 9.61258 12.9797C10.1375 12.8082 10.7022 13.0947 10.8737 13.6197ZM21.3519 13.6197C21.5234 13.0947 22.088 12.8082 22.613 12.9797C24.4513 13.5804 26.0454 14.4449 27.1977 15.5264C28.3532 16.6109 29.1128 17.966 29.1128 19.5C29.1128 21.0028 28.3834 22.3347 27.2671 23.4076C26.1545 24.477 24.6141 25.3375 22.8346 25.9462C22.312 26.1249 21.7435 25.8462 21.5648 25.3236C21.3861 24.8011 21.6648 24.2326 22.1874 24.0538C23.774 23.5111 25.0344 22.7796 25.8812 21.9657C26.7243 21.1554 27.1128 20.313 27.1128 19.5C27.1128 18.6707 26.7082 17.8098 25.829 16.9847C24.9466 16.1566 23.6355 15.4179 21.9918 14.8808C21.4668 14.7093 21.1803 14.1446 21.3519 13.6197Z" fill="currentColor"/>
</svg>
