<svg width="1em" height="1em" viewBox="0 0 32 32" fill="currentColor" xmlns="http://www.w3.org/2000/svg">
<path d="M16.1128 2.375C14.1078 2.37727 12.1856 3.17477 10.7678 4.59252C9.35006 6.01027 8.55257 7.9325 8.55029 9.9375C8.55029 16.4086 15.4253 21.2959 15.7183 21.5004C15.8339 21.5814 15.9717 21.6248 16.1128 21.6248C16.2539 21.6248 16.3916 21.5814 16.5072 21.5004C16.8003 21.2959 23.6753 16.4086 23.6753 9.9375C23.673 7.9325 22.8755 6.01027 21.4578 4.59252C20.04 3.17477 18.1178 2.37727 16.1128 2.375ZM16.1128 7.1875C16.6567 7.1875 17.1884 7.34878 17.6406 7.65096C18.0928 7.95313 18.4453 8.38262 18.6535 8.88512C18.8616 9.38762 18.9161 9.94055 18.81 10.474C18.7038 11.0074 18.4419 11.4974 18.0573 11.882C17.6727 12.2666 17.1827 12.5286 16.6493 12.6347C16.1158 12.7408 15.5629 12.6863 15.0604 12.4782C14.5579 12.27 14.1284 11.9176 13.8263 11.4653C13.5241 11.0131 13.3628 10.4814 13.3628 9.9375C13.3628 9.20815 13.6525 8.50868 14.1682 7.99296C14.684 7.47723 15.3834 7.1875 16.1128 7.1875Z" fill="currentColor"/>
<path fill-rule="evenodd" clip-rule="evenodd" d="M13.095 13.1818C13.1988 13.7243 12.8433 14.2482 12.3008 14.352C10.0781 14.7776 8.23156 15.5546 6.96651 16.5071C5.69521 17.4643 5.11279 18.5104 5.11279 19.5C5.11279 20.7538 6.06564 22.1129 8.1038 23.2169C9.54461 23.9973 11.4172 24.5792 13.5418 24.8432L11.9057 23.2071C11.5152 22.8166 11.5152 22.1834 11.9057 21.7929C12.2962 21.4024 12.9294 21.4024 13.3199 21.7929L16.8199 25.2929C17.0074 25.4804 17.1128 25.7348 17.1128 26C17.1128 26.2652 17.0074 26.5196 16.8199 26.7071L13.3199 30.2071C12.9294 30.5976 12.2962 30.5976 11.9057 30.2071C11.5152 29.8166 11.5152 29.1834 11.9057 28.7929L13.8126 26.8859C11.2679 26.6305 8.96296 25.9568 7.15123 24.9755C4.84623 23.7269 3.11279 21.836 3.11279 19.5C3.11279 17.6595 4.19999 16.0866 5.7635 14.9094C7.33325 13.7274 9.48674 12.8545 11.9248 12.3877C12.4672 12.2839 12.9911 12.6394 13.095 13.1818ZM19.1306 13.1818C19.2345 12.6394 19.7584 12.2839 20.3008 12.3877C22.7388 12.8545 24.8923 13.7274 26.4621 14.9094C28.0256 16.0866 29.1128 17.6595 29.1128 19.5C29.1128 21.0028 28.3834 22.3347 27.2671 23.4076C26.1545 24.477 24.6141 25.3375 22.8346 25.9462C22.312 26.1249 21.7435 25.8462 21.5648 25.3236C21.3861 24.8011 21.6648 24.2326 22.1874 24.0538C23.774 23.5111 25.0344 22.7796 25.8812 21.9657C26.7243 21.1554 27.1128 20.313 27.1128 19.5C27.1128 18.5104 26.5304 17.4643 25.2591 16.5071C23.994 15.5546 22.1475 14.7776 19.9248 14.352C19.3823 14.2482 19.0268 13.7243 19.1306 13.1818Z" fill="currentColor"/>
</svg>
