<svg width="1em" height="1em" viewBox="0 0 32 32" fill="none" xmlns="http://www.w3.org/2000/svg">
<path fill-rule="evenodd" clip-rule="evenodd" d="M25 7H7L7 25H25V7ZM7 5C5.89543 5 5 5.89543 5 7V25C5 26.1046 5.89543 27 7 27H25C26.1046 27 27 26.1046 27 25V7C27 5.89543 26.1046 5 25 5H7Z" fill="currentColor"/>
<path d="M15.5121 9C17.0713 9 18.2091 9.37027 18.9253 10.1108C19.6416 10.8513 19.9997 11.8887 19.9997 13.223C19.9997 13.8295 19.9171 14.4072 19.7518 14.9562C19.592 15.4989 19.3275 15.9808 18.9584 16.4022C18.5893 16.8171 18.1017 17.1459 17.4956 17.3885C16.895 17.6311 16.154 17.7524 15.2724 17.7524H13.9832V23H11.9997V9H15.5121ZM15.3799 10.9056H13.9832V15.8372H15.0658C15.6884 15.8372 16.2174 15.7542 16.6526 15.5882C17.0879 15.4159 17.4185 15.1446 17.6444 14.7743C17.8702 14.404 17.9832 13.9156 17.9832 13.3092C17.9832 12.4984 17.7711 11.8951 17.3468 11.4993C16.9281 11.1035 16.2724 10.9056 15.3799 10.9056Z" fill="currentColor"/>
</svg>
