<svg width="1em" height="1em" viewBox="0 0 32 32" fill="currentColor" xmlns="http://www.w3.org/2000/svg">
<path fill-rule="evenodd" clip-rule="evenodd" d="M4 5C4 4.44772 4.44772 4 5 4H10C10.5523 4 11 4.44772 11 5C11 5.55228 10.5523 6 10 6H6V10C6 10.5523 5.55228 11 5 11C4.44772 11 4 10.5523 4 10V5ZM21 5C21 4.44772 21.4477 4 22 4H27C27.5523 4 28 4.44772 28 5V10C28 10.5523 27.5523 11 27 11C26.4477 11 26 10.5523 26 10V6H22C21.4477 6 21 5.55228 21 5ZM5 21C5.55228 21 6 21.4477 6 22V26H10C10.5523 26 11 26.4477 11 27C11 27.5523 10.5523 28 10 28H5C4.44772 28 4 27.5523 4 27V22C4 21.4477 4.44772 21 5 21ZM27 21C27.5523 21 28 21.4477 28 22V27C28 27.5523 27.5523 28 27 28H22C21.4477 28 21 27.5523 21 27C21 26.4477 21.4477 26 22 26H26V22C26 21.4477 26.4477 21 27 21Z" fill="currentColor"/>
<path fill-rule="evenodd" clip-rule="evenodd" d="M11.8284 13.2426C11.3049 14.033 11 14.9809 11 16C11 18.7614 13.2386 21 16 21C17.0191 21 17.967 20.6951 18.7574 20.1716L11.8284 13.2426ZM13.2426 11.8284L20.1716 18.7574C20.6951 17.967 21 17.0191 21 16C21 13.2386 18.7614 11 16 11C14.9809 11 14.033 11.3049 13.2426 11.8284ZM9 16C9 12.134 12.134 9 16 9C19.866 9 23 12.134 23 16C23 19.866 19.866 23 16 23C12.134 23 9 19.866 9 16Z" fill="currentColor"/>
</svg>
