<svg viewBox="0 0 32 32" width="1em" height="1em" fill="currentColor" xmlns="http://www.w3.org/2000/svg">
  <path fill-rule="evenodd" clip-rule="evenodd" d="M11.7682 18.3598C11.4147 17.9355 10.7841 17.8782 10.3598 18.2318C9.93556 18.5853 9.87824 19.2159 10.2318 19.6402L15.2318 25.6402C15.4218 25.8682 15.7032 26 16 26C16.2968 26 16.5783 25.8682 16.7682 25.6402L21.7682 19.6402C22.1218 19.2159 22.0645 18.5853 21.6402 18.2318C21.2159 17.8782 20.5854 17.9355 20.2318 18.3598L16 23.4379L11.7682 18.3598ZM10.2318 11.3598C9.87824 11.7841 9.93556 12.4146 10.3598 12.7682C10.7841 13.1218 11.4147 13.0644 11.7682 12.6402L16 7.56202L20.2318 12.6402C20.5854 13.0644 21.2159 13.1218 21.6402 12.7682C22.0645 12.4146 22.1218 11.7841 21.7682 11.3598L16.7682 5.35979C16.5783 5.1318 16.2968 4.99997 16 4.99997C15.7032 4.99997 15.4218 5.1318 15.2318 5.35979L10.2318 11.3598Z" fill="currentColor"/>
</svg>
