<svg width="1em" height="1em" viewBox="0 0 32 32" fill="currentColor" xmlns="http://www.w3.org/2000/svg">
<path fill-rule="evenodd" clip-rule="evenodd" d="M4.00001 18C4.5523 18 5.00001 18.4477 5.00001 19V26.9567C5.04067 26.9775 5.10904 27 5.20001 27H26.8C26.891 27 26.9594 26.9775 27 26.9567V19C27 18.4477 27.4477 18 28 18C28.5523 18 29 18.4477 29 19V27.0577C29 27.6616 28.693 28.1753 28.2661 28.5105C27.8451 28.8411 27.3156 29 26.8 29H5.20001C4.6844 29 4.15493 28.8411 3.7339 28.5105C3.30701 28.1753 3.00001 27.6616 3.00001 27.0577V19C3.00001 18.4477 3.44773 18 4.00001 18Z" fill="currentColor"/>
<path fill-rule="evenodd" clip-rule="evenodd" d="M5.20835 4H26.7917C27.2272 4.00007 27.6642 4.12092 28.0369 4.36183C28.4108 4.60354 28.7132 4.96349 28.8617 5.40846C28.8662 5.42197 28.8704 5.43557 28.8744 5.44926L30.9612 12.7243C31.1135 13.2551 30.8066 13.8089 30.2757 13.9612C29.7449 14.1135 29.1911 13.8066 29.0388 13.2757L26.967 6.05335C26.9635 6.05026 26.9584 6.04613 26.9511 6.04141C26.9191 6.02073 26.863 6.00004 26.7917 6H5.21057C5.14 6.00046 5.08464 6.02109 5.05309 6.04157C5.0459 6.04624 5.04079 6.05032 5.03736 6.05338L2.96109 13.2763C2.80852 13.8071 2.25453 14.1137 1.72374 13.9611C1.19295 13.8085 0.886354 13.2545 1.03893 12.7237L3.13018 5.44873C3.13407 5.43522 3.13823 5.4218 3.14268 5.40847C3.29072 4.96482 3.59187 4.60563 3.96428 4.36393C4.33546 4.12303 4.77073 4.00147 5.20496 4.00001L5.20835 4Z" fill="currentColor"/>
<path fill-rule="evenodd" clip-rule="evenodd" d="M12.1644 5.01361C12.7092 5.1044 13.0772 5.61963 12.9864 6.1644L12 12.0828V15C12 16.3666 11.3882 17.6497 10.3464 18.5758C9.30832 19.4985 7.92317 20 6.50001 20C5.07686 20 3.69171 19.4985 2.65367 18.5758C1.61179 17.6497 1.00001 16.3666 1.00001 15V13C1.00001 12.4477 1.44773 12 2.00001 12C2.5523 12 3.00001 12.4477 3.00001 13V15C3.00001 15.7551 3.33645 16.5068 3.9824 17.081C4.63218 17.6586 5.53622 18 6.50001 18C7.46381 18 8.36784 17.6586 9.01763 17.081C9.66358 16.5068 10 15.7551 10 15V12C10 11.9449 10.0046 11.8899 10.0136 11.8356L11.0136 5.8356C11.1044 5.29083 11.6196 4.92281 12.1644 5.01361Z" fill="currentColor"/>
<path fill-rule="evenodd" clip-rule="evenodd" d="M19.8356 5.01361C20.3804 4.92281 20.8956 5.29083 20.9864 5.8356L21.9864 11.8356C21.9955 11.8899 22 11.9449 22 12V15C22 15.7551 22.3364 16.5068 22.9824 17.081C23.6322 17.6586 24.5362 18 25.5 18C26.4638 18 27.3678 17.6586 28.0176 17.081C28.6636 16.5068 29 15.7551 29 15V13C29 12.4477 29.4477 12 30 12C30.5523 12 31 12.4477 31 13V15C31 16.3666 30.3882 17.6497 29.3464 18.5758C28.3083 19.4985 26.9232 20 25.5 20C24.0769 20 22.6917 19.4985 21.6537 18.5758C20.6118 17.6497 20 16.3666 20 15V12.0828L19.0136 6.1644C18.9228 5.61963 19.2908 5.1044 19.8356 5.01361Z" fill="currentColor"/>
<path fill-rule="evenodd" clip-rule="evenodd" d="M17.9992 12H16.768C16.5434 12 16.5115 12.0938 16.5115 12.2378V14.3144C16.4968 14.79 16.326 14.9414 16.0004 14.9414C15.6652 14.9414 15.4949 14.7817 15.4873 14.2764C15.4873 13.995 15.4873 12.2378 15.4873 12.2378C15.4873 12.0938 15.4557 12 15.2311 12H14V14.4693C14 15.0165 14.1018 15.2473 14.3197 15.4816C14.6574 15.846 15.2467 16 16.0004 16C16.7533 16 17.3426 15.846 17.6804 15.4816C17.8978 15.2473 18 15.0165 18 14.4693L17.9992 12Z" fill="currentColor"/>
<path fill-rule="evenodd" clip-rule="evenodd" d="M16 10C13.7909 10 12 11.7909 12 14C12 16.2091 13.7909 18 16 18C18.2092 18 20 16.2091 20 14C20 11.7909 18.2092 10 16 10ZM10 14C10 10.6863 12.6863 8 16 8C19.3137 8 22 10.6863 22 14C22 17.3137 19.3137 20 16 20C12.6863 20 10 17.3137 10 14Z" fill="currentColor"/>
</svg>
