<svg viewBox="0 0 32 32" width="1em" height="1em" fill="currentColor" xmlns="http://www.w3.org/2000/svg">
  <path fill-rule="evenodd" clip-rule="evenodd" d="M13.5281 11.1183C13.8533 10.9443 14.2478 10.9634 14.5547 11.1679L20.5547 15.1679C20.8329 15.3534 21 15.6656 21 16C21 16.3344 20.8329 16.6466 20.5547 16.832L14.5547 20.8321C14.2478 21.0366 13.8533 21.0557 13.5281 20.8817C13.203 20.7077 13 20.3688 13 20V12C13 11.6312 13.203 11.2923 13.5281 11.1183ZM15 13.8685V18.1315L18.1972 16L15 13.8685Z" fill="currentColor"/>
  <path fill-rule="evenodd" clip-rule="evenodd" d="M16.0051 5.05001C16.0051 5.05001 16.0054 5.05001 16 6.04943L16.0051 5.05001C16.5574 5.053 17.003 5.50313 17 6.0554C16.997 6.60763 16.5469 7.05289 15.9947 7.04999M15.9947 7.04999L15.9914 7.04997C15.9887 7.04996 15.9843 7.04995 15.9783 7.04994C15.9663 7.04992 15.9479 7.04991 15.9233 7.04997C15.8741 7.05008 15.8004 7.05044 15.7043 7.05146C15.5123 7.05349 15.2314 7.05816 14.8806 7.06869C14.1784 7.08977 13.1989 7.13425 12.0919 7.2277C9.8559 7.41649 7.1959 7.79805 5.24039 8.5434C5.09561 8.60247 4.96645 8.69429 4.86306 8.81167C4.75856 8.93033 4.6833 9.0718 4.64331 9.22476C4.37974 10.257 4 12.3469 4 16C4 19.6531 4.37974 21.743 4.64331 22.7752C4.6833 22.9282 4.75856 23.0697 4.86306 23.1883C4.96646 23.3057 5.09564 23.3975 5.24043 23.4566C7.19594 24.202 9.85592 24.5835 12.0919 24.7723C13.1989 24.8658 14.1784 24.9102 14.8806 24.9313C15.2314 24.9418 15.5123 24.9465 15.7043 24.9485C15.8004 24.9496 15.8741 24.9499 15.9233 24.95C15.9479 24.9501 15.9663 24.9501 15.9783 24.9501C15.9843 24.95 15.9887 24.95 15.9914 24.95L15.9942 24.95C15.9979 24.95 16.0018 24.95 16.0054 24.95L16.0086 24.95C16.0113 24.95 16.0157 24.95 16.0217 24.9501C16.0337 24.9501 16.0521 24.9501 16.0767 24.95C16.1259 24.9499 16.1996 24.9496 16.2957 24.9485C16.4877 24.9465 16.7686 24.9418 17.1194 24.9313C17.8216 24.9102 18.8011 24.8658 19.9081 24.7723C22.1441 24.5835 24.8041 24.202 26.7596 23.4566C26.9044 23.3975 27.0335 23.3057 27.1369 23.1883C27.2414 23.0697 27.3167 22.9282 27.3567 22.7752C27.6151 21.7627 27.9167 19.6807 27.9167 16C27.9167 15.4477 28.3644 15 28.9167 15C29.4689 15 29.9167 15.4477 29.9167 16C29.9167 19.7666 29.6103 22.0343 29.2939 23.2726L29.2932 23.2751L29.2929 23.2764C29.1742 23.7333 28.9498 24.1559 28.6378 24.5102C28.3258 24.8645 27.9349 25.1404 27.4966 25.3159C27.4917 25.3178 27.4868 25.3198 27.4819 25.3216C25.2507 26.1742 22.3527 26.573 20.0763 26.7652C18.9254 26.8624 17.9088 26.9085 17.1794 26.9304C16.8144 26.9414 16.5206 26.9463 16.3169 26.9484C16.215 26.9495 16.1357 26.9499 16.0812 26.95C16.0539 26.9501 16.0329 26.9501 16.0184 26.9501C16.0111 26.95 16.0055 26.95 16.0015 26.95H15.9985L15.9884 26.95L15.9816 26.9501C15.9671 26.9501 15.9461 26.9501 15.9188 26.95C15.8643 26.9499 15.785 26.9495 15.6831 26.9484C15.4794 26.9463 15.1856 26.9414 14.8206 26.9304C14.0912 26.9085 13.0746 26.8624 11.9237 26.7652C9.64733 26.573 6.74928 26.1742 4.51808 25.3216C4.51608 25.3209 4.51408 25.3201 4.51208 25.3193C4.50918 25.3182 4.50628 25.317 4.50338 25.3159C4.0651 25.1404 3.6742 24.8645 3.36218 24.5102C3.05016 24.1559 2.82577 23.7333 2.70711 23.2764L2.70614 23.2726C2.39473 22.054 2 19.7944 2 16C2 12.2056 2.39473 9.94596 2.70614 8.7274L2.70711 8.72363C2.82577 8.26671 3.05016 7.84407 3.36218 7.4898C3.6742 7.13553 4.06511 6.85955 4.50338 6.68411C4.50826 6.68216 4.51316 6.68024 4.51808 6.67837C6.74928 5.82585 9.64733 5.42698 11.9237 5.23479C13.0746 5.13763 14.0912 5.09148 14.8206 5.06959C15.1856 5.05864 15.4794 5.05373 15.6831 5.05157C15.785 5.05049 15.8643 5.05009 15.9188 5.04997C15.9461 5.04991 15.9671 5.04992 15.9816 5.04994C15.9889 5.04995 15.9945 5.04997 15.9985 5.04998L16.0051 5.05001" fill="currentColor"/>
  <path fill-rule="evenodd" clip-rule="evenodd" d="M25 3C25.5523 3 26 3.44772 26 4V10C26 10.5523 25.5523 11 25 11C24.4477 11 24 10.5523 24 10V4C24 3.44772 24.4477 3 25 3Z" fill="currentColor"/>
  <path fill-rule="evenodd" clip-rule="evenodd" d="M21 7C21 6.44772 21.4477 6 22 6H28C28.5523 6 29 6.44772 29 7C29 7.55228 28.5523 8 28 8H22C21.4477 8 21 7.55228 21 7Z" fill="currentColor"/>
</svg>
